# 3ds Max Wavefront OBJ Exporter v0.97b - (c)2007 guruware
# File Created: 23.09.2017 22:26:47

#
# object Sphere001
#

v  -0.000006 0.009670 -0.347962
v  -0.000006 -0.426372 -0.003570
v  -0.375006 -0.209873 -0.001677
v  -0.375006 0.223122 0.002111
v  -0.000006 0.439621 0.004004
v  0.374994 0.223122 0.002111
v  0.374994 -0.209873 -0.001677
v  -0.000006 -0.326929 0.608620
v  -0.284252 -0.162826 0.610055
v  -0.284252 0.165381 0.612926
v  -0.000006 0.329486 0.614361
v  0.284241 0.165381 0.612926
v  0.284241 -0.162825 0.610055
v  -0.000006 -0.000909 0.861481
# 14 vertices

vn 0.000000 0.008746 -0.999962
vn 0.000000 -0.948061 -0.318089
vn -0.823423 -0.472675 -0.313931
vn -0.823423 0.478094 -0.305615
vn 0.000000 0.953480 -0.301457
vn 0.823423 0.478094 -0.305615
vn 0.823423 -0.472675 -0.313931
vn 0.000001 -0.885611 0.464428
vn -0.763415 -0.444870 0.468283
vn -0.763415 0.436610 0.475993
vn 0.000000 0.877352 0.479848
vn 0.763415 0.436610 0.475993
vn 0.763415 -0.444870 0.468283
vn 0.000000 -0.008746 0.999962
# 14 vertex normals

vt 0.484397 0.481690 0.000000
vt 0.484397 0.707043 0.000000
vt 0.312058 0.594366 0.000000
vt 0.312058 0.369014 0.000000
vt 0.484397 0.256338 0.000000
vt 0.656736 0.369014 0.000000
vt 0.656736 0.594366 0.000000
vt 0.255280 0.867941 0.000000
vt 0.094324 0.482562 0.000000
vt 0.276632 0.074514 0.000000
vt 0.711871 0.121596 0.000000
vt 0.922100 0.468612 0.000000
vt 0.706944 0.883635 0.000000
# 13 texture coords

g Sphere001
f 1/1/1 2/2/2 3/3/3 
f 1/1/1 3/3/3 4/4/4 
f 1/1/1 4/4/4 5/5/5 
f 1/1/1 5/5/5 6/6/6 
f 1/1/1 6/6/6 7/7/7 
f 1/1/1 7/7/7 2/2/2 
f 8/2/8 9/3/9 3/3/3 2/2/2 
f 9/3/9 10/4/10 4/4/4 3/3/3 
f 10/4/10 11/5/11 5/5/5 4/4/4 
f 11/5/11 12/6/12 6/6/6 5/5/5 
f 12/6/12 13/7/13 7/7/7 6/6/6 
f 13/7/13 8/2/8 2/2/2 7/7/7 
f 14/8/14 9/3/9 8/2/8 
f 14/9/14 10/4/10 9/3/9 
f 14/10/14 11/5/11 10/4/10 
f 14/11/14 12/6/12 11/5/11 
f 14/12/14 13/7/13 12/6/12 
f 14/13/14 8/2/8 13/7/13 
# 6 polygons - 12 triangles

