# 3ds Max Wavefront OBJ Exporter v0.97b - (c)2007 guruware
# File Created: 31.08.2017 20:06:34

#
# object Cylinder007
#

v  -0.00540 -1.75202 -0.00098
v  0.74643 -1.80273 -0.75281
v  1.05785 -1.80273 -0.00098
v  -0.00540 -1.80273 -1.06423
v  -0.75723 -1.80273 -0.75281
v  -1.06865 -1.80273 -0.00098
v  -0.75723 -1.80273 0.75085
v  -0.00540 -1.80273 1.06227
v  0.74643 -1.80273 0.75085
v  1.08896 -1.92239 -0.00098
v  0.82619 -1.92239 -0.83257
v  1.17065 -1.92239 -0.00098
v  0.76843 -1.92239 -0.77481
v  -0.00540 -1.92239 -1.17703
v  -0.00540 -1.92239 -1.09534
v  -0.83699 -1.92239 -0.83257
v  -0.77922 -1.92239 -0.77481
v  -1.18144 -1.92239 -0.00098
v  -1.09975 -1.92239 -0.00098
v  -0.83699 -1.92239 0.83061
v  -0.77922 -1.92239 0.77284
v  -0.00540 -1.92239 1.17506
v  -0.00540 -1.92239 1.09337
v  0.82619 -1.92239 0.83061
v  0.76843 -1.92239 0.77284
v  0.80571 -1.14230 -0.81209
v  1.14168 -1.14230 -0.00098
v  -0.00540 -1.14230 -1.14806
v  -0.81650 -1.14230 -0.81209
v  -1.15247 -1.14230 -0.00098
v  -0.81650 -1.14230 0.81012
v  -0.00540 -1.14230 1.14609
v  0.80571 -1.14230 0.81012
v  1.25998 -1.04732 -0.00098
v  0.81899 -0.95376 -0.82537
v  1.16047 -0.95376 -0.00098
v  0.88936 -1.04732 -0.89574
v  -0.00540 -0.95376 -1.16685
v  -0.00540 -1.04732 -1.26636
v  -0.82979 -0.95376 -0.82537
v  -0.90015 -1.04732 -0.89574
v  -1.17126 -0.95376 -0.00098
v  -1.27077 -1.04732 -0.00098
v  -0.82979 -0.95376 0.82341
v  -0.90015 -1.04732 0.89377
v  -0.00540 -0.95376 1.16488
v  -0.00540 -1.04732 1.26439
v  0.81899 -0.95376 0.82341
v  0.88936 -1.04732 0.89377
v  1.20389 -0.30777 -0.00098
v  0.84970 0.30898 -0.85608
v  1.20389 0.30898 -0.00098
v  0.84970 -0.30777 -0.85608
v  -0.00540 0.30898 -1.21027
v  -0.00540 -0.30777 -1.21027
v  -0.86049 0.30898 -0.85608
v  -0.86049 -0.30777 -0.85608
v  -1.21469 0.30898 -0.00098
v  -1.21469 -0.30777 -0.00098
v  -0.86049 0.30898 0.85411
v  -0.86049 -0.30777 0.85411
v  -0.00540 0.30898 1.20831
v  -0.00540 -0.30777 1.20831
v  0.84970 0.30898 0.85411
v  0.84970 -0.30777 0.85411
v  1.16047 0.95498 -0.00098
v  0.88936 1.04854 -0.89574
v  1.25998 1.04854 -0.00098
v  0.81899 0.95498 -0.82537
v  -0.00540 1.04854 -1.26636
v  -0.00540 0.95498 -1.16685
v  -0.90015 1.04854 -0.89574
v  -0.82979 0.95498 -0.82537
v  -1.27077 1.04854 -0.00098
v  -1.17126 0.95498 -0.00098
v  -0.90015 1.04854 0.89377
v  -0.82979 0.95498 0.82341
v  -0.00540 1.04854 1.26439
v  -0.00540 0.95498 1.16488
v  0.88936 1.04854 0.89377
v  0.81899 0.95498 0.82341
v  1.14168 1.14351 -0.00098
v  0.82619 1.92361 -0.83257
v  1.17065 1.92361 -0.00098
v  0.80571 1.14351 -0.81209
v  -0.00540 1.92361 -1.17703
v  -0.00540 1.14351 -1.14806
v  -0.83699 1.92361 -0.83257
v  -0.81650 1.14351 -0.81209
v  -1.18144 1.92361 -0.00098
v  -1.15247 1.14351 -0.00098
v  -0.83699 1.92361 0.83061
v  -0.81650 1.14351 0.81012
v  -0.00540 1.92361 1.17506
v  -0.00540 1.14351 1.14609
v  0.82619 1.92361 0.83061
v  0.80571 1.14351 0.81012
v  0.76843 1.92361 -0.77481
v  1.08896 1.92361 -0.00098
v  -0.00540 1.92361 -1.09534
v  -0.77922 1.92361 -0.77481
v  -1.09975 1.92361 -0.00098
v  -0.77922 1.92361 0.77284
v  -0.00540 1.92361 1.09337
v  0.76843 1.92361 0.77284
v  -0.00540 1.75323 -0.00098
v  1.05785 1.80394 -0.00098
v  0.74643 1.80394 -0.75281
v  -0.00540 1.80394 -1.06423
v  -0.75723 1.80394 -0.75281
v  -1.06865 1.80394 -0.00098
v  -0.75723 1.80394 0.75085
v  -0.00540 1.80394 1.06227
v  0.74643 1.80394 0.75085
v  0.54798 -0.93484 -0.97572
v  -0.00540 0.30898 -1.24695
v  0.85771 -0.31808 -0.86410
v  -0.00540 -0.30777 -1.24695
v  -0.55878 0.91880 -0.97572
v  -0.86851 0.30204 -0.86410
v  -0.86851 0.30204 0.86213
v  -0.00540 0.30898 1.21964
v  -0.55877 0.91880 0.97376
v  -0.00540 -0.30777 1.21964
v  0.85771 -0.31808 0.86213
v  0.54798 -0.93484 0.97376
# 126 vertices

vn 0.00000 -1.00000 -0.00000
vn -0.03368 -0.99886 0.03368
vn -0.04764 -0.99886 0.00000
vn 0.00000 -0.99886 0.04764
vn 0.03368 -0.99886 0.03368
vn 0.04764 -0.99886 -0.00000
vn 0.03368 -0.99886 -0.03368
vn -0.00000 -0.99886 -0.04764
vn -0.03368 -0.99886 -0.03368
vn 0.99931 0.03711 -0.00000
vn 0.70662 0.03711 -0.70662
vn 0.00000 0.03711 -0.99931
vn -0.70662 0.03711 -0.70662
vn -0.99931 0.03711 0.00000
vn -0.70662 0.03711 0.70662
vn 0.00000 0.03711 0.99931
vn 0.70662 0.03711 0.70662
vn 0.99944 -0.03339 0.00000
vn 0.48436 0.72855 -0.48436
vn 0.68499 0.72855 -0.00000
vn 0.70671 -0.03339 -0.70671
vn 0.00000 0.72855 -0.68499
vn -0.00000 -0.03339 -0.99944
vn -0.48436 0.72855 -0.48436
vn -0.70671 -0.03339 -0.70671
vn -0.68499 0.72855 0.00000
vn -0.99944 -0.03339 0.00000
vn -0.48436 0.72855 0.48436
vn -0.70671 -0.03339 0.70671
vn -0.00000 0.72855 0.68499
vn -0.00000 -0.03339 0.99944
vn 0.48436 0.72855 0.48436
vn 0.70671 -0.03339 0.70671
vn 0.99945 -0.03328 0.00000
vn 0.70672 0.03328 -0.70672
vn 0.99945 0.03328 0.00000
vn 0.70672 -0.03328 -0.70672
vn 0.00000 0.03328 -0.99945
vn 0.00000 -0.03328 -0.99945
vn -0.70672 0.03328 -0.70672
vn -0.70672 -0.03328 -0.70672
vn -0.99945 0.03328 0.00000
vn -0.99945 -0.03328 0.00000
vn -0.70671 0.03328 0.70672
vn -0.70671 -0.03328 0.70672
vn -0.00000 0.03328 0.99945
vn 0.00000 -0.03328 0.99945
vn 0.70671 0.03328 0.70672
vn 0.70671 -0.03328 0.70672
vn 0.68499 -0.72855 -0.00000
vn 0.70671 0.03339 -0.70671
vn 0.99944 0.03339 0.00000
vn 0.48436 -0.72855 -0.48436
vn -0.00000 0.03339 -0.99944
vn -0.00000 -0.72855 -0.68499
vn -0.70671 0.03339 -0.70671
vn -0.48436 -0.72855 -0.48436
vn -0.99944 0.03339 0.00000
vn -0.68499 -0.72855 0.00000
vn -0.70671 0.03339 0.70671
vn -0.48436 -0.72855 0.48436
vn 0.00000 0.03339 0.99944
vn -0.00000 -0.72855 0.68499
vn 0.70671 0.03339 0.70671
vn 0.48436 -0.72855 0.48436
vn 0.99931 -0.03711 0.00000
vn 0.70662 -0.03711 -0.70662
vn 0.99931 -0.03711 -0.00000
vn -0.00000 -0.03711 -0.99931
vn -0.70662 -0.03711 -0.70662
vn -0.99931 -0.03711 0.00000
vn -0.70662 -0.03711 0.70662
vn -0.00000 -0.03711 0.99931
vn 0.70662 -0.03711 0.70662
vn 0.00000 1.00000 -0.00000
vn -0.04764 0.99886 0.00000
vn -0.03368 0.99886 0.03368
vn 0.00000 0.99886 0.04764
vn 0.03368 0.99886 0.03368
vn 0.04764 0.99886 -0.00000
vn 0.03368 0.99886 -0.03368
vn 0.00000 0.99886 -0.04764
vn -0.03368 0.99886 -0.03368
vn -0.68436 -0.25158 0.68436
vn -0.96784 -0.25158 0.00000
vn 0.00000 -0.25158 0.96784
vn 0.68436 -0.25158 0.68436
vn 0.96784 -0.25158 -0.00000
vn 0.68436 -0.25158 -0.68436
vn -0.00000 -0.25158 -0.96784
vn 0.00000 -0.25158 -0.96784
vn -0.68436 -0.25158 -0.68436
vn -0.96784 0.25158 0.00000
vn -0.68436 0.25158 0.68436
vn -0.96784 0.25158 -0.00000
vn -0.00000 0.25158 0.96784
vn 0.68436 0.25158 0.68436
vn 0.96784 0.25158 0.00000
vn 0.68436 0.25158 -0.68436
vn 0.00000 0.25158 -0.96784
vn -0.68436 0.25158 -0.68436
vn 0.62604 -0.77979 0.00000
vn 0.44268 -0.77979 -0.44268
vn -0.00000 -0.77979 -0.62604
vn -0.44268 -0.77979 -0.44268
vn -0.62604 -0.77979 0.00000
vn -0.44268 -0.77979 0.44268
vn -0.00000 -0.77979 0.62605
vn 0.44268 -0.77979 0.44268
vn 0.99775 -0.06707 -0.00000
vn 0.70551 -0.06707 -0.70551
vn -0.00000 -0.06707 -0.99775
vn -0.70551 -0.06707 -0.70551
vn -0.99775 -0.06707 0.00000
vn -0.70551 -0.06707 0.70551
vn 0.00000 -0.06707 0.99775
vn 0.70551 -0.06707 0.70551
vn 0.70551 0.06707 -0.70551
vn 0.99775 0.06707 0.00000
vn 0.00000 0.06707 -0.99775
vn -0.70551 0.06707 -0.70551
vn -0.99775 0.06707 0.00000
vn -0.70551 0.06707 0.70551
vn -0.00000 0.06707 0.99775
vn 0.70551 0.06707 0.70551
vn 0.44268 0.77979 -0.44268
vn 0.62604 0.77979 0.00000
vn -0.00000 0.77979 -0.62604
vn -0.44268 0.77979 -0.44268
vn -0.62604 0.77979 0.00000
vn -0.44268 0.77979 0.44268
vn 0.00000 0.77979 0.62604
vn 0.44268 0.77979 0.44268
vn 0.40129 -0.02115 -0.91571
vn -0.20451 -0.00482 -0.97885
vn 0.38813 -0.02820 -0.92118
vn 0.20317 0.00488 -0.97913
vn -0.40175 0.02119 -0.91550
vn -0.38848 0.02840 -0.92102
vn -0.38274 0.01622 0.92371
vn -0.16877 0.00638 0.98563
vn -0.38274 0.02507 0.92352
vn 0.16749 -0.00623 0.98585
vn 0.38247 -0.01621 0.92383
vn 0.38231 -0.02482 0.92370
# 145 vertex normals

vt 0.56500 0.93405 0.00000
vt 0.56660 0.92415 0.00000
vt 0.56459 0.92411 0.00000
vt 0.56511 0.93406 0.00000
vt 0.56713 0.92416 0.00000
vt 0.56509 0.92411 0.00000
vt 0.56465 0.93407 0.00000
vt 0.56503 0.92411 0.00000
vt 0.56299 0.92406 0.00000
vt 0.56529 0.93408 0.00000
vt 0.56817 0.92419 0.00000
vt 0.56617 0.92415 0.00000
vt 0.56531 0.93400 0.00000
vt 0.56810 0.92419 0.00000
vt 0.56610 0.92414 0.00000
vt 0.56552 0.93413 0.00000
vt 0.56904 0.92422 0.00000
vt 0.56700 0.92416 0.00000
vt 0.56444 0.93400 0.00000
vt 0.56409 0.92408 0.00000
vt 0.56205 0.92404 0.00000
vt 0.56481 0.93397 0.00000
vt 0.56580 0.92413 0.00000
vt 0.56380 0.92408 0.00000
vt 0.49813 0.98033 0.43242
vt 0.50875 0.97606 0.46470
vt 0.50875 0.98005 0.46470
vt 0.49813 0.97621 0.43242
vt 0.50876 0.97206 0.46470
vt 0.49814 0.97208 0.43242
vt 0.50876 0.96807 0.46470
vt 0.49814 0.96796 0.43242
vt 0.50876 0.96408 0.46470
vt 0.49815 0.96384 0.43242
vt 0.50877 0.96008 0.46470
vt 0.49815 0.95971 0.43242
vt 0.50877 0.95609 0.46470
vt 0.49815 0.95559 0.43242
vt 0.50878 0.95210 0.46470
vt 0.49816 0.95147 0.43242
vt 0.49816 0.94734 0.46470
vt 0.56043 0.93365 0.43242
vt 0.56360 0.93365 0.43242
vt 0.56360 0.93365 0.46470
vt 0.57763 1.96872 0.46470
vt 0.55346 1.93956 0.45326
vt 0.57763 1.93956 0.45326
vt 0.55346 1.96872 0.46470
vt 0.52929 1.93956 0.45326
vt 0.52929 1.96872 0.46470
vt 0.52881 1.96872 0.46470
vt 0.55312 1.93993 0.45326
vt 0.52881 1.93993 0.45326
vt 0.55312 1.96872 0.46470
vt 0.57743 1.93993 0.45326
vt 0.57743 1.96872 0.46470
vt 0.57775 1.96872 0.46470
vt 0.55381 1.93968 0.45326
vt 0.57775 1.93968 0.45326
vt 0.55381 1.96872 0.46470
vt 0.52988 1.93968 0.45326
vt 0.52988 1.96872 0.46470
vt 0.52926 1.96872 0.46470
vt 0.55329 1.93956 0.45326
vt 0.52926 1.93956 0.45326
vt 0.55329 1.96872 0.46470
vt 0.57731 1.93956 0.45326
vt 0.57731 1.96872 0.46470
vt 0.49989 0.93155 0.50000
vt 0.51686 0.93930 0.46068
vt 0.49989 0.93930 0.46068
vt 0.51686 0.93155 0.50000
vt 0.53382 0.93930 0.46068
vt 0.53382 0.93155 0.50000
vt 0.55079 0.93930 0.46068
vt 0.55079 0.93155 0.50000
vt 0.56776 0.93930 0.46068
vt 0.56776 0.93155 0.50000
vt 0.49935 0.93155 0.50000
vt 0.51632 0.93930 0.46068
vt 0.49935 0.93930 0.46068
vt 0.51632 0.93155 0.50000
vt 0.53328 0.93930 0.46068
vt 0.53328 0.93155 0.50000
vt 0.55025 0.93930 0.46068
vt 0.55025 0.93155 0.50000
vt 0.56721 0.93930 0.46068
vt 0.56721 0.93155 0.50000
vt 0.57748 1.95951 0.47784
vt 0.55275 1.97801 0.47784
vt 0.57748 1.97801 0.47784
vt 0.55275 1.95951 0.47784
vt 0.52803 1.97801 0.47784
vt 0.52803 1.95951 0.47784
vt 0.52822 1.95951 0.47784
vt 0.55295 1.97801 0.47784
vt 0.52822 1.97801 0.47784
vt 0.55295 1.95951 0.47784
vt 0.57768 1.97801 0.47784
vt 0.57768 1.95951 0.47784
vt 0.57737 1.95951 0.47784
vt 0.55264 1.97801 0.47784
vt 0.57737 1.97801 0.47784
vt 0.55264 1.95951 0.47784
vt 0.52791 1.97801 0.47784
vt 0.52791 1.95951 0.47784
vt 0.52834 1.95951 0.47784
vt 0.55307 1.97801 0.47784
vt 0.52834 1.97801 0.47784
vt 0.55307 1.95951 0.47784
vt 0.57779 1.97801 0.47784
vt 0.57779 1.95951 0.47784
vt 0.49963 0.92353 0.46068
vt 0.51670 0.93130 0.50000
vt 0.49963 0.93130 0.50000
vt 0.51670 0.92353 0.46068
vt 0.53377 0.93130 0.50000
vt 0.53377 0.92353 0.46068
vt 0.55084 0.93130 0.50000
vt 0.55084 0.92353 0.46068
vt 0.56792 0.93130 0.50000
vt 0.56792 0.92353 0.46068
vt 0.49951 0.92353 0.46068
vt 0.51658 0.93130 0.50000
vt 0.49951 0.93130 0.50000
vt 0.51658 0.92353 0.46068
vt 0.53366 0.93130 0.50000
vt 0.53366 0.92353 0.46068
vt 0.55073 0.93130 0.50000
vt 0.55073 0.92353 0.46068
vt 0.56780 0.93130 0.50000
vt 0.56780 0.92353 0.46068
vt 0.57772 1.93980 0.45326
vt 0.55329 1.96836 0.46470
vt 0.57772 1.96836 0.46470
vt 0.55329 1.93980 0.45326
vt 0.52886 1.96836 0.46470
vt 0.52886 1.93980 0.45326
vt 0.52905 1.93980 0.45326
vt 0.55348 1.96836 0.46470
vt 0.52905 1.96836 0.46470
vt 0.55348 1.93980 0.45326
vt 0.57791 1.96836 0.46470
vt 0.57791 1.93980 0.45326
vt 0.57760 1.93980 0.45326
vt 0.55317 1.96836 0.46470
vt 0.57760 1.96836 0.46470
vt 0.55317 1.93980 0.45326
vt 0.52874 1.96836 0.46470
vt 0.52874 1.93980 0.45326
vt 0.52916 1.93980 0.45326
vt 0.55359 1.96836 0.46470
vt 0.52916 1.96836 0.46470
vt 0.55359 1.93980 0.45326
vt 0.57802 1.96836 0.46470
vt 0.57802 1.93980 0.45326
vt 0.50852 0.97935 0.46470
vt 0.49812 0.97599 0.43242
vt 0.49813 0.98019 0.43242
vt 0.50851 0.97528 0.46470
vt 0.49810 0.97179 0.43242
vt 0.50849 0.97122 0.46470
vt 0.49809 0.96760 0.43242
vt 0.50848 0.96715 0.46470
vt 0.49807 0.96340 0.43242
vt 0.50847 0.96308 0.46470
vt 0.49806 0.95920 0.43242
vt 0.50845 0.95902 0.46470
vt 0.49804 0.95500 0.43242
vt 0.50844 0.95495 0.46470
vt 0.49803 0.95080 0.43242
vt 0.50842 0.95089 0.46470
vt 0.49801 0.94661 0.43242
vt 0.49801 0.94661 0.46470
vt 0.56563 0.93407 0.00000
vt 0.56711 0.92410 0.00000
vt 0.56915 0.92416 0.00000
vt 0.56678 0.93365 0.43242
vt 0.56375 0.92263 0.42013
vt 0.56678 0.92263 0.42013
vt 0.54457 0.93365 0.43242
vt 0.54140 0.93365 0.43242
vt 0.54142 0.92263 0.42013
vt 0.54461 0.92263 0.42013
vt 0.54774 0.93365 0.43242
vt 0.54780 0.92263 0.42013
vt 0.55091 0.93365 0.43242
vt 0.55099 0.92263 0.42013
vt 0.55409 0.93365 0.43242
vt 0.55418 0.92263 0.42013
vt 0.55726 0.93365 0.43242
vt 0.55737 0.92263 0.42013
vt 0.56056 0.92263 0.42013
vt 0.54128 0.93419 0.43242
vt 0.54432 0.93419 0.43242
vt 0.54435 0.92272 0.42013
vt 0.56865 0.92272 0.42013
vt 0.56586 0.92272 0.42013
vt 0.56561 0.93419 0.43242
vt 0.54736 0.93419 0.43242
vt 0.54743 0.92272 0.42013
vt 0.55041 0.93419 0.43242
vt 0.55050 0.92272 0.42013
vt 0.55345 0.93419 0.43242
vt 0.55357 0.92272 0.42013
vt 0.55649 0.93419 0.43242
vt 0.55664 0.92272 0.42013
vt 0.55953 0.93419 0.43242
vt 0.55972 0.92272 0.42013
vt 0.56257 0.93419 0.43242
vt 0.56279 0.92272 0.42013
vt 0.49989 0.92369 0.45326
vt 0.51686 0.92369 0.45326
vt 0.53382 0.92369 0.45326
vt 0.55079 0.92369 0.45326
vt 0.56776 0.92369 0.45326
vt 0.49935 0.92369 0.45326
vt 0.51632 0.92369 0.45326
vt 0.53328 0.92369 0.45326
vt 0.55025 0.92369 0.45326
vt 0.56721 0.92369 0.45326
vt 0.57748 1.94014 0.46068
vt 0.55275 1.94014 0.46068
vt 0.52803 1.94014 0.46068
vt 0.52822 1.94014 0.46068
vt 0.55295 1.94014 0.46068
vt 0.57768 1.94014 0.46068
vt 0.57737 1.94014 0.46068
vt 0.55264 1.94014 0.46068
vt 0.52791 1.94014 0.46068
vt 0.52834 1.94014 0.46068
vt 0.55307 1.94014 0.46068
vt 0.57779 1.94014 0.46068
vt 0.55275 1.99738 0.46068
vt 0.57748 1.99738 0.46068
vt 0.52803 1.99738 0.46068
vt 0.55295 1.99738 0.46068
vt 0.52822 1.99738 0.46068
vt 0.57768 1.99738 0.46068
vt 0.55264 1.99738 0.46068
vt 0.57737 1.99738 0.46068
vt 0.52791 1.99738 0.46068
vt 0.55307 1.99738 0.46068
vt 0.52834 1.99738 0.46068
vt 0.57779 1.99738 0.46068
vt 0.51670 0.93919 0.45326
vt 0.49963 0.93919 0.45326
vt 0.53377 0.93919 0.45326
vt 0.55084 0.93919 0.45326
vt 0.56792 0.93919 0.45326
vt 0.51658 0.93919 0.45326
vt 0.49951 0.93919 0.45326
vt 0.53366 0.93919 0.45326
vt 0.55073 0.93919 0.45326
vt 0.56780 0.93919 0.45326
vt 0.61851 0.92213 0.44290
vt 0.63250 0.94180 0.49233
vt 0.61934 0.94234 0.48232
vt 0.62854 0.92695 0.49233
vt 0.64242 0.94621 0.44290
vt 0.64159 0.92599 0.48232
vt 0.64177 0.92587 0.48232
vt 0.63268 0.94167 0.48232
vt 0.64234 0.94509 0.44290
vt 0.62898 0.92781 0.48232
vt 0.61979 0.94322 0.48232
vt 0.61922 0.92400 0.44290
# 267 texture coords

g Cylinder007
f 1/1/1 2/2/2 3/3/3 
f 1/4/1 4/5/4 2/6/2 
f 1/7/1 5/8/5 4/9/4 
f 1/10/1 6/11/6 5/12/5 
f 1/13/1 7/14/7 6/15/6 
f 1/16/1 8/17/8 7/18/7 
f 1/19/1 9/20/9 8/21/8 
f 1/22/1 3/23/3 9/24/9 
f 10/25/1 11/26/1 12/27/1 
f 10/25/1 13/28/1 11/26/1 
f 13/28/1 14/29/1 11/26/1 
f 13/28/1 15/30/1 14/29/1 
f 15/30/1 16/31/1 14/29/1 
f 15/30/1 17/32/1 16/31/1 
f 17/32/1 18/33/1 16/31/1 
f 17/32/1 19/34/1 18/33/1 
f 19/34/1 20/35/1 18/33/1 
f 19/34/1 21/36/1 20/35/1 
f 21/36/1 22/37/1 20/35/1 
f 21/36/1 23/38/1 22/37/1 
f 23/38/1 24/39/1 22/37/1 
f 23/38/1 25/40/1 24/39/1 
f 25/40/1 12/41/1 24/39/1 
f 25/42/1 10/43/1 12/44/1 
f 12/45/10 26/46/11 27/47/10 
f 12/45/10 11/48/11 26/46/11 
f 11/48/11 28/49/12 26/46/11 
f 11/48/11 14/50/12 28/49/12 
f 14/51/12 29/52/13 28/53/12 
f 14/51/12 16/54/13 29/52/13 
f 16/54/13 30/55/14 29/52/13 
f 16/54/13 18/56/14 30/55/14 
f 18/57/14 31/58/15 30/59/14 
f 18/57/14 20/60/15 31/58/15 
f 20/60/15 32/61/16 31/58/15 
f 20/60/15 22/62/16 32/61/16 
f 22/63/16 33/64/17 32/65/16 
f 22/63/16 24/66/17 33/64/17 
f 24/66/17 27/67/10 33/64/17 
f 24/66/17 12/68/10 27/67/10 
f 34/69/18 35/70/19 36/71/20 
f 34/69/18 37/72/21 35/70/19 
f 37/72/21 38/73/22 35/70/19 
f 37/72/21 39/74/23 38/73/22 
f 39/74/23 40/75/24 38/73/22 
f 39/74/23 41/76/25 40/75/24 
f 41/76/25 42/77/26 40/75/24 
f 41/76/25 43/78/27 42/77/26 
f 43/79/27 44/80/28 42/81/26 
f 43/79/27 45/82/29 44/80/28 
f 45/82/29 46/83/30 44/80/28 
f 45/82/29 47/84/31 46/83/30 
f 47/84/31 48/85/32 46/83/30 
f 47/84/31 49/86/33 48/85/32 
f 49/86/33 36/87/20 48/85/32 
f 49/86/33 34/88/18 36/87/20 
f 50/89/34 51/90/35 52/91/36 
f 50/89/34 53/92/37 51/90/35 
f 53/92/37 54/93/38 51/90/35 
f 53/92/37 55/94/39 54/93/38 
f 55/95/39 56/96/40 54/97/38 
f 55/95/39 57/98/41 56/96/40 
f 57/98/41 58/99/42 56/96/40 
f 57/98/41 59/100/43 58/99/42 
f 59/101/43 60/102/44 58/103/42 
f 59/101/43 61/104/45 60/102/44 
f 61/104/45 62/105/46 60/102/44 
f 61/104/45 63/106/47 62/105/46 
f 63/107/47 64/108/48 62/109/46 
f 63/107/47 65/110/49 64/108/48 
f 65/110/49 52/111/36 64/108/48 
f 65/110/49 50/112/34 52/111/36 
f 66/113/50 67/114/51 68/115/52 
f 66/113/50 69/116/53 67/114/51 
f 69/116/53 70/117/54 67/114/51 
f 69/116/53 71/118/55 70/117/54 
f 71/118/55 72/119/56 70/117/54 
f 71/118/55 73/120/57 72/119/56 
f 73/120/57 74/121/58 72/119/56 
f 73/120/57 75/122/59 74/121/58 
f 75/123/59 76/124/60 74/125/58 
f 75/123/59 77/126/61 76/124/60 
f 77/126/61 78/127/62 76/124/60 
f 77/126/61 79/128/63 78/127/62 
f 79/128/63 80/129/64 78/127/62 
f 79/128/63 81/130/65 80/129/64 
f 81/130/65 68/131/52 80/129/64 
f 81/130/65 66/132/50 68/131/52 
f 82/133/66 83/134/67 84/135/68 
f 82/133/66 85/136/67 83/134/67 
f 85/136/67 86/137/69 83/134/67 
f 85/136/67 87/138/69 86/137/69 
f 87/139/69 88/140/70 86/141/69 
f 87/139/69 89/142/70 88/140/70 
f 89/142/70 90/143/71 88/140/70 
f 89/142/70 91/144/71 90/143/71 
f 91/145/71 92/146/72 90/147/71 
f 91/145/71 93/148/72 92/146/72 
f 93/148/72 94/149/73 92/146/72 
f 93/148/72 95/150/73 94/149/73 
f 95/151/73 96/152/74 94/153/73 
f 95/151/73 97/154/74 96/152/74 
f 97/154/74 84/155/68 96/152/74 
f 97/154/74 82/156/66 84/155/68 
f 84/157/75 98/158/75 99/159/75 
f 84/157/75 83/160/75 98/158/75 
f 83/160/75 100/161/75 98/158/75 
f 83/160/75 86/162/75 100/161/75 
f 86/162/75 101/163/75 100/161/75 
f 86/162/75 88/164/75 101/163/75 
f 88/164/75 102/165/75 101/163/75 
f 88/164/75 90/166/75 102/165/75 
f 90/166/75 103/167/75 102/165/75 
f 90/166/75 92/168/75 103/167/75 
f 92/168/75 104/169/75 103/167/75 
f 92/168/75 94/170/75 104/169/75 
f 94/170/75 105/171/75 104/169/75 
f 94/170/75 96/172/75 105/171/75 
f 96/172/75 99/173/75 105/171/75 
f 96/172/75 84/174/75 99/173/75 
f 106/1/75 107/3/76 108/2/77 
f 106/4/75 108/6/77 109/5/78 
f 106/7/75 109/9/78 110/8/79 
f 106/10/75 110/12/79 111/11/80 
f 106/13/75 111/15/80 112/14/81 
f 106/175/75 112/176/81 113/177/82 
f 106/19/75 113/21/82 114/20/83 
f 106/22/75 114/24/83 107/23/76 
f 13/178/84 10/43/85 3/179/85 
f 3/179/85 2/180/84 13/178/84 
f 15/181/86 13/182/84 2/183/84 
f 2/183/84 4/184/86 15/181/86 
f 17/185/87 15/181/86 4/184/86 
f 4/184/86 5/186/87 17/185/87 
f 19/187/88 17/185/87 5/186/87 
f 5/186/87 6/188/88 19/187/88 
f 21/189/89 19/187/88 6/188/88 
f 6/188/88 7/190/89 21/189/89 
f 23/191/90 21/189/89 7/190/89 
f 7/190/89 8/192/91 23/191/90 
f 25/42/92 23/191/90 8/192/91 
f 8/192/91 9/193/92 25/42/92 
f 10/43/85 25/42/92 9/193/92 
f 9/193/92 3/179/85 10/43/85 
f 99/194/93 98/195/94 108/196/94 
f 108/197/94 107/198/95 99/199/93 
f 98/195/94 100/200/96 109/201/96 
f 109/201/96 108/196/94 98/195/94 
f 100/200/96 101/202/97 110/203/97 
f 110/203/97 109/201/96 100/200/96 
f 101/202/97 102/204/98 111/205/98 
f 111/205/98 110/203/97 101/202/97 
f 102/204/98 103/206/99 112/207/99 
f 112/207/99 111/205/98 102/204/98 
f 103/206/99 104/208/100 113/209/100 
f 113/209/100 112/207/99 103/206/99 
f 104/208/100 105/210/101 114/211/101 
f 114/211/101 113/209/100 104/208/100 
f 105/210/101 99/199/93 107/198/95 
f 107/198/95 114/211/101 105/210/101 
f 27/212/102 26/213/103 37/72/21 
f 37/72/21 34/69/18 27/212/102 
f 26/213/103 28/214/104 39/74/23 
f 39/74/23 37/72/21 26/213/103 
f 28/214/104 29/215/105 41/76/25 
f 41/76/25 39/74/23 28/214/104 
f 29/215/105 30/216/106 43/78/27 
f 43/78/27 41/76/25 29/215/105 
f 30/217/106 31/218/107 45/82/29 
f 45/82/29 43/79/27 30/217/106 
f 31/218/107 32/219/108 47/84/31 
f 47/84/31 45/82/29 31/218/107 
f 32/219/108 33/220/109 49/86/33 
f 49/86/33 47/84/31 32/219/108 
f 33/220/109 27/221/102 34/88/18 
f 34/88/18 49/86/33 33/220/109 
f 53/92/37 50/89/34 36/222/110 
f 36/222/110 35/223/111 53/92/37 
f 55/94/39 53/92/37 35/223/111 
f 35/223/111 38/224/112 55/94/39 
f 57/98/41 55/95/39 38/225/112 
f 38/225/112 40/226/113 57/98/41 
f 59/100/43 57/98/41 40/226/113 
f 40/226/113 42/227/114 59/100/43 
f 61/104/45 59/101/43 42/228/114 
f 42/228/114 44/229/115 61/104/45 
f 63/106/47 61/104/45 44/229/115 
f 44/229/115 46/230/116 63/106/47 
f 65/110/49 63/107/47 46/231/116 
f 46/231/116 48/232/117 65/110/49 
f 50/112/34 65/110/49 48/232/117 
f 48/232/117 36/233/110 50/112/34 
f 52/91/36 51/90/35 69/234/118 
f 69/234/118 66/235/119 52/91/36 
f 51/90/35 54/93/38 71/236/120 
f 71/236/120 69/234/118 51/90/35 
f 54/97/38 56/96/40 73/237/121 
f 73/237/121 71/238/120 54/97/38 
f 56/96/40 58/99/42 75/239/122 
f 75/239/122 73/237/121 56/96/40 
f 58/103/42 60/102/44 77/240/123 
f 77/240/123 75/241/122 58/103/42 
f 60/102/44 62/105/46 79/242/124 
f 79/242/124 77/240/123 60/102/44 
f 62/109/46 64/108/48 81/243/125 
f 81/243/125 79/244/124 62/109/46 
f 64/108/48 52/111/36 66/245/119 
f 66/245/119 81/243/125 64/108/48 
f 85/246/126 82/247/127 68/115/52 
f 68/115/52 67/114/51 85/246/126 
f 87/248/128 85/246/126 67/114/51 
f 67/114/51 70/117/54 87/248/128 
f 89/249/129 87/248/128 70/117/54 
f 70/117/54 72/119/56 89/249/129 
f 91/250/130 89/249/129 72/119/56 
f 72/119/56 74/121/58 91/250/130 
f 93/251/131 91/252/130 74/125/58 
f 74/125/58 76/124/60 93/251/131 
f 95/253/132 93/251/131 76/124/60 
f 76/124/60 78/127/62 95/253/132 
f 97/254/133 95/253/132 78/127/62 
f 78/127/62 80/129/64 97/254/133 
f 82/255/127 97/254/133 80/129/64 
f 80/129/64 68/131/52 82/255/127 
f 115/256/134 116/257/135 117/258/136 
f 115/256/134 118/259/137 116/257/135 
f 118/259/137 119/260/138 116/257/135 
f 118/259/137 120/261/139 119/260/138 
f 121/262/140 122/263/141 123/264/142 
f 121/262/140 124/265/143 122/263/141 
f 124/265/143 125/266/144 122/263/141 
f 124/265/143 126/267/145 125/266/144 
# 232 faces

