# 3ds Max Wavefront OBJ Exporter v0.97b - (c)2007 guruware
# File Created: 11.09.2017 20:28:48

#
# object Box014
#

v  5.38748 -3.36543 9.64537
v  5.33369 -3.36543 9.65949
v  5.33425 -3.37827 9.58037
v  5.40732 -3.36543 9.58391
v  5.34031 -3.38832 9.35059
v  5.42476 -3.37250 9.34365
v  5.34827 -3.38833 -9.35106
v  5.42000 -3.37250 -9.32877
v  5.34827 -3.37827 -9.60224
v  5.42476 -3.36543 -9.60224
v  5.34827 -3.36543 -9.67305
v  5.40070 -3.36543 -9.67184
v  5.12183 -3.37620 9.67404
v  5.12183 -3.39359 9.59483
v  5.10480 -3.35481 9.32939
v  5.12465 -3.35481 -9.33227
v  5.12183 -3.39360 -9.59749
v  5.12183 -3.37621 -9.67671
v  -5.18739 -3.37620 9.65996
v  -5.18739 -3.39359 9.59457
v  -5.19996 -3.35481 9.35059
v  -5.21938 -3.35481 -9.34912
v  -5.18739 -3.39359 -9.61866
v  -5.18739 -3.37620 -9.68145
v  -5.39640 -3.36543 9.65997
v  -5.39640 -3.37827 9.58076
v  -5.42072 -3.38832 9.34365
v  -5.41383 -3.38832 -9.35105
v  -5.40621 -3.37827 -9.59741
v  -5.40621 -3.36543 -9.67662
v  -5.45851 -3.36543 9.64750
v  -5.47289 -3.36543 9.58076
v  -5.46838 -3.37250 9.34365
v  -5.49032 -3.37250 -9.35105
v  -5.48269 -3.36543 -9.59741
v  -5.46178 -3.36543 -9.66114
v  2.86222 -0.04137 4.81416
v  2.87282 -0.04137 4.78347
v  2.83379 -0.03171 4.78170
v  2.83349 -0.04137 4.82121
v  2.88213 -0.03606 4.66348
v  2.83702 -0.02415 4.66695
v  2.87959 -0.03606 -4.66152
v  2.84128 -0.02415 -4.67265
v  2.88213 -0.04138 -4.79809
v  2.84128 -0.03172 -4.79809
v  2.86929 -0.04138 -4.83285
v  2.84128 -0.04138 -4.83345
v  2.72032 -0.02018 4.78892
v  2.72032 -0.03327 4.82848
v  2.71122 0.04413 4.65636
v  2.72182 0.04413 -4.66327
v  2.72032 -0.02018 -4.79572
v  2.72032 -0.03327 -4.83528
v  -2.78661 -0.02018 4.78879
v  -2.78661 -0.03327 4.82145
v  -2.79332 0.04413 4.66695
v  -2.80370 0.04413 -4.67168
v  -2.78661 -0.02018 -4.80629
v  -2.78661 -0.03327 -4.83765
v  -2.89826 -0.03171 4.78189
v  -2.89826 -0.04137 4.82145
v  -2.91125 -0.02415 4.66348
v  -2.90757 -0.02415 -4.67265
v  -2.90349 -0.03171 -4.79568
v  -2.90349 -0.04137 -4.83523
v  -2.93911 -0.04137 4.78189
v  -2.93143 -0.04137 4.81523
v  -2.93671 -0.03606 4.66348
v  -2.94842 -0.03606 -4.67265
v  -2.94435 -0.04137 -4.79568
v  -2.93318 -0.04137 -4.82750
# 72 vertices

vn 0.08004 -0.98856 0.12782
vn 0.04818 -0.98036 0.19125
vn 0.06382 -0.99565 0.06791
vn 0.13529 -0.98910 0.05808
vn 0.01763 -0.99952 0.02538
vn 0.14586 -0.98904 0.02280
vn 0.05101 -0.99868 0.00567
vn 0.16908 -0.98546 -0.01692
vn 0.08959 -0.98831 -0.12337
vn 0.10681 -0.99183 -0.06974
vn 0.05357 -0.98612 -0.15718
vn -0.00000 -1.00000 0.00000
vn 0.02447 -0.96931 0.24461
vn 0.02605 -0.99887 0.03987
vn -0.03757 -0.99771 -0.05630
vn -0.05581 -0.99516 0.08087
vn 0.00637 -0.99773 -0.06701
vn 0.02294 -0.97036 -0.24056
vn -0.03087 -0.95963 0.27955
vn -0.01148 -0.99589 0.08989
vn 0.06037 -0.99385 -0.09286
vn 0.04790 -0.99755 0.05103
vn -0.02217 -0.99704 -0.07363
vn -0.02030 -0.95276 -0.30305
vn -0.05496 -0.98781 0.14561
vn -0.09366 -0.98840 0.11955
vn -0.09101 -0.99584 0.00450
vn -0.01308 -0.99969 -0.02096
vn -0.06175 -0.99601 -0.06442
vn -0.04922 -0.97956 -0.19503
vn -0.00000 -1.00000 0.00001
vn -0.10488 -0.99222 0.06710
vn -0.23857 -0.97040 0.03758
vn -0.15937 -0.98702 -0.01979
vn -0.13283 -0.98958 -0.05551
vn -0.08036 -0.98881 -0.12565
vn 0.14658 0.97583 0.16207
vn 0.23939 0.96807 0.07444
vn 0.20514 0.96147 0.18301
vn 0.08546 0.96538 0.24646
vn 0.25730 0.96589 0.02934
vn 0.36721 0.92944 0.03602
vn 0.29541 0.95512 -0.02182
vn 0.35000 0.93284 -0.08552
vn 0.18826 0.97818 -0.08790
vn 0.15882 0.97451 -0.15845
vn 0.00000 1.00000 -0.00000
vn 0.09776 0.97378 -0.20540
vn 0.05452 0.92765 0.36946
vn 0.04343 0.94847 0.31389
vn 0.19949 0.96382 0.17678
vn 0.23933 0.94831 -0.20839
vn 0.09352 0.93956 -0.32937
vn 0.04077 0.95015 -0.30913
vn -0.10635 0.92000 0.37721
vn -0.05466 0.93256 0.35686
vn -0.25007 0.94000 0.23210
vn -0.24050 0.95496 -0.17383
vn -0.04944 0.91393 -0.40284
vn -0.03563 0.92233 -0.38476
vn -0.16599 0.97404 0.15395
vn -0.10021 0.97664 0.19008
vn -0.42138 0.90174 0.09642
vn -0.41611 0.90877 -0.03132
vn -0.21086 0.95869 -0.19093
vn -0.08731 0.96406 -0.25094
vn -0.18445 0.97919 0.08460
vn -0.40316 0.91397 0.04603
vn -0.27987 0.95971 -0.02526
vn -0.23543 0.96928 -0.07115
vn -0.14698 0.97624 -0.15925
vn 0.38649 0.90383 0.18360
vn 0.41840 0.89697 0.14280
vn 0.44966 0.88754 0.10035
vn 0.41755 0.89713 0.14424
vn 0.50672 0.86191 0.01867
vn 0.50347 0.86371 0.02278
vn 0.53554 0.84400 0.02941
vn 0.51427 0.85760 -0.00723
vn 0.42232 0.89618 -0.13605
vn 0.47213 0.87881 -0.06921
vn 0.37852 0.90531 -0.19270
vn 0.41007 0.89932 -0.15188
vn 0.00876 0.82891 -0.55932
vn -0.00314 0.82221 -0.56917
vn 0.05105 0.84912 -0.52572
vn 0.01200 0.83058 -0.55677
vn -0.01454 0.81498 -0.57931
vn 0.01632 0.83132 -0.55556
vn 0.01344 0.81656 -0.57710
vn -0.01839 0.83159 -0.55509
vn -0.04569 0.84683 -0.52990
vn -0.08479 0.86118 -0.50119
vn -0.09277 0.86647 -0.49053
vn -0.12116 0.87650 -0.46591
vn -0.38444 0.90431 -0.18556
vn -0.42147 0.89627 -0.13809
vn -0.45873 0.88431 -0.08695
vn -0.41578 0.89768 -0.14593
vn -0.52078 0.85368 0.00351
vn -0.50834 0.86102 -0.01521
vn -0.53919 0.84153 -0.03319
vn -0.51442 0.85749 0.00893
vn -0.45590 0.88528 0.09180
vn -0.48471 0.87308 0.05290
vn -0.42457 0.89532 0.13467
vn -0.44749 0.88831 0.10326
vn -0.06967 0.85697 0.51063
vn -0.02950 0.83855 0.54402
vn -0.07081 0.85752 0.50956
vn -0.09216 0.86615 0.49121
vn 0.01983 0.81200 0.58332
vn -0.01565 0.83081 0.55634
vn -0.00331 0.82192 0.56959
vn 0.02524 0.83493 0.54977
vn 0.04914 0.84820 0.52739
vn 0.09941 0.86648 0.48922
vn 0.08818 0.86453 0.49479
vn 0.11550 0.87440 0.47125
# 119 vertex normals

vt 0.61269 0.06540 0.00000
vt 0.61269 0.05321 0.00000
vt 0.62540 0.05321 0.00000
vt 0.62540 0.06540 0.00000
vt 0.66571 0.05321 0.00000
vt 0.66571 0.06540 0.00000
vt 0.57098 0.01671 0.00000
vt 0.57098 0.02853 0.00000
vt 0.66562 0.02853 0.00000
vt 0.66562 0.01671 0.00000
vt 0.66493 0.06540 0.00000
vt 0.66493 0.05321 0.00000
vt 0.62462 0.05321 0.00000
vt 0.62462 0.06540 0.00000
vt 0.61191 0.05321 0.00000
vt 0.61191 0.06540 0.00000
vt 0.61269 0.01713 0.00000
vt 0.62540 0.01713 0.00000
vt 0.66571 0.01713 0.00000
vt 0.57098 0.06352 0.00000
vt 0.66562 0.06352 0.00000
vt 0.66493 0.01713 0.00000
vt 0.62462 0.01713 0.00000
vt 0.61191 0.01713 0.00000
vt 0.66590 0.01906 0.00000
vt 0.56998 0.01906 0.00000
vt 0.56998 0.02981 0.00000
vt 0.66590 0.02981 0.00000
vt 0.56998 0.06392 0.00000
vt 0.66590 0.06392 0.00000
vt 0.66877 0.02884 0.00000
vt 0.66877 0.11322 0.00000
vt 0.56790 0.11322 0.00000
vt 0.56790 0.02884 0.00000
vt 0.56998 0.01892 0.00000
vt 0.66590 0.01892 0.00000
vt 0.66590 0.05303 0.00000
vt 0.56998 0.05303 0.00000
vt 0.66590 0.06379 0.00000
vt 0.56998 0.06379 0.00000
vt 0.61191 0.01721 0.00000
vt 0.61191 0.05329 0.00000
vt 0.62462 0.05329 0.00000
vt 0.62462 0.01721 0.00000
vt 0.66493 0.05329 0.00000
vt 0.66493 0.01721 0.00000
vt 0.66490 0.01698 0.00000
vt 0.66490 0.05198 0.00000
vt 0.57026 0.05198 0.00000
vt 0.57026 0.01698 0.00000
vt 0.66571 0.01721 0.00000
vt 0.66571 0.05329 0.00000
vt 0.62540 0.05329 0.00000
vt 0.62540 0.01721 0.00000
vt 0.61269 0.05329 0.00000
vt 0.61269 0.01721 0.00000
vt 0.61191 0.06548 0.00000
vt 0.62462 0.06548 0.00000
vt 0.66493 0.06548 0.00000
vt 0.66490 0.06380 0.00000
vt 0.57026 0.06380 0.00000
vt 0.66571 0.06548 0.00000
vt 0.62540 0.06548 0.00000
vt 0.61269 0.06548 0.00000
vt 0.04306 0.70600 0.00000
vt 0.04308 0.70608 0.00000
vt 0.04300 0.70608 0.00000
vt 0.04300 0.70599 0.00000
vt 0.04310 0.70638 0.00000
vt 0.04301 0.70637 0.00000
vt 0.04309 0.72959 0.00000
vt 0.04302 0.72961 0.00000
vt 0.04310 0.72993 0.00000
vt 0.04302 0.72993 0.00000
vt 0.04307 0.73001 0.00000
vt 0.04302 0.73001 0.00000
vt 0.04278 0.70607 0.00000
vt 0.04278 0.70597 0.00000
vt 0.04276 0.70640 0.00000
vt 0.04278 0.72959 0.00000
vt 0.04278 0.72992 0.00000
vt 0.04278 0.73002 0.00000
vt 0.03191 0.70607 0.00000
vt 0.03191 0.70599 0.00000
vt 0.03189 0.70637 0.00000
vt 0.03191 0.72995 0.00000
vt 0.03187 0.72961 0.00000
vt 0.03191 0.73002 0.00000
vt 0.03169 0.70608 0.00000
vt 0.03169 0.70599 0.00000
vt 0.03166 0.70638 0.00000
vt 0.03167 0.72961 0.00000
vt 0.03168 0.72992 0.00000
vt 0.03168 0.73002 0.00000
vt 0.03161 0.70608 0.00000
vt 0.03162 0.70600 0.00000
vt 0.03161 0.70638 0.00000
vt 0.03159 0.72961 0.00000
vt 0.03160 0.72992 0.00000
vt 0.03162 0.73000 0.00000
vt 0.05107 0.69709 0.00000
vt 0.05112 0.69723 0.00000
vt 0.05116 0.69775 0.00000
vt 0.05647 0.35832 0.00000
vt 0.14494 0.35834 0.00000
vt 0.12611 0.37479 0.00000
vt 0.07535 0.37478 0.00000
vt 0.05115 0.73819 0.00000
vt 0.05116 0.73879 0.00000
vt 0.05110 0.73894 0.00000
vt 0.05097 0.73894 0.00000
vt 0.05039 0.73895 0.00000
vt 0.05481 0.35685 0.00000
vt 0.14693 0.35683 0.00000
vt 0.12007 0.37423 0.00000
vt 0.08169 0.37424 0.00000
vt 0.02430 0.73896 0.00000
vt 0.02374 0.73895 0.00000
vt 0.02360 0.73891 0.00000
vt 0.02355 0.73878 0.00000
vt 0.02353 0.73824 0.00000
vt 0.05803 0.35675 0.00000
vt 0.14661 0.35686 0.00000
vt 0.12773 0.37326 0.00000
vt 0.07691 0.37321 0.00000
vt 0.02358 0.69775 0.00000
vt 0.02357 0.69723 0.00000
vt 0.02361 0.69709 0.00000
vt 0.02377 0.69706 0.00000
vt 0.02430 0.69706 0.00000
vt 0.05638 0.35851 0.00000
vt 0.14478 0.35845 0.00000
vt 0.11899 0.37451 0.00000
vt 0.08216 0.37454 0.00000
vt 0.05039 0.69703 0.00000
vt 0.05093 0.69706 0.00000
# 136 texture coords

g Box014
f 1/1/1 2/2/2 3/3/3 
f 3/3/3 4/4/4 1/1/1 
f 4/4/4 3/3/3 5/5/5 
f 5/5/5 6/6/6 4/4/4 
f 6/7/6 5/8/5 7/9/7 
f 7/9/7 8/10/8 6/7/6 
f 8/11/8 7/12/7 9/13/9 
f 9/13/9 10/14/10 8/11/8 
f 10/14/10 9/13/9 11/15/11 
f 11/15/11 12/16/12 10/14/10 
f 2/2/2 13/17/13 14/18/14 
f 14/18/14 3/3/3 2/2/2 
f 3/3/3 14/18/14 15/19/15 
f 15/19/15 5/5/5 3/3/3 
f 5/8/5 15/20/15 16/21/16 
f 16/21/16 7/9/7 5/8/5 
f 7/12/7 16/22/16 17/23/17 
f 17/23/17 9/13/9 7/12/7 
f 9/13/9 17/23/17 18/24/18 
f 18/24/18 11/15/11 9/13/9 
f 13/25/13 19/26/19 20/27/20 
f 20/27/20 14/28/14 13/25/13 
f 14/28/14 20/27/20 21/29/21 
f 21/29/21 15/30/15 14/28/14 
f 15/31/15 21/32/21 22/33/22 
f 22/33/22 16/34/16 15/31/15 
f 16/35/16 22/36/22 23/37/23 
f 23/37/23 17/38/17 16/35/16 
f 17/38/17 23/37/23 24/39/24 
f 24/39/24 18/40/18 17/38/17 
f 19/41/19 25/42/25 26/43/26 
f 26/43/26 20/44/20 19/41/19 
f 20/44/20 26/43/26 27/45/27 
f 27/45/27 21/46/21 20/44/20 
f 21/47/21 27/48/27 28/49/28 
f 28/49/28 22/50/22 21/47/21 
f 22/51/22 28/52/28 29/53/29 
f 29/53/29 23/54/23 22/51/22 
f 23/54/23 29/53/29 30/55/30 
f 30/55/30 24/56/24 23/54/23 
f 25/42/25 31/57/31 32/58/32 
f 32/58/32 26/43/26 25/42/25 
f 26/43/26 32/58/32 33/59/33 
f 33/59/33 27/45/27 26/43/26 
f 27/48/27 33/60/33 34/61/34 
f 34/61/34 28/49/28 27/48/27 
f 28/52/28 34/62/34 35/63/35 
f 35/63/35 29/53/29 28/52/28 
f 29/53/29 35/63/35 36/64/36 
f 36/64/36 30/55/30 29/53/29 
f 37/65/37 38/66/38 39/67/39 
f 39/67/39 40/68/40 37/65/37 
f 38/66/38 41/69/41 42/70/42 
f 42/70/42 39/67/39 38/66/38 
f 41/69/41 43/71/43 44/72/44 
f 44/72/44 42/70/42 41/69/41 
f 43/71/43 45/73/45 46/74/46 
f 46/74/46 44/72/44 43/71/43 
f 45/73/45 47/75/47 48/76/48 
f 48/76/48 46/74/46 45/73/45 
f 40/68/40 39/67/39 49/77/49 
f 49/77/49 50/78/50 40/68/40 
f 39/67/39 42/70/42 51/79/51 
f 51/79/51 49/77/49 39/67/39 
f 42/70/42 44/72/44 52/80/52 
f 52/80/52 51/79/51 42/70/42 
f 44/72/44 46/74/46 53/81/53 
f 53/81/53 52/80/52 44/72/44 
f 46/74/46 48/76/48 54/82/54 
f 54/82/54 53/81/53 46/74/46 
f 50/78/50 49/77/49 55/83/55 
f 55/83/55 56/84/56 50/78/50 
f 49/77/49 51/79/51 57/85/57 
f 57/85/57 55/83/55 49/77/49 
f 51/31/51 52/34/52 58/33/58 
f 58/33/58 57/32/57 51/31/51 
f 52/80/52 53/81/53 59/86/59 
f 59/86/59 58/87/58 52/80/52 
f 53/81/53 54/82/54 60/88/60 
f 60/88/60 59/86/59 53/81/53 
f 56/84/56 55/83/55 61/89/61 
f 61/89/61 62/90/62 56/84/56 
f 55/83/55 57/85/57 63/91/63 
f 63/91/63 61/89/61 55/83/55 
f 57/85/57 58/87/58 64/92/64 
f 64/92/64 63/91/63 57/85/57 
f 58/87/58 59/86/59 65/93/65 
f 65/93/65 64/92/64 58/87/58 
f 59/86/59 60/88/60 66/94/66 
f 66/94/66 65/93/65 59/86/59 
f 62/90/62 61/89/61 67/95/67 
f 67/95/67 68/96/47 62/90/62 
f 61/89/61 63/91/63 69/97/68 
f 69/97/68 67/95/67 61/89/61 
f 63/91/63 64/92/64 70/98/69 
f 70/98/69 69/97/68 63/91/63 
f 64/92/64 65/93/65 71/99/70 
f 71/99/70 70/98/69 64/92/64 
f 65/93/65 66/94/66 72/100/71 
f 72/100/71 71/99/70 65/93/65 
f 1/101/72 4/102/73 38/66/74 
f 38/66/74 37/65/75 1/101/72 
f 4/102/73 6/103/76 41/69/77 
f 41/69/77 38/66/74 4/102/73 
f 6/104/76 8/105/78 43/106/79 
f 43/106/79 41/107/77 6/104/76 
f 8/108/78 10/109/80 45/73/81 
f 45/73/81 43/71/79 8/108/78 
f 10/109/80 12/110/82 47/75/83 
f 47/75/83 45/73/81 10/109/80 
f 12/110/84 11/111/85 48/76/86 
f 48/76/86 47/75/87 12/110/84 
f 11/111/85 18/112/88 54/82/89 
f 54/82/89 48/76/86 11/111/85 
f 18/113/88 24/114/90 60/115/91 
f 60/115/91 54/116/89 18/113/88 
f 24/117/90 30/118/92 66/94/93 
f 66/94/93 60/88/91 24/117/90 
f 30/118/92 36/119/94 72/100/95 
f 72/100/95 66/94/93 30/118/92 
f 36/119/96 35/120/97 71/99/98 
f 71/99/98 72/100/99 36/119/96 
f 35/120/97 34/121/100 70/98/101 
f 70/98/101 71/99/98 35/120/97 
f 34/122/100 33/123/102 69/124/103 
f 69/124/103 70/125/101 34/122/100 
f 33/126/102 32/127/104 67/95/105 
f 67/95/105 69/97/103 33/126/102 
f 32/127/104 31/128/106 68/96/107 
f 68/96/107 67/95/105 32/127/104 
f 31/128/108 25/129/109 62/90/110 
f 62/90/110 68/96/111 31/128/108 
f 25/129/109 19/130/112 56/84/113 
f 56/84/113 62/90/110 25/129/109 
f 19/131/112 13/132/114 50/133/115 
f 50/133/115 56/134/113 19/131/112 
f 13/135/114 2/136/116 40/68/117 
f 40/68/117 50/78/115 13/135/114 
f 2/136/116 1/101/118 37/65/119 
f 37/65/119 40/68/117 2/136/116 
# 140 faces

