# 3ds Max Wavefront OBJ Exporter v0.97b - (c)2007 guruware
# File Created: 10.09.2017 18:37:42

#
# object stump
#

v  0.09705 1.37948 -0.00492
v  0.09717 1.37948 -0.00492
v  0.09712 1.37948 -0.00478
v  0.09690 1.37947 -0.00488
v  0.09692 1.37948 -0.00500
v  0.09688 1.37947 -0.00469
v  0.09677 1.37948 -0.00475
v  0.09700 1.37948 -0.00463
v  0.09690 1.37948 -0.00453
v  0.09715 1.37948 -0.00464
v  3.29715 0.66492 -1.62923
v  2.84158 -4.43101 -1.80977
v  3.45770 0.57700 -0.22965
v  2.01301 1.67362 -1.30576
v  0.79662 0.14777 -2.92248
v  -1.52991 0.92222 -2.18444
v  -2.58658 -4.42061 -2.40832
v  -1.20245 0.78935 -3.14102
v  -1.43879 1.47240 -1.71924
v  -3.35134 0.46431 -1.96185
v  -3.54775 0.46431 -0.40149
v  -4.21986 -4.41587 0.03440
v  -2.64257 1.47283 0.12616
v  -2.65137 0.45762 1.53605
v  -2.36065 0.05872 2.71628
v  -2.69961 -4.41932 2.56430
v  -1.72356 1.22911 2.05492
v  -1.09403 0.55221 2.49771
v  0.35723 0.60085 2.89530
v  -0.00412 -4.42314 1.98026
v  1.77910 1.23261 1.00483
v  2.39345 -0.28063 1.28153
v  0.09716 1.37948 -0.00505
v  0.09726 1.37947 -0.00492
v  0.09733 1.37948 -0.00495
v  0.09733 1.37948 -0.00479
v  0.09720 1.37947 -0.00464
v  0.09729 1.37948 -0.00466
v  0.09708 1.37948 -0.00449
v  -0.16613 -4.42842 -3.32870
v  -0.23425 0.27315 -3.47472
v  0.59110 1.55367 -2.24184
v  0.14520 1.48583 2.17515
v  1.98290 0.63913 2.10325
v  3.07438 -4.42841 -0.06573
v  -0.01807 1.71541 -1.76390
v  -1.33216 1.71530 -1.48845
v  -2.15772 1.71535 -1.07799
v  -2.28335 1.71535 0.26312
v  -2.14691 1.72951 1.32288
v  -1.33479 1.72947 1.77131
v  -0.42574 1.72954 1.85435
v  2.32198 1.74615 -0.28772
v  1.70566 1.74619 -1.24759
v  1.05177 1.74612 -1.90967
v  0.62618 1.74604 1.79362
v  1.69001 1.74620 0.67324
v  0.48083 1.74545 -1.90026
v  0.10012 1.73016 1.86020
v  0.09699 1.37948 -0.00479
v  0.09707 1.37948 -0.00503
v  0.09725 1.37948 -0.00479
v  0.09679 1.37948 -0.00494
v  0.09679 1.37948 -0.00459
v  0.09701 1.37948 -0.00449
v  2.68537 1.36197 -0.27095
v  0.96182 -4.43191 -3.45367
v  3.78214 -4.43191 -0.39218
v  1.25200 1.36197 -2.24381
v  -0.01465 1.35097 -2.04669
v  -4.08278 -4.41547 -1.47230
v  -1.53307 -4.42343 -3.06542
v  -2.55908 1.35097 -1.29313
v  -3.41976 -4.44177 1.67222
v  -2.55908 1.35097 1.55407
v  -2.16069 -4.42343 3.40210
v  -0.52824 1.35097 2.30763
v  1.77370 -4.42437 0.35328
v  0.73841 1.36197 2.11052
v  0.09723 1.37948 -0.00506
v  0.09741 1.37948 -0.00481
v  0.09717 1.37948 -0.00452
v  -0.22191 -5.46112 0.00426
# 83 vertices

vn 0.00374 -0.99998 -0.00497
vn -0.01202 -0.99993 0.00081
vn 0.00266 -0.99998 0.00609
vn -0.00665 -0.99991 -0.01202
vn -0.02995 -0.99315 -0.11291
vn -0.00903 -0.99993 0.00699
vn -0.09826 -0.99516 0.00079
vn 0.01281 -0.99988 0.00863
vn -0.03366 -0.99521 0.09174
vn -0.03842 -0.99842 -0.04094
vn -0.73666 -0.38364 0.55691
vn -0.68743 0.37295 0.62318
vn -0.78112 -0.40252 0.47732
vn -0.45971 -0.79734 0.39104
vn -0.67357 -0.25711 0.69296
vn 0.35471 -0.44820 0.82055
vn 0.31742 0.42388 0.84827
vn 0.20635 -0.41663 0.88535
vn 0.25986 -0.66437 0.70078
vn 0.42641 -0.27341 0.86222
vn 0.93083 -0.35376 0.09167
vn 0.93084 0.33964 -0.13484
vn 0.91952 -0.37729 0.11018
vn 0.73435 -0.67797 0.03314
vn 0.78485 -0.49750 -0.36946
vn 0.41263 -0.39334 -0.82160
vn 0.56713 0.50020 -0.65435
vn 0.31578 -0.65243 -0.68893
vn -0.08531 -0.39079 -0.91652
vn -0.42186 0.15105 -0.89399
vn -0.62024 0.22909 -0.75021
vn -0.65925 -0.46167 -0.59350
vn -0.69789 -0.35124 -0.62417
vn -0.43064 0.00744 -0.90249
vn -0.01454 -0.99362 -0.11188
vn 0.01811 -0.99975 -0.01345
vn 0.10742 -0.99151 -0.07327
vn 0.02052 -0.99978 0.00450
vn -0.01674 -0.99974 -0.01545
vn 0.10721 -0.99067 0.08409
vn 0.01208 -0.99528 0.09626
vn 0.13938 0.42187 0.89588
vn 0.09269 -0.30315 0.94842
vn -0.06773 -0.32830 0.94214
vn 0.13068 -0.67993 0.72154
vn -0.16340 -0.12227 -0.97895
vn 0.12392 0.53637 -0.83483
vn -0.24438 0.24184 -0.93904
vn 0.18375 -0.61036 0.77051
vn 0.22541 -0.72009 0.65625
vn -0.11325 -0.99094 -0.07223
vn -0.06226 -0.98467 -0.16293
vn 0.62173 -0.77760 0.09373
vn 0.57907 -0.81443 -0.03720
vn -0.10726 -0.99101 0.08001
vn -0.13860 -0.99030 0.01020
vn 0.50693 -0.76519 -0.39687
vn 0.27885 -0.62868 -0.72596
vn -0.02645 -0.98636 0.16248
vn -0.06286 -0.98758 0.14396
vn -0.65127 -0.71692 0.24874
vn -0.21746 -0.91793 0.33183
vn 0.06701 -0.98546 -0.15612
vn 0.13877 -0.98411 -0.11081
vn -0.48871 -0.62367 -0.61008
vn -0.66660 -0.49966 -0.55316
vn 0.16213 -0.98676 -0.00401
vn 0.16935 -0.97687 0.13057
vn -0.12801 -0.77078 0.62411
vn 0.22859 -0.77254 0.59239
vn -0.01298 -0.98232 -0.18677
vn 0.00173 -0.98193 -0.18926
vn 0.08839 -0.57758 -0.81153
vn -0.11491 -0.53018 -0.84006
vn 0.12822 -0.97847 0.16174
vn 0.05214 -0.98430 0.16864
vn 0.02141 -0.99976 0.00453
vn -0.01536 -0.99420 -0.10648
vn -0.02266 -0.99971 0.00780
vn -0.08259 -0.99446 -0.06495
vn -0.08211 -0.99489 0.05881
vn -0.02705 -0.99532 0.09282
vn -0.69629 -0.64463 0.31565
vn -0.65231 0.36952 0.66178
vn -0.72851 0.33277 0.59878
vn -0.54352 -0.59087 0.59620
vn 0.20854 -0.63735 0.74182
vn 0.33823 0.30083 0.89169
vn 0.25721 0.39297 0.88285
vn 0.34927 -0.53696 0.76791
vn 0.81790 -0.56544 0.10641
vn 0.84425 0.43333 -0.31539
vn 0.95705 0.27856 0.08038
vn 0.52509 -0.73455 -0.42978
vn -0.10388 0.23774 -0.96576
vn -0.13231 -0.37941 -0.91572
vn -0.44150 0.24505 -0.86315
vn -0.34028 -0.05511 -0.93871
vn -0.62169 -0.62048 -0.47803
vn -0.35775 0.18245 -0.91582
vn 0.03636 -0.99184 -0.12218
vn 0.12680 -0.99184 0.01296
vn 0.10205 -0.98680 0.12577
vn 0.08949 0.34805 0.93319
vn -0.16597 -0.58041 0.79723
vn 0.31179 -0.71374 0.62719
vn -0.50760 -0.70068 0.50138
vn -0.64789 -0.63143 -0.42605
vn -0.41835 0.82082 0.38890
vn 0.15541 0.82968 0.53617
vn -0.24740 0.74943 -0.61413
# 111 vertex normals

vt 1.01364 -0.37814 0.00000
vt 1.02548 -0.49028 0.00000
vt 1.02521 -0.47936 0.00000
vt 1.01548 -0.49110 0.00000
vt 1.02686 -0.50097 0.00000
vt 1.03491 -0.49201 0.00000
vt 1.01948 -0.49239 0.00000
vt 1.01959 -0.48144 0.00000
vt 1.02686 -0.49185 0.00000
vt 1.02348 -0.50354 0.00000
vt 1.01347 -0.49113 0.00000
vt 1.02736 -0.44446 0.00000
vt 1.02672 -0.42251 0.00000
vt 1.01220 -0.44215 0.00000
vt 1.00990 -0.49702 0.00000
vt 1.02550 -0.48076 0.00000
vt 1.00997 -0.48100 0.00000
vt 1.00968 -0.48283 0.00000
vt 1.00647 -0.46179 0.00000
vt 1.00789 -0.48290 0.00000
vt 1.01236 -0.50282 0.00000
vt 1.01304 -0.48425 0.00000
vt 1.02607 -0.48801 0.00000
vt 1.02595 -0.46807 0.00000
vt 1.01379 -0.49307 0.00000
vt 1.00868 -0.48310 0.00000
vt 1.01727 -0.48037 0.00000
vt 1.03282 -0.48546 0.00000
vt 1.03163 -0.47674 0.00000
vt 1.03510 -0.49073 0.00000
vt 1.03570 -0.50131 0.00000
vt 1.02600 -0.47251 0.00000
vt 1.02648 -0.49416 0.00000
vt 1.02030 -0.47449 0.00000
vt 1.00644 -0.45667 0.00000
vt 1.01242 0.59457 0.00000
vt 1.03731 0.60802 0.00000
vt 1.02853 0.59535 0.00000
vt 0.13827 0.54870 0.00000
vt 0.00513 0.51784 0.00000
vt 0.00494 0.55646 0.00000
vt 1.01224 0.56007 0.00000
vt 1.02906 0.56843 0.00000
vt 1.03114 0.55877 0.00000
vt 0.13706 0.54954 0.00000
vt 0.00447 0.51673 0.00000
vt 0.00466 0.56184 0.00000
vt 1.01567 0.52128 0.00000
vt 1.02961 0.54352 0.00000
vt 1.03112 0.51979 0.00000
vt 0.13824 0.54459 0.00000
vt 0.00501 0.53131 0.00000
vt 0.00495 0.57148 0.00000
vt 1.03337 0.57656 0.00000
vt 1.01126 0.55995 0.00000
vt 1.01463 0.57546 0.00000
vt 0.13835 0.54716 0.00000
vt 0.00494 0.52187 0.00000
vt 0.00496 0.56149 0.00000
vt 1.03284 0.54067 0.00000
vt 1.01753 0.52758 0.00000
vt 1.01645 0.54280 0.00000
vt 0.13737 0.54908 0.00000
vt 0.00479 0.50938 0.00000
vt 0.00453 0.57337 0.00000
vt 1.03246 0.60033 0.00000
vt 1.01766 0.58964 0.00000
vt 1.01493 0.60202 0.00000
vt 0.13845 0.54793 0.00000
vt 0.00463 0.54016 0.00000
vt 0.00491 0.55968 0.00000
vt 1.03627 0.51854 0.00000
vt 1.01356 0.51041 0.00000
vt 1.01499 0.51603 0.00000
vt 0.13844 0.54965 0.00000
vt 0.00454 0.53704 0.00000
vt 0.00498 0.55637 0.00000
vt 1.01618 -0.50153 0.00000
vt 1.03273 -0.48031 0.00000
vt 1.01892 -0.48067 0.00000
vt 1.03651 -0.50169 0.00000
vt 1.02842 -0.50361 0.00000
vt 1.01284 -0.48182 0.00000
vt 1.02690 -0.48323 0.00000
vt 1.01713 -0.50395 0.00000
vt 1.01142 -0.46231 0.00000
vt 1.01272 -0.46506 0.00000
vt 1.00936 -0.46904 0.00000
vt 1.01101 -0.41996 0.00000
vt 1.02770 -0.46244 0.00000
vt 1.02743 -0.49643 0.00000
vt 1.00707 -0.49955 0.00000
vt 1.01048 -0.46699 0.00000
vt 1.02437 -0.46663 0.00000
vt 1.01774 -0.49964 0.00000
vt 1.01774 -0.44916 0.00000
vt 1.02788 -0.44758 0.00000
vt 1.02568 -0.49450 0.00000
vt 1.00605 -0.49455 0.00000
vt 1.00786 -0.46926 0.00000
vt 1.03448 -0.50169 0.00000
vt 1.03194 -0.47234 0.00000
vt 1.02554 -0.49424 0.00000
vt 1.01251 0.57071 0.00000
vt 1.02038 0.60917 0.00000
vt 0.00469 0.51901 0.00000
vt 0.00482 0.57588 0.00000
vt 0.13865 0.54908 0.00000
vt 1.01354 -0.37802 0.00000
vt 1.01547 0.53988 0.00000
vt 0.00465 0.51566 0.00000
vt 0.00510 0.57092 0.00000
vt 0.13759 0.54822 0.00000
vt 1.01370 -0.37800 0.00000
vt 1.01539 0.51024 0.00000
vt 0.00466 0.53474 0.00000
vt 0.00495 0.57287 0.00000
vt 0.13727 0.54610 0.00000
vt 0.13727 0.54609 0.00000
vt 1.01376 -0.37809 0.00000
vt 1.02785 0.51099 0.00000
vt 1.03237 0.59321 0.00000
vt 1.03480 0.56074 0.00000
vt 0.00459 0.52186 0.00000
vt 0.00486 0.56952 0.00000
vt 0.13784 0.54644 0.00000
vt 1.01353 -0.37822 0.00000
vt 1.03370 0.52568 0.00000
vt 0.00477 0.51517 0.00000
vt 0.00481 0.57784 0.00000
vt 0.13682 0.54756 0.00000
vt 1.01365 -0.37827 0.00000
vt 1.03380 0.60810 0.00000
vt 0.00453 0.53429 0.00000
vt 0.00478 0.55689 0.00000
vt 0.13780 0.54648 0.00000
vt 1.01353 -0.37815 0.00000
vt 1.01919 0.60832 0.00000
vt 1.03536 0.50917 0.00000
vt 0.00484 0.54681 0.00000
vt 0.00498 0.56861 0.00000
vt 0.13819 0.54862 0.00000
vt 1.01376 -0.37815 0.00000
# 143 texture coords

g stump
f 1/1/1 2/1/2 3/1/3 
f 4/1/4 5/1/5 1/1/1 
f 6/1/6 7/1/7 4/1/4 
f 8/1/8 9/1/9 6/1/6 
f 3/1/3 10/1/10 8/1/8 
f 11/2/11 12/3/12 13/4/13 
f 14/5/14 15/6/15 11/2/11 
f 16/7/16 17/8/17 18/9/18 
f 19/10/19 20/11/20 16/7/16 
f 21/12/21 22/13/22 20/14/23 
f 23/15/24 24/16/25 21/17/21 
f 25/18/26 26/19/27 24/20/25 
f 27/21/28 28/22/29 25/18/26 
f 29/23/30 30/24/31 28/22/29 
f 31/25/32 13/26/33 32/27/34 
f 2/1/2 33/1/35 34/1/36 
f 35/1/37 36/1/38 34/1/36 
f 10/1/10 36/1/38 37/1/39 
f 38/1/40 39/1/41 37/1/39 
f 18/28/18 40/29/42 41/30/43 
f 15/6/44 42/31/45 41/30/43 
f 29/32/30 43/33/46 44/34/47 
f 32/27/34 45/35/48 44/34/47 
f 19/36/19 46/37/49 47/38/50 
f 5/39/5 48/40/51 47/41/52 
f 23/42/24 48/43/53 49/44/54 
f 7/45/7 50/46/55 49/47/56 
f 27/48/28 50/49/57 51/50/58 
f 9/51/9 52/52/59 51/53/60 
f 14/54/14 53/55/61 54/56/62 
f 35/57/37 55/58/63 54/59/64 
f 31/60/32 56/61/65 57/62/66 
f 38/63/40 53/64/67 57/65/68 
f 42/66/45 55/67/69 58/68/70 
f 33/69/35 46/70/71 58/71/72 
f 43/72/46 52/73/73 59/74/74 
f 39/75/41 56/76/75 59/77/76 
f 60/1/77 1/1/1 3/1/3 
f 1/1/1 61/1/78 2/1/2 
f 3/1/3 2/1/2 62/1/79 
f 60/1/77 4/1/4 1/1/1 
f 4/1/4 63/1/80 5/1/5 
f 1/1/1 5/1/5 61/1/78 
f 60/1/77 6/1/6 4/1/4 
f 6/1/6 64/1/81 7/1/7 
f 4/1/4 7/1/7 63/1/80 
f 60/1/77 8/1/8 6/1/6 
f 8/1/8 65/1/82 9/1/9 
f 6/1/6 9/1/9 64/1/81 
f 60/1/77 3/1/3 8/1/8 
f 3/1/3 62/1/79 10/1/10 
f 8/1/8 10/1/10 65/1/82 
f 66/78/83 11/2/11 13/4/13 
f 11/2/11 67/79/84 12/3/12 
f 13/4/13 12/3/12 68/80/85 
f 66/78/83 14/5/14 11/2/11 
f 14/5/14 69/81/86 15/6/15 
f 11/2/11 15/6/15 67/79/84 
f 70/82/87 16/7/16 18/9/18 
f 16/7/16 71/83/88 17/8/17 
f 18/9/18 17/8/17 72/84/89 
f 70/82/87 19/10/19 16/7/16 
f 19/10/19 73/85/90 20/11/20 
f 16/7/16 20/11/20 71/83/88 
f 73/86/91 21/12/21 20/14/23 
f 21/17/21 74/87/92 22/88/22 
f 20/14/23 22/13/22 71/89/93 
f 73/86/91 23/90/24 21/12/21 
f 23/15/24 75/91/94 24/16/25 
f 21/17/21 24/16/25 74/87/92 
f 75/92/94 25/18/26 24/20/25 
f 25/18/26 76/93/95 26/19/27 
f 24/16/25 26/94/27 74/87/92 
f 75/92/94 27/21/28 25/18/26 
f 27/21/28 77/95/96 28/22/29 
f 25/18/26 28/22/29 76/93/95 
f 77/95/96 29/23/30 28/22/29 
f 29/32/30 78/96/97 30/97/31 
f 28/22/29 30/24/31 76/93/95 
f 79/98/98 31/25/32 32/27/34 
f 31/25/32 66/99/99 13/26/33 
f 32/27/34 13/26/33 68/100/100 
f 62/1/79 2/1/2 34/1/36 
f 2/1/2 61/1/78 33/1/35 
f 34/1/36 33/1/35 80/1/101 
f 80/1/101 35/1/37 34/1/36 
f 35/1/37 81/1/102 36/1/38 
f 34/1/36 36/1/38 62/1/79 
f 65/1/82 10/1/10 37/1/39 
f 10/1/10 62/1/79 36/1/38 
f 37/1/39 36/1/38 81/1/102 
f 81/1/102 38/1/40 37/1/39 
f 38/1/40 82/1/103 39/1/41 
f 37/1/39 39/1/41 65/1/82 
f 70/101/87 18/28/18 41/30/43 
f 18/28/18 72/102/89 40/29/42 
f 41/30/43 40/29/42 67/79/104 
f 67/79/104 15/6/44 41/30/43 
f 15/6/44 69/81/105 42/31/45 
f 41/30/43 42/31/45 70/101/87 
f 78/96/97 29/32/30 44/34/47 
f 29/23/30 77/95/96 43/103/46 
f 44/34/47 43/33/46 79/98/98 
f 79/98/98 32/27/34 44/34/47 
f 32/27/34 68/100/100 45/35/48 
f 44/34/47 45/35/48 78/96/97 
f 73/104/90 19/36/19 47/38/50 
f 19/36/19 70/105/87 46/37/49 
f 47/106/52 46/107/71 61/108/78 
f 61/108/78 5/108/5 47/106/52 
f 5/1/5 63/1/80 48/109/51 
f 47/38/50 48/43/106 73/104/90 
f 75/110/94 23/42/24 49/44/54 
f 23/42/24 73/104/91 48/43/53 
f 49/111/56 48/112/51 63/113/80 
f 63/113/80 7/113/7 49/111/56 
f 7/1/7 64/1/81 50/114/55 
f 49/44/54 50/49/57 75/110/94 
f 77/115/96 27/48/28 51/50/58 
f 27/48/28 75/110/94 50/49/57 
f 51/116/60 50/117/55 64/118/81 
f 64/118/81 9/119/9 51/116/60 
f 9/1/9 65/1/82 52/120/59 
f 51/50/58 52/121/73 77/115/96 
f 69/122/86 14/54/14 54/56/62 
f 14/54/14 66/123/83 53/55/61 
f 54/124/64 53/125/67 81/126/102 
f 81/126/102 35/126/37 54/124/64 
f 35/1/37 80/1/101 55/127/63 
f 54/56/62 55/67/107 69/122/86 
f 66/123/99 31/60/32 57/62/66 
f 31/60/32 79/128/98 56/61/65 
f 57/129/68 56/130/75 82/131/103 
f 82/131/103 38/131/40 57/129/68 
f 38/1/40 81/1/102 53/132/67 
f 57/62/66 53/55/108 66/123/99 
f 70/133/87 42/66/45 58/68/70 
f 42/66/45 69/122/105 55/67/69 
f 58/134/72 55/135/63 80/136/101 
f 80/136/101 33/136/35 58/134/72 
f 33/1/35 61/1/78 46/137/71 
f 58/68/70 46/138/49 70/133/87 
f 79/128/98 43/72/46 59/74/74 
f 43/72/46 77/139/96 52/73/73 
f 59/140/76 52/141/59 65/142/82 
f 65/142/82 39/142/41 59/140/76 
f 39/1/41 82/1/103 56/143/75 
f 59/74/74 56/61/65 79/128/98 
f 12/3/12 67/79/84 83/79/109 
f 68/80/85 12/3/12 83/3/109 
f 17/8/17 71/83/88 83/83/110 
f 72/84/89 17/8/17 83/8/110 
f 22/88/22 74/87/92 83/87/111 
f 71/89/93 22/13/22 83/13/111 
f 26/19/27 76/93/95 83/93/111 
f 74/87/92 26/94/27 83/94/111 
f 30/97/31 78/96/97 83/96/111 
f 76/93/95 30/24/31 83/24/111 
f 40/29/42 72/102/89 83/102/110 
f 67/79/104 40/29/42 83/29/110 
f 45/35/48 68/100/100 83/100/111 
f 78/96/97 45/35/48 83/35/111 
# 162 faces

