# 3ds Max Wavefront OBJ Exporter v0.97b - (c)2007 guruware
# File Created: 21.09.2017 01:25:37

#
# object Cylinder003
#

v  -0.181847 -7.516178 -0.220747
v  -3.959129 -7.516178 -3.440151
v  -0.232682 -7.516178 -4.650948
v  3.151188 -7.516178 -0.220747
v  2.215090 -7.516178 3.305732
v  -2.878330 -7.516178 1.738363
v  -0.105947 5.037130 -5.835953
v  6.355084 5.037130 1.735363
v  -6.461981 5.037130 -3.770751
v  -3.929193 5.037130 5.076929
v  2.426840 5.037130 7.142128
v  1.545638 10.090490 -0.959344
v  3.503456 10.090490 1.735363
v  -1.622179 10.090490 0.069943
v  -1.622179 10.090490 3.400784
v  1.545638 10.090490 4.430070
v  0.670075 10.090490 1.735363
# 17 vertices

vn 0.000000 -1.000000 -0.000000
vn 0.947196 -0.185151 -0.261800
vn 0.303078 -0.092592 -0.948457
vn 0.222161 0.274365 -0.935611
vn 0.990732 0.134849 -0.016300
vn -0.843670 -0.160759 -0.512228
vn -0.846719 0.272012 -0.457250
vn -0.752251 -0.230162 0.617368
vn -0.709946 0.115486 0.694723
vn 0.455965 -0.352938 0.817026
vn 0.295863 0.099829 0.950000
vn 0.394910 0.587293 -0.706493
vn 0.870904 0.491454 0.000000
vn -0.520785 0.773429 -0.361372
vn -0.612842 0.551419 0.566006
vn 0.269124 0.491454 0.828279
vn 0.000000 1.000000 -0.000000
# 17 vertex normals

vt 0.500000 0.000000 0.000000
vt 0.150000 0.000000 1.000000
vt -0.050000 0.000000 1.000000
vt 0.455728 0.000000 -0.243543
vt 0.550000 0.000000 1.000000
vt 0.350000 0.000000 1.000000
vt 0.750000 0.000000 1.000000
vt 0.950000 0.000000 1.000000
vt 0.950000 0.500000 1.000000
vt 0.750000 0.500000 1.000000
vt 0.150000 0.500000 1.000000
vt -0.050000 0.500000 1.000000
vt 0.350000 0.500000 1.000000
vt 0.550000 0.500000 1.000000
vt 0.950000 1.000000 1.000000
vt 0.750000 1.000000 1.000000
vt 0.150000 1.000000 1.000000
vt -0.050000 1.000000 1.000000
vt 0.350000 1.000000 1.000000
vt 0.550000 1.000000 1.000000
vt 0.500000 1.000000 0.000000
# 21 texture coords

g Cylinder003
f 1/1/1 2/2/1 3/3/1 4/4/1 
f 1/1/1 5/5/1 6/6/1 2/2/1 
f 1/1/1 4/7/1 5/5/1 
f 4/7/2 3/8/3 7/9/4 8/10/5 
f 3/3/3 2/2/6 9/11/7 7/12/4 
f 2/2/6 6/6/8 10/13/9 9/11/7 
f 6/6/8 5/5/10 11/14/11 10/13/9 
f 5/5/10 4/7/2 8/10/5 11/14/11 
f 8/10/5 7/9/4 12/15/12 13/16/13 
f 7/12/4 9/11/7 14/17/14 12/18/12 
f 9/11/7 10/13/9 15/19/15 14/17/14 
f 10/13/9 11/14/11 16/20/16 15/19/15 
f 11/14/11 8/10/5 13/16/13 16/20/16 
f 17/21/17 16/20/17 13/16/17 12/15/17 
f 17/21/17 12/18/17 14/17/17 15/19/17 
f 17/21/17 15/19/17 16/20/17 
# 14 polygons - 2 triangles

