# 3ds Max Wavefront OBJ Exporter v0.97b - (c)2007 guruware
# File Created: 04.10.2017 21:20:33

#
# object Sphere002
#

v  0.006437 1.166031 -0.773669
v  -0.174814 0.998309 0.851548
v  0.187688 0.998309 0.851548
v  0.234653 1.043288 -0.485541
v  0.278458 1.024729 -0.753277
v  0.009643 1.015809 -0.962337
v  0.422644 0.808889 -0.938255
v  -0.403359 0.808889 -0.938254
v  -0.265584 1.024729 -0.753277
v  -0.221779 1.043288 -0.485540
v  0.061861 0.427371 2.557400
v  0.033587 0.501549 2.556936
v  -0.009475 0.501549 2.556935
v  -0.037749 0.427371 2.557399
v  0.617040 0.291740 -0.014208
v  0.463048 0.620885 -0.187425
v  0.235669 0.686000 0.496792
v  0.312666 0.291740 0.512985
v  0.312665 0.291740 -0.541400
v  0.235669 0.540185 -0.591772
v  -0.296084 0.291740 -0.541400
v  -0.219088 0.540185 -0.591772
v  -0.600458 0.291740 -0.014207
v  -0.446466 0.620885 -0.187425
v  -0.296084 0.291740 0.512985
v  -0.219088 0.686000 0.496791
v  0.008291 -0.138559 -0.014208
v  0.166891 -0.074370 0.260497
v  -0.150310 -0.074370 0.260497
v  0.325492 -0.074370 -0.014208
v  0.166891 -0.074370 -0.288912
v  -0.150310 -0.074370 -0.288912
v  -0.308911 -0.074370 -0.014208
v  -0.247697 0.639352 0.762162
v  0.264257 0.639352 0.762163
v  0.267219 0.310052 0.775923
v  -0.250658 0.310052 0.775923
v  0.365693 0.761821 0.974945
v  -0.349111 0.761821 0.974945
v  0.594681 0.700690 -0.288995
v  0.493285 0.626605 -0.726328
v  -0.476703 0.626605 -0.726328
v  -0.578099 0.700690 -0.288995
v  0.084958 0.588151 0.900703
v  0.185406 0.350322 0.914061
v  -0.068020 0.588151 0.900703
v  -0.168468 0.350322 0.914061
v  0.050356 0.533450 1.888638
v  0.105376 0.389106 1.889009
v  -0.033439 0.533450 1.888638
v  -0.088460 0.389106 1.889008
v  0.195722 0.353817 1.959992
v  0.131906 0.566960 1.959763
v  0.131906 0.570377 2.187562
v  0.195723 0.356058 2.187791
v  -0.114989 0.566960 1.959764
v  -0.114989 0.570377 2.187562
v  -0.178806 0.353817 1.959991
v  -0.178805 0.356058 2.187790
v  -0.156682 0.799409 1.204377
v  0.169556 0.799409 1.204377
v  0.505442 0.843794 -0.352909
v  0.359305 0.899314 0.650338
v  0.466473 0.813035 -0.738756
v  0.446812 0.640844 -0.925827
v  -0.427526 0.640844 -0.925826
v  -0.488861 0.843794 -0.352909
v  -0.449892 0.813035 -0.738756
v  -0.342723 0.899314 0.650338
v  0.096188 0.396998 2.258916
v  0.046384 0.527658 2.258545
v  0.053836 0.545225 2.501959
v  0.116168 0.381698 2.502423
v  -0.029467 0.527658 2.258546
v  -0.041094 0.545225 2.501958
v  -0.079270 0.396998 2.258917
v  -0.103427 0.381698 2.502423
v  0.048157 0.533271 2.701611
v  0.100945 0.394786 2.702074
v  -0.032236 0.533271 2.701610
v  -0.085023 0.394786 2.702075
v  0.033576 0.501787 2.714111
v  0.061851 0.427609 2.714576
v  -0.009485 0.501787 2.714111
v  -0.037760 0.427609 2.714576
v  0.166891 0.190915 0.260497
v  0.325492 0.190915 -0.014208
v  0.166891 0.190915 -0.288912
v  -0.150310 0.190915 -0.288912
v  -0.308911 0.190915 -0.014208
v  -0.150310 0.190915 0.260497
v  0.007972 1.127077 -0.973167
v  0.175552 1.023328 -0.952776
v  -0.159608 1.023328 -0.952775
# 94 vertices

vn -0.000000 0.999328 0.036658
vn -0.022505 0.954995 0.295765
vn 0.022505 0.954996 0.295765
vn 0.437018 0.898704 0.036703
vn 0.460116 0.887752 0.013742
vn -0.000000 -0.115606 -0.993295
vn -0.000000 -0.115607 -0.993295
vn -0.460117 0.887752 0.013742
vn -0.437018 0.898703 0.036703
vn -0.000014 0.006261 0.999980
vn 0.936924 0.348164 0.030916
vn 0.921117 0.318776 -0.223441
vn 0.860933 0.311479 0.402213
vn 0.850857 0.186343 0.491242
vn 0.589355 0.012365 -0.807779
vn 0.427216 -0.050629 -0.902731
vn -0.594079 0.021075 -0.804130
vn -0.432033 -0.053996 -0.900240
vn -0.877998 0.467787 0.101463
vn -0.944395 0.283728 -0.166185
vn -0.886865 0.314684 0.338296
vn -0.936183 0.194846 0.292569
vn 0.000000 -1.000000 -0.000000
vn 0.099170 -0.980133 0.171767
vn -0.099170 -0.980133 0.171767
vn 0.198340 -0.980133 -0.000000
vn 0.099170 -0.980133 -0.171768
vn -0.099170 -0.980133 -0.171768
vn -0.198340 -0.980133 -0.000000
vn 0.565735 0.820372 0.083263
vn -0.596836 0.790908 0.135096
vn -0.709467 0.621642 0.331991
vn 0.671861 0.615728 0.411682
vn 0.993655 0.091175 0.065848
vn 0.914775 0.115994 0.386953
vn -0.968587 0.195471 0.153720
vn -0.958985 0.084213 0.270658
vn -0.000000 -0.997584 0.069474
vn -0.000000 -0.987660 0.156613
vn 0.347634 -0.926892 0.141500
vn 0.399185 -0.916783 0.012667
vn 0.000000 -0.841407 -0.540402
vn -0.399186 -0.916782 0.012667
vn -0.347635 -0.926891 0.141500
vn 0.316445 0.754068 0.575538
vn 0.840959 0.376982 0.388167
vn -0.231503 0.775812 0.586960
vn -0.764266 0.123184 0.633027
vn -0.000000 -0.960039 0.279868
vn 0.920216 0.387572 0.054690
vn 0.540486 0.838809 0.065374
vn 0.564445 0.822461 0.070421
vn 0.932544 0.355622 0.062402
vn -0.541787 0.837719 0.068512
vn -0.567323 0.820902 0.065311
vn -0.918350 0.391226 0.059800
vn -0.930848 0.361462 0.053547
vn -0.000000 -0.999210 0.039749
vn 0.958191 0.286108 -0.003566
vn 0.599660 0.800165 -0.012004
vn 0.594896 0.803719 -0.011594
vn 0.958411 0.285378 -0.002810
vn -0.599965 0.799944 -0.011531
vn -0.595187 0.803497 -0.012053
vn -0.957979 0.286825 -0.002820
vn -0.958196 0.286089 -0.003562
vn -0.000000 -0.999952 0.009837
vn -0.000000 0.871118 0.491073
vn -0.000001 0.871118 0.491073
vn 0.704236 0.633118 0.321268
vn 0.869432 0.494042 0.003254
vn 0.756238 0.654209 -0.010697
vn 0.776449 0.618627 0.120115
vn 0.962118 0.122118 -0.243755
vn 0.875781 0.448418 -0.178686
vn -0.000000 -0.073755 -0.997276
vn -0.000000 -0.073754 -0.997276
vn -0.964773 0.212550 -0.155035
vn -0.864193 0.500029 -0.056049
vn -0.772116 0.632003 -0.066394
vn -0.884123 0.460813 -0.077311
vn -0.616368 0.729378 0.296813
vn -0.748507 0.648890 0.136669
vn 0.933095 0.355519 -0.054223
vn 0.570152 0.817971 -0.076488
vn 0.561780 0.823728 -0.076647
vn 0.933095 0.355518 -0.054223
vn -0.565373 0.820318 -0.086212
vn -0.565372 0.820319 -0.086210
vn -0.932183 0.355122 -0.070163
vn -0.932182 0.355126 -0.070161
vn -0.000000 -0.998032 -0.062708
vn 0.933299 0.355898 0.047843
vn 0.562589 0.824151 0.065344
vn 0.569884 0.819131 0.065244
vn 0.933294 0.355912 0.047830
vn -0.565973 0.821072 0.074265
vn -0.565481 0.821411 0.074271
vn -0.932523 0.355636 0.062649
vn -0.932516 0.355650 0.062661
vn 0.000000 -0.997858 0.065410
vn 0.419885 0.163944 0.892647
vn -0.000006 0.369029 0.929418
vn -0.335604 0.132000 0.932709
vn 0.000004 -0.355920 0.934516
vn -0.934420 -0.356174 0.000478
vn -0.000000 -0.999999 0.001515
vn 0.934420 -0.356172 0.000601
vn 0.000000 0.999999 -0.001515
vn 0.633541 0.202561 -0.746723
vn 0.267518 0.716475 -0.644281
vn 0.457427 0.504752 -0.732111
vn 0.651844 0.194379 -0.733018
vn -0.284265 0.712197 -0.641848
vn -0.453609 0.484185 -0.748201
vn -0.656577 0.248444 -0.712168
vn -0.633003 0.217085 -0.743089
vn 0.000001 -0.895448 -0.445166
vn 0.273098 0.656435 0.703215
vn 0.627980 0.241471 0.739819
vn 0.602756 0.206802 0.770661
vn 0.419304 0.460542 0.782359
vn -0.255249 0.661199 0.705453
vn -0.423368 0.479773 0.768491
vn -0.601784 0.194789 0.774541
vn -0.620697 0.185632 0.761759
vn -0.000000 -0.866680 0.498865
vn 0.321168 -0.928692 0.185426
vn 0.321168 -0.928692 -0.185426
vn -0.000000 -0.928692 -0.370853
vn -0.321168 -0.928692 -0.185427
vn -0.321168 -0.928692 0.185427
vn 0.000000 -0.928692 0.370853
vn 0.000000 0.000000 1.000000
vn 0.866026 0.000000 0.500000
vn 0.866025 0.000000 -0.500000
vn -0.000000 0.000000 -1.000000
vn -0.866025 0.000000 -0.500000
vn -0.866025 0.000000 0.500000
vn 0.578000 0.815086 0.039381
vn 0.639209 0.725696 0.254515
vn 0.675068 0.736053 -0.050084
vn 0.058976 -0.032615 -0.997727
vn -0.057904 -0.034621 -0.997722
vn -0.646793 0.762646 -0.005497
vn -0.749345 0.657687 0.077010
vn -0.713321 0.645005 0.274119
vn -0.000000 -0.986844 0.161678
vn 0.611552 0.675376 0.412155
vn -0.645546 0.683826 0.340077
vn 0.490827 0.845516 -0.210218
vn -0.490561 0.843820 -0.217527
vn -0.000000 -0.997463 -0.071191
vn 0.968461 0.124131 -0.216045
vn -0.965747 0.122863 -0.228554
vn 0.684267 0.680882 -0.261110
vn -0.688060 0.672607 -0.272347
# 157 vertex normals

vt -0.367817 1.948876 0.000000
vt -0.382258 1.934100 0.000000
vt -0.353595 1.934169 0.000000
vt -0.353475 1.946109 0.000000
vt -0.353363 1.948453 0.000000
vt 0.041346 1.656969 0.000000
vt 0.019627 1.648689 0.000000
vt 0.063008 1.648665 0.000000
vt -0.382271 1.948453 0.000000
vt -0.382265 1.946097 0.000000
vt -0.861345 0.840177 0.000000
vt -0.866632 0.847076 0.000000
vt -0.874685 0.847076 0.000000
vt -0.879972 0.840178 0.000000
vt -0.366577 0.760782 0.500639
vt -0.364221 0.764161 0.400809
vt -0.370998 0.764161 0.280478
vt -0.372479 0.760782 0.559017
vt -0.360356 0.760782 0.514284
vt -0.359517 0.764161 0.533740
vt -0.354685 0.760782 0.514284
vt -0.355524 0.764161 0.533740
vt -0.348465 0.760782 0.500639
vt -0.350820 0.764161 0.400809
vt -0.342563 0.760782 0.559017
vt -0.344043 0.764161 0.280478
vt -0.961517 0.659805 0.000000
vt -0.969706 0.652269 0.000000
vt -0.958277 0.649727 0.000000
vt -0.972946 0.662347 0.000000
vt -0.964757 0.669883 0.000000
vt -0.953328 0.667341 0.000000
vt -0.950088 0.657263 0.000000
vt -0.950051 1.675371 0.000000
vt -0.974860 1.675860 0.000000
vt -0.974211 1.652146 0.000000
vt -0.951845 1.651929 0.000000
vt -0.934585 1.652644 0.000000
vt -0.947997 1.630664 0.000000
vt -0.990584 1.652864 0.000000
vt -0.978586 1.631220 0.000000
vt 0.235511 1.190064 0.000000
vt 0.203264 1.190064 0.000000
vt 0.205672 1.207837 0.000000
vt 0.233105 1.207837 0.000000
vt -0.550544 0.853834 0.000000
vt -0.558213 0.852662 0.000000
vt -0.559949 0.847819 0.000000
vt -0.547457 0.849728 0.000000
vt -0.563035 0.858902 0.000000
vt -0.567798 0.857871 0.000000
vt -0.560188 0.866314 0.000000
vt -0.563154 0.869832 0.000000
vt -0.552519 0.867486 0.000000
vt -0.550662 0.871741 0.000000
vt -0.547697 0.861246 0.000000
vt -0.542813 0.861689 0.000000
vt -0.959140 1.643026 0.000000
vt -0.953028 1.631195 0.000000
vt -0.967486 1.643190 0.000000
vt -0.973930 1.631575 0.000000
vt 0.086579 1.745576 0.000000
vt 0.023670 1.745576 0.000000
vt 0.033609 1.807632 0.000000
vt 0.076996 1.807632 0.000000
vt 0.023470 1.690095 0.000000
vt 0.031801 1.686835 0.000000
vt 0.034671 1.743920 0.000000
vt 0.030108 1.743936 0.000000
vt 0.044489 1.686835 0.000000
vt 0.041621 1.743920 0.000000
vt 0.052821 1.690095 0.000000
vt 0.046185 1.743936 0.000000
vt -0.328511 1.905166 0.000000
vt -0.329540 1.905017 0.000000
vt -0.329621 1.909443 0.000000
vt -0.328592 1.909593 0.000000
vt -0.333520 1.904911 0.000000
vt -0.333601 1.909337 0.000000
vt -0.334549 1.905006 0.000000
vt -0.334630 1.909432 0.000000
vt 0.132848 1.766073 0.000000
vt 0.121815 1.766074 0.000000
vt 0.121815 1.777017 0.000000
vt 0.132848 1.777017 0.000000
vt -0.382255 1.930616 0.000000
vt -0.353641 1.930702 0.000000
vt -0.913688 1.750885 0.000000
vt -0.958491 1.750792 0.000000
vt -0.960592 1.774506 0.000000
vt -0.925614 1.789961 0.000000
vt -0.998262 1.750878 0.000000
vt -0.998279 1.775964 0.000000
vt 0.018343 1.641965 0.000000
vt 0.064263 1.641940 0.000000
vt -0.997892 1.750906 0.000000
vt -0.957965 1.750819 0.000000
vt -0.960080 1.774940 0.000000
vt -0.997912 1.776421 0.000000
vt -0.912608 1.750914 0.000000
vt -0.924580 1.790428 0.000000
vt -0.943590 0.695036 0.000000
vt -0.952614 0.694502 0.000000
vt -0.952236 0.719586 0.000000
vt -0.940941 0.720255 0.000000
vt -0.966362 0.694329 0.000000
vt -0.969442 0.719370 0.000000
vt -0.975392 0.694637 0.000000
vt -0.980741 0.719756 0.000000
vt 0.129916 1.780433 0.000000
vt 0.124747 1.780433 0.000000
vt 0.124158 1.792131 0.000000
vt 0.130627 1.792131 0.000000
vt -0.954063 0.740211 0.000000
vt -0.944497 0.740786 0.000000
vt -0.968635 0.740029 0.000000
vt -0.978205 0.740362 0.000000
vt 0.124607 1.801722 0.000000
vt 0.130085 1.801722 0.000000
vt -0.324187 1.908562 0.000000
vt -0.322632 1.908540 0.000000
vt -0.322203 1.909141 0.000000
vt -0.323036 1.909163 0.000000
vt -0.320264 1.908540 0.000000
vt -0.320934 1.909141 0.000000
vt -0.318709 1.908562 0.000000
vt -0.320101 1.909163 0.000000
vt -0.861346 0.850555 0.000000
vt -0.866634 0.857453 0.000000
vt -0.874686 0.857453 0.000000
vt -0.879974 0.850555 0.000000
vt -0.329942 1.903728 0.000000
vt -0.330829 1.903618 0.000000
vt -0.332180 1.903582 0.000000
vt -0.333067 1.903646 0.000000
vt 0.130187 1.762664 0.000000
vt 0.124476 1.762664 0.000000
vt -0.331025 1.910809 0.000000
vt -0.330222 1.910910 0.000000
vt -0.332247 1.910777 0.000000
vt -0.333050 1.910835 0.000000
vt -0.976757 0.664084 0.000000
vt -0.972482 0.649956 0.000000
vt -0.965951 0.674647 0.000000
vt -0.950870 0.671083 0.000000
vt -0.946594 0.656956 0.000000
vt -0.957400 0.646392 0.000000
vt -0.977795 1.807539 0.000000
vt -0.895311 1.807692 0.000000
vt -0.997670 1.806944 0.000000
vt 0.041446 1.661426 0.000000
vt 0.032621 1.657262 0.000000
vt 0.050224 1.657252 0.000000
vt -0.977513 1.807752 0.000000
vt -0.997494 1.807165 0.000000
vt -0.894436 1.807896 0.000000
vt 0.048402 0.804806 0.000000
vt 0.066271 0.804472 0.000000
vt -0.894869 1.750936 0.000000
vt -0.893897 1.750948 0.000000
vt 0.039875 1.647451 0.000000
vt 0.051241 1.645396 0.000000
vt 0.050214 1.665506 0.000000
vt 0.039968 1.667561 0.000000
vt 0.028508 1.645396 0.000000
vt 0.029723 1.665505 0.000000
vt 0.021818 1.677774 0.000000
vt 0.057019 1.677774 0.000000
vt 0.055234 1.672479 0.000000
vt 0.023504 1.672479 0.000000
vt 0.068002 1.643931 0.000000
vt 0.069641 1.642679 0.000000
vt 0.066799 1.662789 0.000000
vt 0.065322 1.664042 0.000000
vt 0.010335 1.642679 0.000000
vt 0.011974 1.643931 0.000000
vt 0.014819 1.664042 0.000000
vt 0.013342 1.662789 0.000000
# 178 texture coords

g Sphere002
f 1/1/1 2/2/2 3/3/3 
f 1/1/1 3/3/3 4/4/4 
f 1/1/1 4/4/4 5/5/5 
f 6/6/6 7/7/7 8/8/7 
f 1/1/1 9/9/8 10/10/9 
f 1/1/1 10/10/9 2/2/2 
f 11/11/10 12/12/10 13/13/10 14/14/10 
f 15/15/11 16/16/12 17/17/13 18/18/14 
f 19/19/15 20/20/16 16/16/12 15/15/11 
f 21/21/17 22/22/18 20/20/16 19/19/15 
f 23/23/19 24/24/20 22/22/18 21/21/17 
f 25/25/21 26/26/22 24/24/20 23/23/19 
f 27/27/23 28/28/24 29/29/25 
f 27/27/23 30/30/26 28/28/24 
f 27/27/23 31/31/27 30/30/26 
f 27/27/23 32/32/28 31/31/27 
f 27/27/23 33/33/29 32/32/28 
f 27/27/23 29/29/25 33/33/29 
f 17/34/30 26/35/31 34/36/32 35/37/33 
f 18/38/34 17/34/30 35/37/33 36/39/35 
f 26/35/31 25/40/36 37/41/37 34/36/32 
f 25/42/38 18/43/38 36/44/38 37/45/38 
f 26/46/39 17/47/39 38/48/39 39/49/39 
f 17/47/40 16/50/40 40/51/40 38/48/40 
f 16/50/41 20/52/41 41/53/41 40/51/41 
f 20/52/42 22/54/42 42/55/42 41/53/42 
f 22/54/43 24/56/43 43/57/43 42/55/43 
f 24/56/44 26/46/44 39/49/44 43/57/44 
f 36/39/35 35/37/33 44/58/45 45/59/46 
f 35/37/33 34/36/32 46/60/47 44/58/45 
f 34/36/32 37/41/37 47/61/48 46/60/47 
f 37/62/49 36/63/49 45/64/49 47/65/49 
f 45/66/50 44/67/51 48/68/52 49/69/53 
f 44/67/51 46/70/54 50/71/55 48/68/52 
f 46/70/54 47/72/56 51/73/57 50/71/55 
f 47/72/58 45/66/58 49/69/58 51/73/58 
f 52/74/59 53/75/60 54/76/61 55/77/62 
f 53/75/60 56/78/63 57/79/64 54/76/61 
f 56/78/63 58/80/65 59/81/66 57/79/64 
f 58/82/67 52/83/67 55/84/67 59/85/67 
f 60/86/68 61/87/69 3/3/3 2/2/2 
f 38/88/70 40/89/71 62/90/72 63/91/73 
f 40/89/71 41/92/74 64/93/75 62/90/72 
f 65/94/76 66/95/77 8/8/77 7/7/76 
f 42/96/78 43/97/79 67/98/80 68/99/81 
f 43/97/79 39/100/82 69/101/83 67/98/80 
f 70/102/84 71/103/85 72/104/86 73/105/87 
f 71/103/85 74/106/88 75/107/89 72/104/86 
f 74/106/88 76/108/90 77/109/91 75/107/89 
f 76/110/92 70/111/92 73/112/92 77/113/92 
f 73/105/93 72/104/94 78/114/95 79/115/96 
f 72/104/94 75/107/97 80/116/98 78/114/95 
f 75/107/97 77/109/99 81/117/100 80/116/98 
f 77/113/101 73/112/101 79/118/101 81/119/101 
f 79/120/102 78/121/102 82/122/102 83/123/102 
f 78/121/103 80/124/103 84/125/103 82/122/103 
f 80/124/104 81/126/104 85/127/104 84/125/104 
f 81/126/105 79/120/105 83/123/105 85/127/105 
f 83/128/106 82/129/106 12/12/106 11/11/106 
f 82/129/107 84/130/107 13/13/107 12/12/107 
f 84/130/108 85/131/108 14/14/108 13/13/108 
f 85/131/109 83/128/109 11/11/109 14/14/109 
f 49/132/110 48/133/111 53/75/112 52/74/113 
f 48/133/111 50/134/114 56/78/115 53/75/112 
f 50/134/114 51/135/116 58/80/117 56/78/115 
f 51/136/118 49/137/118 52/83/118 58/82/118 
f 71/138/119 70/139/120 55/77/121 54/76/122 
f 74/140/123 71/138/119 54/76/122 57/79/124 
f 76/141/125 74/140/123 57/79/124 59/81/126 
f 70/111/127 76/110/127 59/85/127 55/84/127 
f 15/142/128 18/143/128 86/143/128 87/142/128 
f 19/144/129 15/142/129 87/142/129 88/144/129 
f 21/145/130 19/144/130 88/144/130 89/145/130 
f 23/146/131 21/145/131 89/145/131 90/146/131 
f 25/147/132 23/146/132 90/146/132 91/147/132 
f 18/143/133 25/147/133 91/147/133 86/143/133 
f 86/143/134 91/147/134 29/29/134 28/28/134 
f 87/142/135 86/143/135 28/28/135 30/30/135 
f 88/144/136 87/142/136 30/30/136 31/31/136 
f 89/145/137 88/144/137 31/31/137 32/32/137 
f 90/146/138 89/145/138 32/32/138 33/33/138 
f 91/147/139 90/146/139 33/33/139 29/29/139 
f 63/91/73 62/90/72 4/148/140 3/149/141 
f 62/90/72 64/93/75 5/150/142 4/148/140 
f 7/7/143 6/6/143 92/151/143 93/152/143 
f 6/6/144 8/8/144 94/153/144 92/151/144 
f 68/99/81 67/98/80 10/154/145 9/155/146 
f 67/98/80 69/101/83 2/156/147 10/154/145 
f 39/157/148 38/158/148 61/158/148 60/157/148 
f 38/88/70 63/91/73 3/149/141 61/159/149 
f 69/101/83 39/100/82 60/160/150 2/156/147 
f 1/161/151 5/162/151 93/163/151 92/164/151 
f 9/165/152 1/161/152 92/164/152 94/166/152 
f 41/167/153 42/168/153 66/169/153 65/170/153 
f 64/171/154 41/172/154 65/173/154 7/174/154 
f 42/175/155 68/176/155 8/177/155 66/178/155 
f 5/162/156 64/171/156 7/174/156 93/163/156 
f 68/176/157 9/165/157 94/166/157 8/177/157 
# 86 polygons - 12 triangles

