# 3ds Max Wavefront OBJ Exporter v0.97b - (c)2007 guruware
# File Created: 02.09.2017 15:28:07

#
# object Object010
#

v  -0.01639 0.54235 0.00787
v  0.18861 1.61478 -0.11049
v  0.22032 1.61478 0.00787
v  0.10197 1.61478 -0.19713
v  -0.01639 1.61478 -0.22884
v  -0.13474 1.61478 -0.19713
v  -0.22138 1.61478 -0.11049
v  -0.25309 1.61478 0.00787
v  -0.22138 1.61478 0.12622
v  -0.13474 1.61478 0.21286
v  -0.01639 1.61478 0.24457
v  0.10197 1.61478 0.21286
v  0.18861 1.61478 0.12622
v  0.28021 2.76710 -0.16337
v  0.32609 2.76710 0.00787
v  0.15485 2.76710 -0.28873
v  -0.01639 2.76710 -0.33461
v  -0.18762 2.76710 -0.28873
v  -0.31298 2.76710 -0.16337
v  -0.35886 2.76710 0.00787
v  -0.31298 2.76710 0.17910
v  -0.18762 2.76710 0.30446
v  -0.01639 2.76710 0.35034
v  0.15485 2.76710 0.30446
v  0.28021 2.76710 0.17910
v  0.28825 4.21588 -0.16801
v  0.33537 4.21588 0.00787
v  0.15949 4.21588 -0.29677
v  -0.01639 4.21588 -0.34389
v  -0.19226 4.21588 -0.29677
v  -0.32102 4.21588 -0.16801
v  -0.36814 4.21588 0.00787
v  -0.32102 4.21588 0.18374
v  -0.19226 4.21588 0.31250
v  -0.01639 4.21588 0.35962
v  0.15949 4.21588 0.31250
v  0.28825 4.21588 0.18374
v  0.24868 7.02780 -0.14517
v  0.28969 7.02780 0.00787
v  0.13665 7.02780 -0.25720
v  -0.01639 7.02780 -0.29821
v  -0.16942 7.02780 -0.25720
v  -0.28145 7.02780 -0.14517
v  -0.32246 7.02780 0.00787
v  -0.28145 7.02780 0.16090
v  -0.16942 7.02780 0.27293
v  -0.01639 7.02780 0.31394
v  0.13665 7.02780 0.27293
v  0.24868 7.02780 0.16090
v  0.21470 10.25845 -0.12555
v  0.25045 10.25845 0.00787
v  0.11703 10.25845 -0.22322
v  -0.01639 10.25845 -0.25897
v  -0.14980 10.25845 -0.22322
v  -0.24747 10.25845 -0.12555
v  -0.28322 10.25845 0.00787
v  -0.24747 10.25845 0.14128
v  -0.14980 10.25845 0.23895
v  -0.01639 10.25845 0.27470
v  0.11703 10.25845 0.23896
v  0.21470 10.25845 0.14129
v  0.16230 16.97307 -0.09530
v  0.18994 16.97307 0.00787
v  0.08678 16.97307 -0.17082
v  -0.01639 16.97307 -0.19846
v  -0.11955 16.97307 -0.17082
v  -0.19507 16.97307 -0.09530
v  -0.22271 16.97307 0.00787
v  -0.19507 16.97307 0.11103
v  -0.11955 16.97307 0.18655
v  -0.01639 16.97307 0.21419
v  0.08678 16.97307 0.18655
v  0.16230 16.97307 0.11103
v  0.15496 29.02059 -0.09106
v  0.18147 29.02059 0.00787
v  0.08254 29.02059 -0.16348
v  -0.01639 29.02059 -0.18999
v  -0.11531 29.02059 -0.16348
v  -0.18773 29.02059 -0.09106
v  -0.21424 29.02059 0.00787
v  -0.18773 29.02059 0.10679
v  -0.11531 29.02059 0.17921
v  -0.01639 29.02059 0.20572
v  0.08254 29.02059 0.17921
v  0.15496 29.02059 0.10679
v  0.13295 35.88793 -0.07835
v  0.15605 35.88793 0.00787
v  0.06983 35.88793 -0.14147
v  -0.01639 35.88793 -0.16457
v  -0.10260 35.88793 -0.14147
v  -0.16572 35.88793 -0.07835
v  -0.18882 35.88793 0.00787
v  -0.16572 35.88793 0.09408
v  -0.10260 35.88793 0.15720
v  -0.01639 35.88793 0.18030
v  0.06983 35.88793 0.15720
v  0.13295 35.88793 0.09408
v  0.14999 69.72612 -0.08819
v  0.17573 69.72612 0.00787
v  0.07967 69.72612 -0.15851
v  -0.01639 69.72612 -0.18425
v  -0.11244 69.72612 -0.15851
v  -0.18276 69.72612 -0.08819
v  -0.20850 69.72612 0.00787
v  -0.18276 69.72612 0.10392
v  -0.11244 69.72612 0.17424
v  -0.01639 69.72612 0.19998
v  0.07967 69.72612 0.17424
v  0.14999 69.72612 0.10392
v  0.13228 76.42661 -0.07797
v  0.15528 76.42661 0.00787
v  0.06945 76.42661 -0.14080
v  -0.01639 76.42661 -0.16380
v  -0.10222 76.42661 -0.14080
v  -0.16505 76.42661 -0.07797
v  -0.18805 76.42661 0.00787
v  -0.16505 76.42661 0.09370
v  -0.10222 76.42661 0.15653
v  -0.01639 76.42661 0.17953
v  0.06945 76.42661 0.15653
v  0.13228 76.42661 0.09370
v  0.08311 176.62492 -0.04958
v  0.09850 176.62492 0.00787
v  0.04106 176.62492 -0.09163
v  -0.01639 176.62492 -0.10702
v  -0.07383 176.62492 -0.09163
v  -0.11588 176.62492 -0.04958
v  -0.13127 176.62492 0.00787
v  -0.11588 176.62492 0.06531
v  -0.07383 176.62492 0.10736
v  -0.01639 176.62492 0.12275
v  0.04106 176.62492 0.10736
v  0.08311 176.62492 0.06531
v  0.05537 358.40851 -0.03356
v  0.06647 358.40851 0.00787
v  0.02504 358.40851 -0.06389
v  -0.01639 358.40851 -0.07499
v  -0.05781 358.40851 -0.06389
v  -0.08814 358.40851 -0.03356
v  -0.09924 358.40851 0.00787
v  -0.08814 358.40851 0.04929
v  -0.05781 358.40851 0.07962
v  -0.01639 358.40851 0.09072
v  0.02504 358.40851 0.07962
v  0.05537 358.40851 0.04929
v  -0.01639 358.81256 0.00787
# 146 vertices

vn 0.00001 -1.00000 0.00000
vn 0.71748 -0.56003 -0.41424
vn 0.82847 -0.56003 0.00000
vn 0.41424 -0.56003 -0.71748
vn -0.00000 -0.56003 -0.82847
vn -0.41424 -0.56003 -0.71748
vn -0.71748 -0.56003 -0.41424
vn -0.82847 -0.56003 -0.00000
vn -0.71748 -0.56003 0.41424
vn -0.41424 -0.56003 0.71748
vn -0.00000 -0.56003 0.82847
vn 0.41424 -0.56003 0.71748
vn 0.71748 -0.56003 0.41424
vn 0.95375 -0.30060 0.00000
vn 0.85007 -0.19110 -0.49079
vn 0.98157 -0.19110 0.00000
vn 0.82597 -0.30060 -0.47688
vn 0.49079 -0.19110 -0.85007
vn 0.47688 -0.30060 -0.82597
vn -0.00000 -0.19110 -0.98157
vn -0.00000 -0.30060 -0.95375
vn -0.49079 -0.19110 -0.85007
vn -0.47688 -0.30060 -0.82597
vn -0.85007 -0.19110 -0.49079
vn -0.82597 -0.30060 -0.47688
vn -0.98157 -0.19110 -0.00000
vn -0.95375 -0.30060 -0.00000
vn -0.85007 -0.19110 0.49079
vn -0.82597 -0.30060 0.47688
vn -0.49079 -0.19110 0.85006
vn -0.47688 -0.30060 0.82597
vn -0.00000 -0.19110 0.98157
vn -0.00000 -0.30060 0.95375
vn 0.49078 -0.19110 0.85007
vn 0.47687 -0.30060 0.82597
vn 0.85006 -0.19110 0.49079
vn 0.82597 -0.30060 0.47688
vn 0.86591 -0.01617 -0.49993
vn 0.99987 -0.01617 0.00000
vn 0.49993 -0.01617 -0.86591
vn -0.00000 -0.01617 -0.99987
vn -0.49993 -0.01617 -0.86591
vn -0.86591 -0.01617 -0.49993
vn -0.99987 -0.01617 -0.00000
vn -0.86591 -0.01617 0.49993
vn -0.49994 -0.01617 0.86591
vn -0.00000 -0.01617 0.99987
vn 0.49993 -0.01617 0.86591
vn 0.86591 -0.01617 0.49994
vn 0.86478 0.05360 -0.49928
vn 0.99856 0.05360 0.00000
vn 0.49928 0.05360 -0.86478
vn -0.00000 0.05360 -0.99856
vn -0.49928 0.05360 -0.86478
vn -0.86478 0.05360 -0.49928
vn -0.99856 0.05360 -0.00000
vn -0.86478 0.05360 0.49928
vn -0.49928 0.05360 0.86478
vn -0.00000 0.05360 0.99856
vn 0.49928 0.05360 0.86478
vn 0.86478 0.05360 0.49928
vn 0.86537 0.03882 -0.49962
vn 0.99925 0.03882 0.00000
vn 0.49962 0.03882 -0.86537
vn 0.00000 0.03882 -0.99925
vn -0.49962 0.03882 -0.86537
vn -0.86537 0.03882 -0.49962
vn -0.99925 0.03882 -0.00000
vn -0.86537 0.03882 0.49962
vn -0.49962 0.03882 0.86537
vn -0.00000 0.03882 0.99925
vn 0.49962 0.03882 0.86537
vn 0.86537 0.03882 0.49962
vn 0.86597 0.01181 -0.49997
vn 0.99993 0.01181 0.00000
vn 0.49997 0.01181 -0.86596
vn -0.00000 0.01181 -0.99993
vn -0.49996 0.01181 -0.86597
vn -0.86596 0.01181 -0.49997
vn -0.99993 0.01181 -0.00000
vn -0.86597 0.01181 0.49996
vn -0.49997 0.01181 0.86596
vn -0.00000 0.01181 0.99993
vn 0.49996 0.01181 0.86597
vn 0.86596 0.01181 0.49997
vn 0.86601 0.00581 -0.49999
vn 0.99998 0.00581 0.00000
vn 0.49999 0.00581 -0.86601
vn 0.00000 0.00581 -0.99998
vn -0.49999 0.00581 -0.86601
vn -0.86601 0.00581 -0.49999
vn -0.99998 0.00581 -0.00000
vn -0.86601 0.00581 0.49999
vn -0.49999 0.00581 0.86601
vn -0.00000 0.00581 0.99998
vn 0.49999 0.00581 0.86601
vn 0.86601 0.00581 0.49999
vn 0.86602 0.00399 -0.50000
vn 0.99999 0.00399 -0.00000
vn 0.50000 0.00399 -0.86602
vn -0.00000 0.00399 -0.99999
vn -0.50000 0.00399 -0.86602
vn -0.86602 0.00399 -0.50000
vn -0.99999 0.00399 -0.00000
vn -0.86602 0.00399 0.50000
vn -0.50000 0.00399 0.86602
vn -0.00000 0.00399 0.99999
vn 0.50000 0.00399 0.86602
vn 0.86602 0.00399 0.50000
vn 0.86602 0.00285 -0.50000
vn 1.00000 0.00285 0.00000
vn 0.50000 0.00285 -0.86602
vn 0.00000 0.00285 -1.00000
vn -0.50000 0.00285 -0.86602
vn -0.86602 0.00285 -0.50000
vn -1.00000 0.00285 -0.00000
vn -0.86602 0.00285 0.50000
vn -0.50000 0.00285 0.86602
vn -0.00000 0.00285 1.00000
vn 0.50000 0.00285 0.86602
vn 0.86602 0.00285 0.50000
vn 0.86602 0.00297 -0.50000
vn 1.00000 0.00297 -0.00000
vn 0.49999 0.00297 -0.86602
vn -0.00000 0.00297 -1.00000
vn -0.50000 0.00297 -0.86602
vn -0.86602 0.00297 -0.49999
vn -1.00000 0.00297 0.00000
vn -0.86602 0.00297 0.50000
vn -0.49999 0.00297 0.86602
vn 0.00000 0.00297 1.00000
vn 0.50000 0.00297 0.86602
vn 0.86602 0.00297 0.49999
vn 0.86603 0.00093 -0.49999
vn 1.00000 0.00093 0.00001
vn 0.50001 0.00093 -0.86602
vn 0.00001 0.00093 -1.00000
vn -0.49999 0.00093 -0.86603
vn -0.86602 0.00093 -0.50001
vn -1.00000 0.00093 -0.00001
vn -0.86603 0.00093 0.49999
vn -0.50001 0.00093 0.86602
vn -0.00001 0.00093 1.00000
vn 0.49999 0.00093 0.86603
vn 0.86602 0.00093 0.50001
vn 1.00000 0.00029 0.00002
vn 0.85495 0.15941 -0.49362
vn 0.98721 0.15941 -0.00001
vn 0.86604 0.00029 -0.49998
vn 0.49360 0.15941 -0.85496
vn 0.50002 0.00029 -0.86602
vn -0.00001 0.15941 -0.98721
vn 0.00002 0.00029 -1.00000
vn -0.49362 0.15941 -0.85495
vn -0.49998 0.00029 -0.86604
vn -0.85496 0.15941 -0.49360
vn -0.86602 0.00029 -0.50002
vn -0.98721 0.15941 0.00001
vn -1.00000 0.00029 -0.00002
vn -0.85495 0.15941 0.49361
vn -0.86604 0.00029 0.49998
vn -0.49360 0.15941 0.85496
vn -0.50002 0.00029 0.86601
vn 0.00001 0.15941 0.98721
vn -0.00002 0.00029 1.00000
vn 0.49361 0.15941 0.85495
vn 0.49998 0.00029 0.86604
vn 0.85496 0.15941 0.49360
vn 0.86601 0.00029 0.50002
vn -0.00000 1.00000 -0.00000
# 170 vertex normals

vt 0.14820 -0.90659 0.21613
vt 0.17184 -0.98987 0.39822
vt 0.17184 -0.90659 0.39822
vt 0.14820 0.00956 0.21613
vt 0.17184 -0.07373 0.39822
vt 0.17184 0.00956 0.39822
vt 0.14820 -0.07373 0.21613
vt 0.17184 -0.15701 0.39822
vt 0.14820 -0.15701 0.21613
vt 0.17184 -0.24030 0.39822
vt 0.14820 -0.24030 0.21613
vt 0.17184 -0.32358 0.39822
vt 0.14820 -0.32358 0.21613
vt 0.17184 -0.40687 0.39822
vt 0.14820 -0.40687 0.21613
vt 0.17184 -0.49016 0.39822
vt 0.14820 -0.49016 0.21613
vt 0.17184 -0.57344 0.39822
vt 0.14820 -0.57344 0.21613
vt 0.17184 -0.65673 0.39822
vt 0.14820 -0.65673 0.21613
vt 0.17184 -0.74001 0.39822
vt 0.14820 -0.74001 0.21613
vt 0.17184 -0.82330 0.39822
vt 0.14820 -0.82330 0.21613
vt 0.26248 -0.98987 0.49241
vt 0.26248 -0.90659 0.49241
vt 0.26248 -0.07373 0.49241
vt 0.26248 0.00956 0.49241
vt 0.26248 -0.15701 0.49241
vt 0.26248 -0.24030 0.49241
vt 0.26248 -0.32358 0.49241
vt 0.26248 -0.40687 0.49241
vt 0.26248 -0.49016 0.49241
vt 0.26248 -0.57344 0.49241
vt 0.26248 -0.65673 0.49241
vt 0.26248 -0.74001 0.49241
vt 0.26248 -0.82330 0.49241
vt 0.27364 -0.98987 0.50000
vt 0.27364 -0.90659 0.50000
vt 0.27364 -0.07373 0.50000
vt 0.27364 0.00956 0.50000
vt 0.27364 -0.15701 0.50000
vt 0.27364 -0.24030 0.50000
vt 0.27364 -0.32358 0.50000
vt 0.27364 -0.40687 0.50000
vt 0.27364 -0.49016 0.50000
vt 0.27364 -0.57344 0.50000
vt 0.27364 -0.65673 0.50000
vt 0.27364 -0.74001 0.50000
vt 0.27364 -0.82330 0.50000
vt 0.29128 -0.98987 0.43249
vt 0.29128 -0.90659 0.43249
vt 0.29128 -0.07373 0.43249
vt 0.29128 0.00956 0.43249
vt 0.29128 -0.15701 0.43249
vt 0.29128 -0.24030 0.43249
vt 0.29128 -0.32358 0.43249
vt 0.29128 -0.40687 0.43249
vt 0.29128 -0.49016 0.43249
vt 0.29128 -0.57344 0.43249
vt 0.29128 -0.65673 0.43249
vt 0.29128 -0.74001 0.43249
vt 0.29128 -0.82330 0.43249
vt 0.31524 -0.98987 0.35615
vt 0.31524 -0.90659 0.35615
vt 0.31524 -0.07373 0.35615
vt 0.31524 0.00956 0.35615
vt 0.31524 -0.15701 0.35615
vt 0.31524 -0.24030 0.35615
vt 0.31524 -0.32358 0.35615
vt 0.31524 -0.40687 0.35615
vt 0.31524 -0.49016 0.35615
vt 0.31524 -0.57344 0.35615
vt 0.31524 -0.65673 0.35615
vt 0.31524 -0.74001 0.35615
vt 0.31524 -0.82330 0.35615
vt 0.34391 -0.98987 0.29238
vt 0.34391 -0.90659 0.29238
vt 0.34391 -0.07373 0.29238
vt 0.34391 0.00956 0.29238
vt 0.34391 -0.15701 0.29238
vt 0.34391 -0.24030 0.29238
vt 0.34391 -0.32358 0.29238
vt 0.34391 -0.40687 0.29238
vt 0.34391 -0.49016 0.29238
vt 0.34391 -0.57344 0.29238
vt 0.34391 -0.65673 0.29238
vt 0.34391 -0.74001 0.29238
vt 0.34391 -0.82330 0.29238
vt 0.36839 -0.98987 0.25771
vt 0.36839 -0.90659 0.25771
vt 0.36839 -0.07373 0.25771
vt 0.36839 0.00956 0.25771
vt 0.36839 -0.15701 0.25771
vt 0.36839 -0.24030 0.25771
vt 0.36839 -0.32358 0.25771
vt 0.36839 -0.40687 0.25771
vt 0.36839 -0.49016 0.25771
vt 0.36839 -0.57344 0.25771
vt 0.36839 -0.65673 0.25771
vt 0.36839 -0.74001 0.25771
vt 0.36839 -0.82330 0.25771
vt 0.40370 -0.98987 0.22460
vt 0.40370 -0.90659 0.22460
vt 0.40370 -0.07373 0.22460
vt 0.40370 0.00956 0.22460
vt 0.40370 -0.15701 0.22460
vt 0.40370 -0.24030 0.22460
vt 0.40370 -0.32358 0.22460
vt 0.40370 -0.40687 0.22460
vt 0.40370 -0.49016 0.22460
vt 0.40370 -0.57344 0.22460
vt 0.40370 -0.65673 0.22460
vt 0.40370 -0.74001 0.22460
vt 0.40370 -0.82330 0.22460
vt 0.43844 -0.98987 0.20905
vt 0.43844 -0.90659 0.20905
vt 0.43844 -0.07373 0.20905
vt 0.43844 0.00956 0.20905
vt 0.43844 -0.15701 0.20905
vt 0.43844 -0.24030 0.20905
vt 0.43844 -0.32358 0.20905
vt 0.43844 -0.40687 0.20905
vt 0.43844 -0.49016 0.20905
vt 0.43844 -0.57344 0.20905
vt 0.43844 -0.65673 0.20905
vt 0.43844 -0.74001 0.20905
vt 0.43844 -0.82330 0.20905
vt 0.49022 -0.98987 0.18679
vt 0.49022 -0.90659 0.18679
vt 0.49022 -0.07373 0.18679
vt 0.49022 0.00956 0.18679
vt 0.49022 -0.15701 0.18679
vt 0.49022 -0.24030 0.18679
vt 0.49022 -0.32358 0.18679
vt 0.49022 -0.40687 0.18679
vt 0.49022 -0.49016 0.18679
vt 0.49022 -0.57344 0.18679
vt 0.49022 -0.65673 0.18679
vt 0.49022 -0.74001 0.18679
vt 0.49022 -0.82330 0.18679
vt 0.61749 -0.98987 0.12501
vt 0.61749 -0.90659 0.12501
vt 0.61749 -0.07373 0.12501
vt 0.61749 0.00956 0.12501
vt 0.61749 -0.15701 0.12501
vt 0.61749 -0.24030 0.12501
vt 0.61749 -0.32358 0.12501
vt 0.61749 -0.40687 0.12501
vt 0.61749 -0.49016 0.12501
vt 0.61749 -0.57344 0.12501
vt 0.61749 -0.65673 0.12501
vt 0.61749 -0.74001 0.12501
vt 0.61749 -0.82330 0.12501
vt 0.84219 -0.98987 0.09016
vt 0.84219 -0.90659 0.09016
vt 0.84219 -0.07373 0.09016
vt 0.84219 0.00956 0.09016
vt 0.84219 -0.15701 0.09016
vt 0.84219 -0.24030 0.09016
vt 0.84219 -0.32358 0.09016
vt 0.84219 -0.40687 0.09016
vt 0.84219 -0.49016 0.09016
vt 0.84219 -0.57344 0.09016
vt 0.84219 -0.65673 0.09016
vt 0.84219 -0.74001 0.09016
vt 0.84219 -0.82330 0.09016
vt 0.84731 -0.50473 0.00000
# 169 texture coords

g Object010
f 1/1/1 2/2/2 3/3/3 
f 1/4/1 4/5/4 2/6/2 
f 1/7/1 5/8/5 4/5/4 
f 1/9/1 6/10/6 5/8/5 
f 1/11/1 7/12/7 6/10/6 
f 1/13/1 8/14/8 7/12/7 
f 1/15/1 9/16/9 8/14/8 
f 1/17/1 10/18/10 9/16/9 
f 1/19/1 11/20/11 10/18/10 
f 1/21/1 12/22/12 11/20/11 
f 1/23/1 13/24/13 12/22/12 
f 1/25/1 3/3/3 13/24/13 
f 3/3/14 14/26/15 15/27/16 
f 3/3/14 2/2/17 14/26/15 
f 2/6/17 16/28/18 14/29/15 
f 2/6/17 4/5/19 16/28/18 
f 4/5/19 17/30/20 16/28/18 
f 4/5/19 5/8/21 17/30/20 
f 5/8/21 18/31/22 17/30/20 
f 5/8/21 6/10/23 18/31/22 
f 6/10/23 19/32/24 18/31/22 
f 6/10/23 7/12/25 19/32/24 
f 7/12/25 20/33/26 19/32/24 
f 7/12/25 8/14/27 20/33/26 
f 8/14/27 21/34/28 20/33/26 
f 8/14/27 9/16/29 21/34/28 
f 9/16/29 22/35/30 21/34/28 
f 9/16/29 10/18/31 22/35/30 
f 10/18/31 23/36/32 22/35/30 
f 10/18/31 11/20/33 23/36/32 
f 11/20/33 24/37/34 23/36/32 
f 11/20/33 12/22/35 24/37/34 
f 12/22/35 25/38/36 24/37/34 
f 12/22/35 13/24/37 25/38/36 
f 13/24/37 15/27/16 25/38/36 
f 13/24/37 3/3/14 15/27/16 
f 15/27/16 26/39/38 27/40/39 
f 15/27/16 14/26/15 26/39/38 
f 14/29/15 28/41/40 26/42/38 
f 14/29/15 16/28/18 28/41/40 
f 16/28/18 29/43/41 28/41/40 
f 16/28/18 17/30/20 29/43/41 
f 17/30/20 30/44/42 29/43/41 
f 17/30/20 18/31/22 30/44/42 
f 18/31/22 31/45/43 30/44/42 
f 18/31/22 19/32/24 31/45/43 
f 19/32/24 32/46/44 31/45/43 
f 19/32/24 20/33/26 32/46/44 
f 20/33/26 33/47/45 32/46/44 
f 20/33/26 21/34/28 33/47/45 
f 21/34/28 34/48/46 33/47/45 
f 21/34/28 22/35/30 34/48/46 
f 22/35/30 35/49/47 34/48/46 
f 22/35/30 23/36/32 35/49/47 
f 23/36/32 36/50/48 35/49/47 
f 23/36/32 24/37/34 36/50/48 
f 24/37/34 37/51/49 36/50/48 
f 24/37/34 25/38/36 37/51/49 
f 25/38/36 27/40/39 37/51/49 
f 25/38/36 15/27/16 27/40/39 
f 27/40/39 38/52/50 39/53/51 
f 27/40/39 26/39/38 38/52/50 
f 26/42/38 40/54/52 38/55/50 
f 26/42/38 28/41/40 40/54/52 
f 28/41/40 41/56/53 40/54/52 
f 28/41/40 29/43/41 41/56/53 
f 29/43/41 42/57/54 41/56/53 
f 29/43/41 30/44/42 42/57/54 
f 30/44/42 43/58/55 42/57/54 
f 30/44/42 31/45/43 43/58/55 
f 31/45/43 44/59/56 43/58/55 
f 31/45/43 32/46/44 44/59/56 
f 32/46/44 45/60/57 44/59/56 
f 32/46/44 33/47/45 45/60/57 
f 33/47/45 46/61/58 45/60/57 
f 33/47/45 34/48/46 46/61/58 
f 34/48/46 47/62/59 46/61/58 
f 34/48/46 35/49/47 47/62/59 
f 35/49/47 48/63/60 47/62/59 
f 35/49/47 36/50/48 48/63/60 
f 36/50/48 49/64/61 48/63/60 
f 36/50/48 37/51/49 49/64/61 
f 37/51/49 39/53/51 49/64/61 
f 37/51/49 27/40/39 39/53/51 
f 39/53/51 50/65/62 51/66/63 
f 39/53/51 38/52/50 50/65/62 
f 38/55/50 52/67/64 50/68/62 
f 38/55/50 40/54/52 52/67/64 
f 40/54/52 53/69/65 52/67/64 
f 40/54/52 41/56/53 53/69/65 
f 41/56/53 54/70/66 53/69/65 
f 41/56/53 42/57/54 54/70/66 
f 42/57/54 55/71/67 54/70/66 
f 42/57/54 43/58/55 55/71/67 
f 43/58/55 56/72/68 55/71/67 
f 43/58/55 44/59/56 56/72/68 
f 44/59/56 57/73/69 56/72/68 
f 44/59/56 45/60/57 57/73/69 
f 45/60/57 58/74/70 57/73/69 
f 45/60/57 46/61/58 58/74/70 
f 46/61/58 59/75/71 58/74/70 
f 46/61/58 47/62/59 59/75/71 
f 47/62/59 60/76/72 59/75/71 
f 47/62/59 48/63/60 60/76/72 
f 48/63/60 61/77/73 60/76/72 
f 48/63/60 49/64/61 61/77/73 
f 49/64/61 51/66/63 61/77/73 
f 49/64/61 39/53/51 51/66/63 
f 51/66/63 62/78/74 63/79/75 
f 51/66/63 50/65/62 62/78/74 
f 50/68/62 64/80/76 62/81/74 
f 50/68/62 52/67/64 64/80/76 
f 52/67/64 65/82/77 64/80/76 
f 52/67/64 53/69/65 65/82/77 
f 53/69/65 66/83/78 65/82/77 
f 53/69/65 54/70/66 66/83/78 
f 54/70/66 67/84/79 66/83/78 
f 54/70/66 55/71/67 67/84/79 
f 55/71/67 68/85/80 67/84/79 
f 55/71/67 56/72/68 68/85/80 
f 56/72/68 69/86/81 68/85/80 
f 56/72/68 57/73/69 69/86/81 
f 57/73/69 70/87/82 69/86/81 
f 57/73/69 58/74/70 70/87/82 
f 58/74/70 71/88/83 70/87/82 
f 58/74/70 59/75/71 71/88/83 
f 59/75/71 72/89/84 71/88/83 
f 59/75/71 60/76/72 72/89/84 
f 60/76/72 73/90/85 72/89/84 
f 60/76/72 61/77/73 73/90/85 
f 61/77/73 63/79/75 73/90/85 
f 61/77/73 51/66/63 63/79/75 
f 63/79/75 74/91/86 75/92/87 
f 63/79/75 62/78/74 74/91/86 
f 62/81/74 76/93/88 74/94/86 
f 62/81/74 64/80/76 76/93/88 
f 64/80/76 77/95/89 76/93/88 
f 64/80/76 65/82/77 77/95/89 
f 65/82/77 78/96/90 77/95/89 
f 65/82/77 66/83/78 78/96/90 
f 66/83/78 79/97/91 78/96/90 
f 66/83/78 67/84/79 79/97/91 
f 67/84/79 80/98/92 79/97/91 
f 67/84/79 68/85/80 80/98/92 
f 68/85/80 81/99/93 80/98/92 
f 68/85/80 69/86/81 81/99/93 
f 69/86/81 82/100/94 81/99/93 
f 69/86/81 70/87/82 82/100/94 
f 70/87/82 83/101/95 82/100/94 
f 70/87/82 71/88/83 83/101/95 
f 71/88/83 84/102/96 83/101/95 
f 71/88/83 72/89/84 84/102/96 
f 72/89/84 85/103/97 84/102/96 
f 72/89/84 73/90/85 85/103/97 
f 73/90/85 75/92/87 85/103/97 
f 73/90/85 63/79/75 75/92/87 
f 75/92/87 86/104/98 87/105/99 
f 75/92/87 74/91/86 86/104/98 
f 74/94/86 88/106/100 86/107/98 
f 74/94/86 76/93/88 88/106/100 
f 76/93/88 89/108/101 88/106/100 
f 76/93/88 77/95/89 89/108/101 
f 77/95/89 90/109/102 89/108/101 
f 77/95/89 78/96/90 90/109/102 
f 78/96/90 91/110/103 90/109/102 
f 78/96/90 79/97/91 91/110/103 
f 79/97/91 92/111/104 91/110/103 
f 79/97/91 80/98/92 92/111/104 
f 80/98/92 93/112/105 92/111/104 
f 80/98/92 81/99/93 93/112/105 
f 81/99/93 94/113/106 93/112/105 
f 81/99/93 82/100/94 94/113/106 
f 82/100/94 95/114/107 94/113/106 
f 82/100/94 83/101/95 95/114/107 
f 83/101/95 96/115/108 95/114/107 
f 83/101/95 84/102/96 96/115/108 
f 84/102/96 97/116/109 96/115/108 
f 84/102/96 85/103/97 97/116/109 
f 85/103/97 87/105/99 97/116/109 
f 85/103/97 75/92/87 87/105/99 
f 87/105/99 98/117/110 99/118/111 
f 87/105/99 86/104/98 98/117/110 
f 86/107/98 100/119/112 98/120/110 
f 86/107/98 88/106/100 100/119/112 
f 88/106/100 101/121/113 100/119/112 
f 88/106/100 89/108/101 101/121/113 
f 89/108/101 102/122/114 101/121/113 
f 89/108/101 90/109/102 102/122/114 
f 90/109/102 103/123/115 102/122/114 
f 90/109/102 91/110/103 103/123/115 
f 91/110/103 104/124/116 103/123/115 
f 91/110/103 92/111/104 104/124/116 
f 92/111/104 105/125/117 104/124/116 
f 92/111/104 93/112/105 105/125/117 
f 93/112/105 106/126/118 105/125/117 
f 93/112/105 94/113/106 106/126/118 
f 94/113/106 107/127/119 106/126/118 
f 94/113/106 95/114/107 107/127/119 
f 95/114/107 108/128/120 107/127/119 
f 95/114/107 96/115/108 108/128/120 
f 96/115/108 109/129/121 108/128/120 
f 96/115/108 97/116/109 109/129/121 
f 97/116/109 99/118/111 109/129/121 
f 97/116/109 87/105/99 99/118/111 
f 99/118/111 110/130/122 111/131/123 
f 99/118/111 98/117/110 110/130/122 
f 98/120/110 112/132/124 110/133/122 
f 98/120/110 100/119/112 112/132/124 
f 100/119/112 113/134/125 112/132/124 
f 100/119/112 101/121/113 113/134/125 
f 101/121/113 114/135/126 113/134/125 
f 101/121/113 102/122/114 114/135/126 
f 102/122/114 115/136/127 114/135/126 
f 102/122/114 103/123/115 115/136/127 
f 103/123/115 116/137/128 115/136/127 
f 103/123/115 104/124/116 116/137/128 
f 104/124/116 117/138/129 116/137/128 
f 104/124/116 105/125/117 117/138/129 
f 105/125/117 118/139/130 117/138/129 
f 105/125/117 106/126/118 118/139/130 
f 106/126/118 119/140/131 118/139/130 
f 106/126/118 107/127/119 119/140/131 
f 107/127/119 120/141/132 119/140/131 
f 107/127/119 108/128/120 120/141/132 
f 108/128/120 121/142/133 120/141/132 
f 108/128/120 109/129/121 121/142/133 
f 109/129/121 111/131/123 121/142/133 
f 109/129/121 99/118/111 111/131/123 
f 111/131/123 122/143/134 123/144/135 
f 111/131/123 110/130/122 122/143/134 
f 110/133/122 124/145/136 122/146/134 
f 110/133/122 112/132/124 124/145/136 
f 112/132/124 125/147/137 124/145/136 
f 112/132/124 113/134/125 125/147/137 
f 113/134/125 126/148/138 125/147/137 
f 113/134/125 114/135/126 126/148/138 
f 114/135/126 127/149/139 126/148/138 
f 114/135/126 115/136/127 127/149/139 
f 115/136/127 128/150/140 127/149/139 
f 115/136/127 116/137/128 128/150/140 
f 116/137/128 129/151/141 128/150/140 
f 116/137/128 117/138/129 129/151/141 
f 117/138/129 130/152/142 129/151/141 
f 117/138/129 118/139/130 130/152/142 
f 118/139/130 131/153/143 130/152/142 
f 118/139/130 119/140/131 131/153/143 
f 119/140/131 132/154/144 131/153/143 
f 119/140/131 120/141/132 132/154/144 
f 120/141/132 133/155/145 132/154/144 
f 120/141/132 121/142/133 133/155/145 
f 121/142/133 123/144/135 133/155/145 
f 121/142/133 111/131/123 123/144/135 
f 123/144/146 134/156/147 135/157/148 
f 123/144/146 122/143/149 134/156/147 
f 122/146/149 136/158/150 134/159/147 
f 122/146/149 124/145/151 136/158/150 
f 124/145/151 137/160/152 136/158/150 
f 124/145/151 125/147/153 137/160/152 
f 125/147/153 138/161/154 137/160/152 
f 125/147/153 126/148/155 138/161/154 
f 126/148/155 139/162/156 138/161/154 
f 126/148/155 127/149/157 139/162/156 
f 127/149/157 140/163/158 139/162/156 
f 127/149/157 128/150/159 140/163/158 
f 128/150/159 141/164/160 140/163/158 
f 128/150/159 129/151/161 141/164/160 
f 129/151/161 142/165/162 141/164/160 
f 129/151/161 130/152/163 142/165/162 
f 130/152/163 143/166/164 142/165/162 
f 130/152/163 131/153/165 143/166/164 
f 131/153/165 144/167/166 143/166/164 
f 131/153/165 132/154/167 144/167/166 
f 132/154/167 145/168/168 144/167/166 
f 132/154/167 133/155/169 145/168/168 
f 133/155/169 135/157/148 145/168/168 
f 133/155/169 123/144/146 135/157/148 
f 146/169/170 135/157/148 134/156/147 
f 146/169/170 134/159/147 136/158/150 
f 146/169/170 136/158/150 137/160/152 
f 146/169/170 137/160/152 138/161/154 
f 146/169/170 138/161/154 139/162/156 
f 146/169/170 139/162/156 140/163/158 
f 146/169/170 140/163/158 141/164/160 
f 146/169/170 141/164/160 142/165/162 
f 146/169/170 142/165/162 143/166/164 
f 146/169/170 143/166/164 144/167/166 
f 146/169/170 144/167/166 145/168/168 
f 146/169/170 145/168/168 135/157/148 
# 288 faces

