# 3ds Max Wavefront OBJ Exporter v0.97b - (c)2007 guruware
# File Created: 17.08.2017 21:43:54

#
# object heading
#

v  5.69956 0.85575 1.76732
v  5.77919 0.84572 -0.39764
v  5.18415 1.02718 -0.20559
v  5.24646 0.94389 1.72500
v  4.84395 0.88802 -0.11806
v  4.83151 0.89287 1.70571
v  4.95008 0.82146 -2.56651
v  4.45794 1.06613 -2.34638
v  4.16642 0.87849 -2.04737
v  3.31201 0.77973 -4.26585
v  2.98210 1.11049 -3.98678
v  2.66752 0.86463 -3.38655
v  0.98617 0.73762 -5.28572
v  0.90614 1.17480 -4.69174
v  0.80130 0.83952 -3.89284
v  -1.03577 0.73762 -5.27662
v  -0.94671 1.17480 -4.68448
v  -0.83776 0.83952 -3.88642
v  -3.35436 0.77973 -4.23972
v  -3.01703 1.11049 -3.96588
v  -2.69871 0.86463 -3.36803
v  -4.97907 0.82146 -2.52757
v  -4.48215 1.06613 -2.31397
v  -4.18842 0.87849 -2.01865
v  -5.79115 0.84572 -0.35226
v  -5.19557 1.02718 -0.16931
v  -4.85431 0.88802 -0.08593
v  -5.69453 0.85575 1.81201
v  -5.24089 0.94389 1.76066
v  -4.82613 0.89287 1.73726
# 30 vertices

vn 0.20908 0.97743 0.03031
vn 0.29097 0.95564 -0.04559
vn -0.01606 0.99952 0.02650
vn 0.02783 0.99938 0.02139
vn -0.34372 0.93565 0.08013
vn -0.12188 0.99254 -0.00347
vn -0.04333 -0.99906 0.00287
vn -0.04332 -0.99898 0.01302
vn -0.04048 -0.99907 0.01511
vn -0.04294 -0.99907 0.00305
vn 0.36770 0.90288 -0.22272
vn 0.05125 0.99858 -0.01469
vn -0.35224 0.90943 0.22104
vn -0.04689 -0.99802 0.04182
vn -0.04240 -0.99824 0.04155
vn 0.34677 0.78696 -0.51034
vn 0.12052 0.97280 -0.19782
vn -0.17948 0.93851 0.29493
vn -0.02933 -0.99700 0.07159
vn -0.03082 -0.99695 0.07170
vn 0.10927 0.80746 -0.57972
vn 0.04743 0.98529 -0.16419
vn -0.04885 0.92494 0.37697
vn -0.00292 -0.99736 0.07259
vn -0.00467 -0.99722 0.07430
vn -0.10985 0.80454 -0.58364
vn -0.04138 0.98548 -0.16465
vn 0.05876 0.92319 0.37982
vn 0.00668 -0.99722 0.07422
vn 0.00666 -0.99737 0.07215
vn -0.36497 0.79828 -0.47911
vn -0.14394 0.97245 -0.18334
vn 0.16886 0.93823 0.30202
vn 0.02531 -0.99676 0.07634
vn 0.02784 -0.99695 0.07296
vn -0.34563 0.91552 -0.20580
vn -0.05496 0.99805 -0.02959
vn 0.36479 0.90811 0.20557
vn 0.04372 -0.99824 0.04019
vn 0.04594 -0.99799 0.04376
vn -0.27025 0.96168 -0.04624
vn -0.00280 0.99989 0.01459
vn 0.36893 0.92754 0.05963
vn 0.04205 -0.99907 0.01002
vn 0.04374 -0.99896 0.01314
vn -0.19030 0.98172 0.00395
vn -0.05441 0.99817 0.02653
vn 0.15498 0.98713 0.03951
vn 0.04288 -0.99908 0.00200
vn 0.04333 -0.99906 0.00219
vn -0.06383 0.14590 0.98724
vn 0.07697 0.17557 0.98145
# 52 vertex normals

vt 0.78292 0.05003 0.85575
vt 0.78308 0.05480 0.84572
vt 0.78186 0.05438 1.02718
vt 0.78199 0.05012 0.94389
vt 0.78116 0.05418 0.88802
vt 0.78114 0.05017 0.89287
vt 0.78138 0.05958 0.82146
vt 0.78037 0.05909 1.06613
vt 0.77977 0.05843 0.87849
vt 0.77801 0.06332 0.77973
vt 0.77709 0.06270 1.11049
vt 0.77642 0.06173 0.86463
vt 0.77354 0.06533 0.73762
vt 0.77307 0.06426 1.17480
vt 0.77285 0.06273 0.83952
vt 0.76877 0.06531 0.73762
vt 0.76926 0.06424 1.17480
vt 0.76949 0.06271 0.83952
vt 0.76431 0.06326 0.77973
vt 0.76525 0.06266 1.11049
vt 0.76593 0.06169 0.86463
vt 0.76098 0.05949 0.82146
vt 0.76200 0.05902 1.06613
vt 0.76260 0.05837 0.87849
vt 0.75931 0.05470 0.84572
vt 0.76053 0.05430 1.02718
vt 0.76123 0.05411 0.88802
vt 0.75951 0.04993 0.85575
vt 0.76044 0.05005 0.94389
vt 0.76129 0.05010 0.89287
# 30 texture coords

g heading
f 1/1/1 2/2/2 3/3/3 
f 3/3/3 4/4/4 1/1/1 
f 4/4/4 3/3/3 5/5/5 
f 5/5/5 6/6/6 4/4/4 
f 6/6/7 5/5/8 2/2/9 
f 2/2/9 1/1/10 6/6/7 
f 2/2/2 7/7/11 8/8/12 
f 8/8/12 3/3/3 2/2/2 
f 3/3/3 8/8/12 9/9/13 
f 9/9/13 5/5/5 3/3/3 
f 5/5/8 9/9/14 7/7/15 
f 7/7/15 2/2/9 5/5/8 
f 7/7/11 10/10/16 11/11/17 
f 11/11/17 8/8/12 7/7/11 
f 8/8/12 11/11/17 12/12/18 
f 12/12/18 9/9/13 8/8/12 
f 9/9/14 12/12/19 10/10/20 
f 10/10/20 7/7/15 9/9/14 
f 10/10/16 13/13/21 14/14/22 
f 14/14/22 11/11/17 10/10/16 
f 11/11/17 14/14/22 15/15/23 
f 15/15/23 12/12/18 11/11/17 
f 12/12/19 15/15/24 13/13/25 
f 13/13/25 10/10/20 12/12/19 
f 13/13/21 16/16/26 17/17/27 
f 17/17/27 14/14/22 13/13/21 
f 14/14/22 17/17/27 18/18/28 
f 18/18/28 15/15/23 14/14/22 
f 15/15/24 18/18/29 16/16/30 
f 16/16/30 13/13/25 15/15/24 
f 16/16/26 19/19/31 20/20/32 
f 20/20/32 17/17/27 16/16/26 
f 17/17/27 20/20/32 21/21/33 
f 21/21/33 18/18/28 17/17/27 
f 18/18/29 21/21/34 19/19/35 
f 19/19/35 16/16/30 18/18/29 
f 19/19/31 22/22/36 23/23/37 
f 23/23/37 20/20/32 19/19/31 
f 20/20/32 23/23/37 24/24/38 
f 24/24/38 21/21/33 20/20/32 
f 21/21/34 24/24/39 22/22/40 
f 22/22/40 19/19/35 21/21/34 
f 22/22/36 25/25/41 26/26/42 
f 26/26/42 23/23/37 22/22/36 
f 23/23/37 26/26/42 27/27/43 
f 27/27/43 24/24/38 23/23/37 
f 24/24/39 27/27/44 25/25/45 
f 25/25/45 22/22/40 24/24/39 
f 25/25/41 28/28/46 29/29/47 
f 29/29/47 26/26/42 25/25/41 
f 26/26/42 29/29/47 30/30/48 
f 30/30/48 27/27/43 26/26/42 
f 27/27/44 30/30/49 28/28/50 
f 28/28/50 25/25/45 27/27/44 
f 4/4/51 6/6/51 1/1/51 
f 30/30/52 29/29/52 28/28/52 
# 56 faces

