# 3ds Max Wavefront OBJ Exporter v0.97b - (c)2007 guruware
# File Created: 02.09.2017 17:33:25

#
# object Object013
#

v  -0.01639 -0.00227 0.92896
v  0.30638 0.18408 1.40387
v  0.35631 -0.00227 1.40387
v  0.16996 0.32049 1.40387
v  -0.01639 0.37042 1.40387
v  -0.20273 0.32049 1.40387
v  -0.33915 0.18408 1.40387
v  -0.38908 -0.00227 1.40387
v  -0.33915 -0.18862 1.40387
v  -0.20273 -0.32503 1.40387
v  -0.01639 -0.37496 1.40387
v  0.16996 -0.32503 1.40387
v  0.30638 -0.18862 1.40387
v  0.36674 0.21893 1.91416
v  0.42601 -0.00227 1.91416
v  0.20481 0.38086 1.91416
v  -0.01639 0.44012 1.91416
v  -0.23758 0.38086 1.91416
v  -0.39951 0.21893 1.91416
v  -0.45878 -0.00227 1.91416
v  -0.39951 -0.22347 1.91416
v  -0.23758 -0.38540 1.91416
v  -0.01639 -0.44467 1.91416
v  0.20481 -0.38540 1.91416
v  0.36674 -0.22347 1.91416
v  0.25426 0.15399 2.55574
v  0.29613 -0.00227 2.55574
v  0.13987 0.26838 2.55574
v  -0.01639 0.31024 2.55574
v  -0.17264 0.26838 2.55574
v  -0.28703 0.15399 2.55574
v  -0.32890 -0.00227 2.55574
v  -0.28703 -0.15853 2.55574
v  -0.17264 -0.27292 2.55574
v  -0.01639 -0.31479 2.55574
v  0.13987 -0.27292 2.55574
v  0.25426 -0.15853 2.55574
v  0.15996 0.09954 3.41267
v  0.18724 -0.00227 3.41267
v  0.08543 0.17408 3.41267
v  -0.01639 0.20136 3.41267
v  -0.11820 0.17408 3.41267
v  -0.19273 0.09954 3.41267
v  -0.22001 -0.00227 3.41267
v  -0.19273 -0.10408 3.41267
v  -0.11820 -0.17862 3.41267
v  -0.01639 -0.20590 3.41267
v  0.08543 -0.17862 3.41267
v  0.15996 -0.10408 3.41267
v  0.09708 0.06324 4.25630
v  0.11463 -0.00227 4.25630
v  0.04912 0.11119 4.25630
v  -0.01639 0.12874 4.25630
v  -0.08189 0.11119 4.25630
v  -0.12985 0.06324 4.25630
v  -0.14740 -0.00227 4.25630
v  -0.12985 -0.06778 4.25630
v  -0.08189 -0.11573 4.25630
v  -0.01639 -0.13329 4.25630
v  0.04912 -0.11573 4.25630
v  0.09708 -0.06778 4.25630
v  0.04457 0.03292 4.94922
v  0.05400 -0.00227 4.94922
v  0.01881 0.05868 4.94922
v  -0.01639 0.06811 4.94922
v  -0.05158 0.05868 4.94922
v  -0.07734 0.03292 4.94922
v  -0.08677 -0.00227 4.94922
v  -0.07734 -0.03746 4.94922
v  -0.05158 -0.06323 4.94922
v  -0.01639 -0.07266 4.94922
v  0.01881 -0.06323 4.94922
v  0.04457 -0.03746 4.94922
v  0.04207 0.03148 5.50612
v  0.05111 -0.00227 5.50612
v  0.01736 0.05618 5.50612
v  -0.01639 0.06522 5.50612
v  -0.05013 0.05618 5.50612
v  -0.07484 0.03148 5.50612
v  -0.08388 -0.00227 5.50612
v  -0.07484 -0.03602 5.50612
v  -0.05013 -0.06072 5.50612
v  -0.01639 -0.06977 5.50612
v  0.01736 -0.06072 5.50612
v  0.04207 -0.03602 5.50612
# 85 vertices

vn 0.00000 -0.00000 -1.00000
vn 0.84567 0.48825 -0.21553
vn 0.97650 -0.00000 -0.21553
vn 0.48825 0.84567 -0.21553
vn -0.00000 0.97650 -0.21553
vn -0.48825 0.84567 -0.21553
vn -0.84567 0.48825 -0.21553
vn -0.97650 0.00000 -0.21553
vn -0.84567 -0.48825 -0.21553
vn -0.48825 -0.84567 -0.21553
vn -0.00000 -0.97650 -0.21553
vn 0.48825 -0.84567 -0.21553
vn 0.84567 -0.48825 -0.21553
vn 0.99581 0.00000 -0.09140
vn 0.86498 0.49939 -0.04918
vn 0.99879 -0.00000 -0.04918
vn 0.86240 0.49791 -0.09140
vn 0.49939 0.86498 -0.04918
vn 0.49791 0.86240 -0.09140
vn -0.00000 0.99879 -0.04918
vn -0.00000 0.99581 -0.09140
vn -0.49939 0.86498 -0.04918
vn -0.49791 0.86240 -0.09140
vn -0.86498 0.49939 -0.04918
vn -0.86240 0.49791 -0.09140
vn -0.99879 0.00000 -0.04918
vn -0.99581 0.00000 -0.09140
vn -0.86498 -0.49939 -0.04918
vn -0.86240 -0.49791 -0.09140
vn -0.49940 -0.86498 -0.04918
vn -0.49791 -0.86240 -0.09140
vn -0.00000 -0.99879 -0.04918
vn -0.00000 -0.99581 -0.09140
vn 0.49939 -0.86498 -0.04918
vn 0.49791 -0.86240 -0.09140
vn 0.86498 -0.49940 -0.04918
vn 0.86240 -0.49791 -0.09140
vn 0.86599 0.49998 0.00867
vn 0.99996 -0.00000 0.00867
vn 0.49998 0.86599 0.00867
vn -0.00000 0.99996 0.00867
vn -0.49998 0.86599 0.00867
vn -0.86599 0.49998 0.00867
vn -0.99996 0.00000 0.00867
vn -0.86599 -0.49998 0.00867
vn -0.49998 -0.86599 0.00867
vn -0.00000 -0.99996 0.00867
vn 0.49998 -0.86599 0.00867
vn 0.86599 -0.49998 0.00867
vn 0.86575 0.49984 0.02530
vn 0.99968 -0.00000 0.02530
vn 0.49984 0.86575 0.02530
vn -0.00000 0.99968 0.02530
vn -0.49984 0.86575 0.02530
vn -0.86575 0.49984 0.02530
vn -0.99968 0.00000 0.02530
vn -0.86575 -0.49984 0.02530
vn -0.49984 -0.86575 0.02530
vn -0.00000 -0.99968 0.02530
vn 0.49984 -0.86575 0.02530
vn 0.86575 -0.49984 0.02530
vn 0.86577 0.49985 0.02419
vn 0.99971 -0.00000 0.02419
vn 0.49985 0.86577 0.02419
vn -0.00000 0.99971 0.02419
vn -0.49985 0.86577 0.02419
vn -0.86577 0.49985 0.02419
vn -0.99971 0.00000 0.02419
vn -0.86577 -0.49985 0.02419
vn -0.49985 -0.86577 0.02419
vn -0.00000 -0.99971 0.02419
vn 0.49985 -0.86577 0.02419
vn 0.86577 -0.49985 0.02419
vn 0.86597 0.49997 0.01165
vn 0.99993 0.00000 0.01165
vn 0.49997 0.86597 0.01165
vn -0.00000 0.99993 0.01165
vn -0.49997 0.86597 0.01165
vn -0.86597 0.49997 0.01165
vn -0.99993 0.00000 0.01165
vn -0.86597 -0.49997 0.01165
vn -0.49997 -0.86597 0.01165
vn -0.00000 -0.99993 0.01165
vn 0.49997 -0.86597 0.01165
vn 0.86597 -0.49997 0.01165
vn 0.86603 0.50000 0.00085
vn 1.00000 -0.00000 0.00085
vn 0.50000 0.86603 0.00085
vn 0.00000 1.00000 0.00085
vn -0.50000 0.86603 0.00085
vn -0.86602 0.50000 0.00085
vn -1.00000 0.00000 0.00085
vn -0.86603 -0.50000 0.00085
vn -0.50000 -0.86602 0.00085
vn -0.00000 -1.00000 0.00085
vn 0.50000 -0.86603 0.00085
vn 0.86602 -0.50000 0.00085
# 97 vertex normals

vt 0.14820 -0.90659 0.21613
vt 0.17184 -0.98987 0.39822
vt 0.17184 -0.90659 0.39822
vt 0.14820 0.00956 0.21613
vt 0.17184 -0.07373 0.39822
vt 0.17184 0.00956 0.39822
vt 0.14820 -0.07373 0.21613
vt 0.17184 -0.15701 0.39822
vt 0.14820 -0.15701 0.21613
vt 0.17184 -0.24030 0.39822
vt 0.14820 -0.24030 0.21613
vt 0.17184 -0.32358 0.39822
vt 0.14820 -0.32358 0.21613
vt 0.17184 -0.40687 0.39822
vt 0.14820 -0.40687 0.21613
vt 0.17184 -0.49016 0.39822
vt 0.14820 -0.49016 0.21613
vt 0.17184 -0.57344 0.39822
vt 0.14820 -0.57344 0.21613
vt 0.17184 -0.65673 0.39822
vt 0.14820 -0.65673 0.21613
vt 0.17184 -0.74001 0.39822
vt 0.14820 -0.74001 0.21613
vt 0.17184 -0.82330 0.39822
vt 0.14820 -0.82330 0.21613
vt 0.26248 -0.98987 0.49241
vt 0.26248 -0.90659 0.49241
vt 0.26248 -0.07373 0.49241
vt 0.26248 0.00956 0.49241
vt 0.26248 -0.15701 0.49241
vt 0.26248 -0.24030 0.49241
vt 0.26248 -0.32358 0.49241
vt 0.26248 -0.40687 0.49241
vt 0.26248 -0.49016 0.49241
vt 0.26248 -0.57344 0.49241
vt 0.26248 -0.65673 0.49241
vt 0.26248 -0.74001 0.49241
vt 0.26248 -0.82330 0.49241
vt 0.27364 -0.98987 0.50000
vt 0.27364 -0.90659 0.50000
vt 0.27364 -0.07373 0.50000
vt 0.27364 0.00956 0.50000
vt 0.27364 -0.15701 0.50000
vt 0.27364 -0.24030 0.50000
vt 0.27364 -0.32358 0.50000
vt 0.27364 -0.40687 0.50000
vt 0.27364 -0.49016 0.50000
vt 0.27364 -0.57344 0.50000
vt 0.27364 -0.65673 0.50000
vt 0.27364 -0.74001 0.50000
vt 0.27364 -0.82330 0.50000
vt 0.29128 -0.98987 0.43249
vt 0.29128 -0.90659 0.43249
vt 0.29128 -0.07373 0.43249
vt 0.29128 0.00956 0.43249
vt 0.29128 -0.15701 0.43249
vt 0.29128 -0.24030 0.43249
vt 0.29128 -0.32358 0.43249
vt 0.29128 -0.40687 0.43249
vt 0.29128 -0.49016 0.43249
vt 0.29128 -0.57344 0.43249
vt 0.29128 -0.65673 0.43249
vt 0.29128 -0.74001 0.43249
vt 0.29128 -0.82330 0.43249
vt 0.31524 -0.98987 0.35615
vt 0.31524 -0.90659 0.35615
vt 0.31524 -0.07373 0.35615
vt 0.31524 0.00956 0.35615
vt 0.31524 -0.15701 0.35615
vt 0.31524 -0.24030 0.35615
vt 0.31524 -0.32358 0.35615
vt 0.31524 -0.40687 0.35615
vt 0.31524 -0.49016 0.35615
vt 0.31524 -0.57344 0.35615
vt 0.31524 -0.65673 0.35615
vt 0.31524 -0.74001 0.35615
vt 0.31524 -0.82330 0.35615
vt 0.34391 -0.98987 0.29238
vt 0.34391 -0.90659 0.29238
vt 0.34391 -0.07373 0.29238
vt 0.34391 0.00956 0.29238
vt 0.34391 -0.15701 0.29238
vt 0.34391 -0.24030 0.29238
vt 0.34391 -0.32358 0.29238
vt 0.34391 -0.40687 0.29238
vt 0.34391 -0.49016 0.29238
vt 0.34391 -0.57344 0.29238
vt 0.34391 -0.65673 0.29238
vt 0.34391 -0.74001 0.29238
vt 0.34391 -0.82330 0.29238
vt 0.36839 -0.98987 0.25771
vt 0.36839 -0.90659 0.25771
vt 0.36839 -0.07373 0.25771
vt 0.36839 0.00956 0.25771
vt 0.36839 -0.15701 0.25771
vt 0.36839 -0.24030 0.25771
vt 0.36839 -0.32358 0.25771
vt 0.36839 -0.40687 0.25771
vt 0.36839 -0.49016 0.25771
vt 0.36839 -0.57344 0.25771
vt 0.36839 -0.65673 0.25771
vt 0.36839 -0.74001 0.25771
vt 0.36839 -0.82330 0.25771
# 103 texture coords

g Object013
f 1/1/1 2/2/2 3/3/3 
f 1/4/1 4/5/4 2/6/2 
f 1/7/1 5/8/5 4/5/4 
f 1/9/1 6/10/6 5/8/5 
f 1/11/1 7/12/7 6/10/6 
f 1/13/1 8/14/8 7/12/7 
f 1/15/1 9/16/9 8/14/8 
f 1/17/1 10/18/10 9/16/9 
f 1/19/1 11/20/11 10/18/10 
f 1/21/1 12/22/12 11/20/11 
f 1/23/1 13/24/13 12/22/12 
f 1/25/1 3/3/3 13/24/13 
f 3/3/14 14/26/15 15/27/16 
f 3/3/14 2/2/17 14/26/15 
f 2/6/17 16/28/18 14/29/15 
f 2/6/17 4/5/19 16/28/18 
f 4/5/19 17/30/20 16/28/18 
f 4/5/19 5/8/21 17/30/20 
f 5/8/21 18/31/22 17/30/20 
f 5/8/21 6/10/23 18/31/22 
f 6/10/23 19/32/24 18/31/22 
f 6/10/23 7/12/25 19/32/24 
f 7/12/25 20/33/26 19/32/24 
f 7/12/25 8/14/27 20/33/26 
f 8/14/27 21/34/28 20/33/26 
f 8/14/27 9/16/29 21/34/28 
f 9/16/29 22/35/30 21/34/28 
f 9/16/29 10/18/31 22/35/30 
f 10/18/31 23/36/32 22/35/30 
f 10/18/31 11/20/33 23/36/32 
f 11/20/33 24/37/34 23/36/32 
f 11/20/33 12/22/35 24/37/34 
f 12/22/35 25/38/36 24/37/34 
f 12/22/35 13/24/37 25/38/36 
f 13/24/37 15/27/16 25/38/36 
f 13/24/37 3/3/14 15/27/16 
f 15/27/16 26/39/38 27/40/39 
f 15/27/16 14/26/15 26/39/38 
f 14/29/15 28/41/40 26/42/38 
f 14/29/15 16/28/18 28/41/40 
f 16/28/18 29/43/41 28/41/40 
f 16/28/18 17/30/20 29/43/41 
f 17/30/20 30/44/42 29/43/41 
f 17/30/20 18/31/22 30/44/42 
f 18/31/22 31/45/43 30/44/42 
f 18/31/22 19/32/24 31/45/43 
f 19/32/24 32/46/44 31/45/43 
f 19/32/24 20/33/26 32/46/44 
f 20/33/26 33/47/45 32/46/44 
f 20/33/26 21/34/28 33/47/45 
f 21/34/28 34/48/46 33/47/45 
f 21/34/28 22/35/30 34/48/46 
f 22/35/30 35/49/47 34/48/46 
f 22/35/30 23/36/32 35/49/47 
f 23/36/32 36/50/48 35/49/47 
f 23/36/32 24/37/34 36/50/48 
f 24/37/34 37/51/49 36/50/48 
f 24/37/34 25/38/36 37/51/49 
f 25/38/36 27/40/39 37/51/49 
f 25/38/36 15/27/16 27/40/39 
f 27/40/39 38/52/50 39/53/51 
f 27/40/39 26/39/38 38/52/50 
f 26/42/38 40/54/52 38/55/50 
f 26/42/38 28/41/40 40/54/52 
f 28/41/40 41/56/53 40/54/52 
f 28/41/40 29/43/41 41/56/53 
f 29/43/41 42/57/54 41/56/53 
f 29/43/41 30/44/42 42/57/54 
f 30/44/42 43/58/55 42/57/54 
f 30/44/42 31/45/43 43/58/55 
f 31/45/43 44/59/56 43/58/55 
f 31/45/43 32/46/44 44/59/56 
f 32/46/44 45/60/57 44/59/56 
f 32/46/44 33/47/45 45/60/57 
f 33/47/45 46/61/58 45/60/57 
f 33/47/45 34/48/46 46/61/58 
f 34/48/46 47/62/59 46/61/58 
f 34/48/46 35/49/47 47/62/59 
f 35/49/47 48/63/60 47/62/59 
f 35/49/47 36/50/48 48/63/60 
f 36/50/48 49/64/61 48/63/60 
f 36/50/48 37/51/49 49/64/61 
f 37/51/49 39/53/51 49/64/61 
f 37/51/49 27/40/39 39/53/51 
f 39/53/51 50/65/62 51/66/63 
f 39/53/51 38/52/50 50/65/62 
f 38/55/50 52/67/64 50/68/62 
f 38/55/50 40/54/52 52/67/64 
f 40/54/52 53/69/65 52/67/64 
f 40/54/52 41/56/53 53/69/65 
f 41/56/53 54/70/66 53/69/65 
f 41/56/53 42/57/54 54/70/66 
f 42/57/54 55/71/67 54/70/66 
f 42/57/54 43/58/55 55/71/67 
f 43/58/55 56/72/68 55/71/67 
f 43/58/55 44/59/56 56/72/68 
f 44/59/56 57/73/69 56/72/68 
f 44/59/56 45/60/57 57/73/69 
f 45/60/57 58/74/70 57/73/69 
f 45/60/57 46/61/58 58/74/70 
f 46/61/58 59/75/71 58/74/70 
f 46/61/58 47/62/59 59/75/71 
f 47/62/59 60/76/72 59/75/71 
f 47/62/59 48/63/60 60/76/72 
f 48/63/60 61/77/73 60/76/72 
f 48/63/60 49/64/61 61/77/73 
f 49/64/61 51/66/63 61/77/73 
f 49/64/61 39/53/51 51/66/63 
f 51/66/63 62/78/74 63/79/75 
f 51/66/63 50/65/62 62/78/74 
f 50/68/62 64/80/76 62/81/74 
f 50/68/62 52/67/64 64/80/76 
f 52/67/64 65/82/77 64/80/76 
f 52/67/64 53/69/65 65/82/77 
f 53/69/65 66/83/78 65/82/77 
f 53/69/65 54/70/66 66/83/78 
f 54/70/66 67/84/79 66/83/78 
f 54/70/66 55/71/67 67/84/79 
f 55/71/67 68/85/80 67/84/79 
f 55/71/67 56/72/68 68/85/80 
f 56/72/68 69/86/81 68/85/80 
f 56/72/68 57/73/69 69/86/81 
f 57/73/69 70/87/82 69/86/81 
f 57/73/69 58/74/70 70/87/82 
f 58/74/70 71/88/83 70/87/82 
f 58/74/70 59/75/71 71/88/83 
f 59/75/71 72/89/84 71/88/83 
f 59/75/71 60/76/72 72/89/84 
f 60/76/72 73/90/85 72/89/84 
f 60/76/72 61/77/73 73/90/85 
f 61/77/73 63/79/75 73/90/85 
f 61/77/73 51/66/63 63/79/75 
f 63/79/75 74/91/86 75/92/87 
f 63/79/75 62/78/74 74/91/86 
f 62/81/74 76/93/88 74/94/86 
f 62/81/74 64/80/76 76/93/88 
f 64/80/76 77/95/89 76/93/88 
f 64/80/76 65/82/77 77/95/89 
f 65/82/77 78/96/90 77/95/89 
f 65/82/77 66/83/78 78/96/90 
f 66/83/78 79/97/91 78/96/90 
f 66/83/78 67/84/79 79/97/91 
f 67/84/79 80/98/92 79/97/91 
f 67/84/79 68/85/80 80/98/92 
f 68/85/80 81/99/93 80/98/92 
f 68/85/80 69/86/81 81/99/93 
f 69/86/81 82/100/94 81/99/93 
f 69/86/81 70/87/82 82/100/94 
f 70/87/82 83/101/95 82/100/94 
f 70/87/82 71/88/83 83/101/95 
f 71/88/83 84/102/96 83/101/95 
f 71/88/83 72/89/84 84/102/96 
f 72/89/84 85/103/97 84/102/96 
f 72/89/84 73/90/85 85/103/97 
f 73/90/85 75/92/87 85/103/97 
f 73/90/85 63/79/75 75/92/87 
# 156 faces

