# 3ds Max Wavefront OBJ Exporter v0.97b - (c)2007 guruware
# File Created: 25.08.2017 00:29:31

#
# object arrow_outer
#

v  0.00930 0.13004 1.23831
v  0.24634 0.13004 1.26687
v  0.28607 0.13004 1.02794
v  0.00930 0.13004 1.01581
v  0.00924 0.07409 0.95805
v  0.23162 0.07409 0.97018
v  0.17706 0.07409 0.25659
v  0.00924 0.07409 0.25659
v  0.48953 0.13004 1.02794
v  0.37103 0.13004 0.25391
v  0.21816 0.13004 0.25391
v  0.16842 0.07409 -0.43637
v  0.00924 0.07409 -0.43637
v  0.36660 0.13004 -0.26452
v  0.20740 0.13004 -0.38375
v  0.33723 0.07409 -0.51421
v  0.00891 0.07409 -0.62217
v  0.63278 0.13004 -0.44042
v  0.38082 0.13004 -0.46140
v  0.17362 0.07409 -1.30659
v  0.00890 0.07409 -1.30829
v  0.56042 0.07409 -0.48488
v  0.71638 0.13004 -0.26452
v  0.86481 0.13004 -0.48901
v  0.19611 0.13004 -1.35705
v  0.37176 0.13004 -1.30137
v  0.00929 0.13004 -1.35875
v  0.14433 0.13004 -1.51900
v  0.00926 0.13004 -1.51900
v  0.24879 0.13004 -1.50137
v  0.00929 0.01719 1.32619
v  0.34071 0.01724 1.35549
v  0.59332 0.01724 1.37999
v  0.48323 0.13004 1.29075
v  0.60958 0.01724 1.11036
v  0.46686 0.01724 0.25391
v  0.46127 0.01724 -0.17401
v  0.84183 0.01723 -0.17401
v  1.00021 0.01724 -0.48901
v  0.47445 0.01724 -1.39415
v  0.23193 0.01724 -1.66064
v  0.00926 0.01719 -1.66064
v  0.34332 0.01724 -1.64254
v  -0.22789 0.13004 1.26687
v  -0.26762 0.13004 1.02794
v  -0.21317 0.07409 0.97018
v  -0.15861 0.07409 0.25659
v  -0.47108 0.13004 1.02794
v  -0.35258 0.13004 0.25391
v  -0.19971 0.13004 0.25391
v  -0.14997 0.07409 -0.43637
v  -0.34816 0.13004 -0.26452
v  -0.18896 0.13004 -0.38375
v  -0.31878 0.07409 -0.51421
v  -0.61434 0.13004 -0.44042
v  -0.36237 0.13004 -0.46140
v  -0.15517 0.07409 -1.30659
v  -0.54197 0.07409 -0.48488
v  -0.69793 0.13004 -0.26452
v  -0.84636 0.13004 -0.48901
v  -0.17766 0.13004 -1.35705
v  -0.35331 0.13004 -1.30137
v  -0.12589 0.13004 -1.51900
v  -0.23034 0.13004 -1.50137
v  -0.32226 0.01724 1.35549
v  -0.57487 0.01724 1.37999
v  -0.46478 0.13004 1.29075
v  -0.59113 0.01724 1.11036
v  -0.44842 0.01724 0.25391
v  -0.44282 0.01724 -0.17401
v  -0.98176 0.01724 -0.48901
v  -0.82339 0.01723 -0.17401
v  -0.45600 0.01724 -1.39415
v  -0.21348 0.01724 -1.66064
v  -0.32487 0.01724 -1.64254
v  0.00915 -0.09890 1.23831
v  -0.22789 -0.09890 1.26687
v  -0.26762 -0.09890 1.02794
v  0.00915 -0.09890 1.01581
v  0.00921 -0.04294 0.95805
v  -0.21317 -0.04294 0.97018
v  -0.15861 -0.04294 0.25659
v  0.00921 -0.04294 0.25659
v  -0.47108 -0.09890 1.02794
v  -0.35258 -0.09890 0.25391
v  -0.19971 -0.09890 0.25391
v  -0.14997 -0.04294 -0.43637
v  0.00921 -0.04294 -0.43637
v  -0.34816 -0.09890 -0.26452
v  -0.18896 -0.09890 -0.38375
v  -0.31878 -0.04294 -0.51421
v  0.00954 -0.04294 -0.62217
v  -0.61434 -0.09890 -0.44042
v  -0.36237 -0.09890 -0.46140
v  -0.15517 -0.04294 -1.30659
v  0.00955 -0.04294 -1.30829
v  -0.54197 -0.04294 -0.48488
v  -0.69793 -0.09890 -0.26452
v  -0.84636 -0.09890 -0.48901
v  -0.17766 -0.09890 -1.35705
v  -0.35331 -0.09890 -1.30137
v  0.00916 -0.09890 -1.35875
v  -0.12589 -0.09890 -1.51900
v  0.00919 -0.09890 -1.51900
v  -0.23034 -0.09890 -1.50137
v  -0.46478 -0.09890 1.29075
v  0.24634 -0.09890 1.26687
v  0.28607 -0.09890 1.02794
v  0.23162 -0.04294 0.97018
v  0.17706 -0.04294 0.25659
v  0.48953 -0.09890 1.02794
v  0.37103 -0.09890 0.25391
v  0.21816 -0.09890 0.25391
v  0.16842 -0.04294 -0.43637
v  0.36660 -0.09890 -0.26452
v  0.20740 -0.09890 -0.38375
v  0.33723 -0.04294 -0.51421
v  0.63278 -0.09890 -0.44042
v  0.38082 -0.09890 -0.46140
v  0.17362 -0.04294 -1.30659
v  0.56042 -0.04294 -0.48488
v  0.71638 -0.09890 -0.26452
v  0.86481 -0.09890 -0.48901
v  0.19611 -0.09890 -1.35705
v  0.37176 -0.09890 -1.30137
v  0.14433 -0.09890 -1.51900
v  0.24879 -0.09890 -1.50137
v  0.48323 -0.09890 1.29075
v  0.37345 0.13584 1.15129
v  -0.35500 0.13584 1.15129
v  -0.35500 -0.10469 1.15129
v  0.37345 -0.10469 1.15129
# 132 vertices

vn 0.00000 1.00000 -0.00000
vn 0.00000 1.00000 0.00000
vn -0.00000 1.00000 -0.00000
vn 0.00002 0.71510 -0.69902
vn 0.03112 0.70308 -0.71043
vn 0.03220 0.70543 -0.70804
vn -0.00001 0.71825 -0.69578
vn -0.75042 0.65838 0.05830
vn -0.80498 0.59193 0.04021
vn -0.80261 0.59516 0.04007
vn -0.74421 0.66552 0.05690
vn -0.82649 0.56278 0.01394
vn -0.82424 0.56608 0.01351
vn -0.27234 0.75600 -0.59523
vn -0.04585 0.69563 -0.71694
vn -0.14011 0.73314 -0.66549
vn -0.27532 0.75344 -0.59710
vn 0.06844 0.56483 -0.82236
vn 0.07361 0.57750 -0.81306
vn -0.00737 0.67090 0.74151
vn -0.00002 0.66972 0.74261
vn 0.00002 0.67013 0.74224
vn -0.00764 0.67139 0.74106
vn -0.69801 0.63607 0.32894
vn -0.72196 0.60041 0.34393
vn -0.72103 0.60185 0.34335
vn -0.69557 0.63951 0.32742
vn -0.00004 0.00712 0.99997
vn -0.09572 0.00682 0.99539
vn -0.07902 0.58252 0.80897
vn -0.00003 0.61441 0.78899
vn -0.09655 0.00291 0.99532
vn -0.08037 0.57058 0.81730
vn 0.99925 0.00449 0.03849
vn 0.99986 0.00701 -0.01548
vn 0.70950 0.70201 -0.06158
vn 0.70882 0.70518 0.01699
vn 0.99591 0.00740 -0.09000
vn 0.75847 0.64862 -0.06343
vn 0.99988 0.00864 -0.01307
vn 0.76779 0.64064 -0.00909
vn 0.56438 0.00586 0.82549
vn 0.89342 0.00536 0.44919
vn 0.57509 0.75598 0.31268
vn 0.21579 0.74571 0.63036
vn 0.85621 0.00501 -0.51660
vn 0.86526 0.00718 -0.50126
vn 0.55128 0.76655 -0.32939
vn 0.59664 0.71617 -0.36212
vn 0.09898 0.00679 -0.99507
vn 0.00000 0.00681 -0.99998
vn -0.00000 0.78215 -0.62309
vn 0.03714 0.79311 -0.60795
vn -0.00000 0.00859 0.99996
vn 0.00000 0.62581 0.77997
vn 0.16231 0.00513 -0.98673
vn 0.09799 0.80845 -0.58036
vn 0.88432 0.00485 -0.46685
vn 0.53688 0.78828 -0.30063
vn -0.00000 1.00000 0.00000
vn -0.03110 0.70309 -0.71042
vn -0.03218 0.70545 -0.70803
vn 0.80498 0.59193 0.04021
vn 0.75042 0.65838 0.05830
vn 0.80261 0.59516 0.04007
vn 0.74421 0.66552 0.05690
vn 0.82649 0.56278 0.01394
vn 0.82424 0.56608 0.01351
vn 0.04585 0.69563 -0.71694
vn 0.27234 0.75600 -0.59523
vn 0.14011 0.73314 -0.66549
vn 0.27532 0.75344 -0.59710
vn -0.06844 0.56483 -0.82236
vn -0.07361 0.57750 -0.81306
vn 0.00739 0.67088 0.74153
vn 0.00767 0.67140 0.74106
vn 0.72196 0.60041 0.34393
vn 0.69801 0.63607 0.32894
vn 0.72103 0.60185 0.34335
vn 0.69557 0.63951 0.32742
vn 0.09571 0.00682 0.99539
vn 0.07899 0.58252 0.80897
vn 0.09655 0.00291 0.99532
vn 0.08037 0.57058 0.81730
vn -0.99986 0.00701 -0.01548
vn -0.99925 0.00449 0.03849
vn -0.70950 0.70201 -0.06158
vn -0.70882 0.70518 0.01699
vn -0.99591 0.00740 -0.09000
vn -0.75847 0.64862 -0.06343
vn -0.99988 0.00864 -0.01307
vn -0.76779 0.64064 -0.00909
vn -0.89342 0.00536 0.44919
vn -0.56438 0.00586 0.82549
vn -0.57509 0.75598 0.31268
vn -0.21579 0.74571 0.63036
vn -0.86526 0.00718 -0.50126
vn -0.85621 0.00501 -0.51660
vn -0.55128 0.76655 -0.32939
vn -0.59664 0.71617 -0.36212
vn -0.09898 0.00679 -0.99507
vn -0.03714 0.79311 -0.60795
vn -0.00000 0.00860 0.99996
vn -0.00000 0.62581 0.77997
vn -0.16231 0.00513 -0.98673
vn -0.09799 0.80845 -0.58036
vn -0.88432 0.00485 -0.46685
vn -0.53688 0.78828 -0.30063
vn -0.00000 -1.00000 0.00000
vn 0.00000 -1.00000 0.00000
vn 0.00000 -1.00000 -0.00000
vn -0.00000 -1.00000 -0.00000
vn -0.00002 -0.71510 -0.69902
vn -0.03112 -0.70308 -0.71043
vn -0.03220 -0.70543 -0.70804
vn 0.00001 -0.71825 -0.69578
vn 0.75042 -0.65838 0.05830
vn 0.80498 -0.59193 0.04021
vn 0.80261 -0.59516 0.04007
vn 0.74421 -0.66552 0.05690
vn 0.82649 -0.56278 0.01394
vn 0.82424 -0.56608 0.01351
vn 0.27234 -0.75600 -0.59523
vn 0.04585 -0.69563 -0.71694
vn 0.14011 -0.73314 -0.66549
vn 0.27532 -0.75344 -0.59710
vn -0.06844 -0.56483 -0.82236
vn -0.07361 -0.57750 -0.81306
vn 0.00737 -0.67090 0.74151
vn 0.00002 -0.66972 0.74261
vn -0.00002 -0.67013 0.74224
vn 0.00764 -0.67139 0.74106
vn 0.69801 -0.63607 0.32894
vn 0.72196 -0.60041 0.34393
vn 0.72103 -0.60185 0.34335
vn 0.69557 -0.63951 0.32742
vn 0.07977 -0.57151 0.81671
vn 0.00008 -0.60358 0.79731
vn 0.08114 -0.55939 0.82492
vn -0.71958 -0.69163 -0.06216
vn -0.71901 -0.69478 0.01723
vn -0.76763 -0.63767 -0.06422
vn -0.77684 -0.62963 -0.00919
vn -0.58416 -0.74678 0.31792
vn -0.22072 -0.73664 0.63925
vn -0.56070 -0.75721 -0.33504
vn -0.60549 -0.70592 -0.36749
vn 0.00000 -0.77335 -0.63398
vn -0.03796 -0.78446 -0.61901
vn 0.00000 -0.61469 0.78877
vn -0.09985 -0.80017 -0.59140
vn -0.54661 -0.77938 -0.30624
vn 0.03110 -0.70309 -0.71042
vn 0.03218 -0.70545 -0.70803
vn -0.80498 -0.59193 0.04021
vn -0.75042 -0.65838 0.05830
vn -0.80261 -0.59516 0.04007
vn -0.74421 -0.66552 0.05690
vn -0.82649 -0.56278 0.01394
vn -0.82424 -0.56608 0.01351
vn -0.04585 -0.69563 -0.71694
vn -0.27234 -0.75600 -0.59523
vn -0.14011 -0.73314 -0.66549
vn -0.27532 -0.75344 -0.59710
vn 0.06844 -0.56483 -0.82236
vn 0.07361 -0.57750 -0.81306
vn -0.00739 -0.67088 0.74153
vn -0.00767 -0.67140 0.74106
vn -0.72196 -0.60041 0.34393
vn -0.69801 -0.63607 0.32894
vn -0.72103 -0.60185 0.34335
vn -0.69557 -0.63951 0.32742
vn -0.07978 -0.57148 0.81673
vn -0.08114 -0.55939 0.82492
vn 0.71958 -0.69163 -0.06216
vn 0.71901 -0.69478 0.01723
vn 0.76763 -0.63767 -0.06422
vn 0.77684 -0.62963 -0.00919
vn 0.58416 -0.74678 0.31792
vn 0.22072 -0.73664 0.63925
vn 0.56070 -0.75721 -0.33504
vn 0.60549 -0.70592 -0.36749
vn 0.03796 -0.78446 -0.61901
vn -0.00000 -0.61469 0.78877
vn 0.09985 -0.80017 -0.59140
vn 0.54661 -0.77938 -0.30624
vn -0.05366 0.99852 -0.00892
vn -0.00455 0.99897 0.04511
vn 0.05119 0.99869 0.00123
vn -0.00000 0.99890 -0.04695
vn 0.05366 0.99852 -0.00892
vn 0.00455 0.99897 0.04511
vn -0.05118 0.99869 0.00123
vn 0.00000 0.99890 -0.04695
vn 0.05366 -0.99852 -0.00892
vn 0.00455 -0.99897 0.04511
vn -0.05119 -0.99869 0.00123
vn 0.00000 -0.99890 -0.04695
vn -0.05366 -0.99852 -0.00892
vn -0.00455 -0.99897 0.04511
vn 0.05118 -0.99869 0.00123
vn -0.00000 -0.99890 -0.04695
# 202 vertex normals

vt 0.08236 0.02375 0.00000
vt 0.08252 0.13395 0.00000
vt 0.11953 0.16566 0.00000
vt 0.11935 0.01863 0.00000
vt 0.66588 0.25204 0.00000
vt 0.63258 0.24968 0.00000
vt 0.63764 0.44837 0.00000
vt 0.66547 0.44837 0.00000
vt 0.08284 0.21833 0.00000
vt 0.08086 0.41996 0.00000
vt 0.11962 0.41696 0.00000
vt 0.63907 0.64133 0.00000
vt 0.66547 0.64133 0.00000
vt 0.08116 0.49362 0.00000
vt 0.11947 0.52156 0.00000
vt 0.61107 0.66300 0.00000
vt 0.66564 0.69307 0.00000
vt 0.11919 0.66118 0.00000
vt 0.11937 0.58919 0.00000
vt 0.63821 0.88364 0.00000
vt 0.66564 0.88411 0.00000
vt 0.57405 0.65484 0.00000
vt 0.07989 0.59706 0.00000
vt 0.08177 0.65554 0.00000
vt 0.11967 0.90922 0.00000
vt 0.08153 0.80981 0.00000
vt 0.11969 0.98709 0.00000
vt 0.08181 0.91200 0.00000
vt 0.08207 0.98712 0.00000
vt 0.08158 0.88273 0.00000
vt 0.12944 0.18682 0.00000
vt 0.12941 0.02628 0.00000
vt 0.12948 0.42080 0.00000
vt 0.12957 0.53894 0.00000
vt 0.12945 0.60608 0.00000
vt 0.12970 0.67533 0.00000
vt 0.12928 0.98758 0.00000
vt 0.12929 0.91915 0.00000
vt 0.02031 0.02261 0.00000
vt 0.02020 0.12020 0.00000
vt 0.02014 0.15828 0.00000
vt 0.08256 0.17237 0.00000
vt 0.02034 0.20557 0.00000
vt 0.02049 0.41545 0.00000
vt 0.02049 0.47671 0.00000
vt 0.02049 0.58263 0.00000
vt 0.02048 0.65514 0.00000
vt 0.07984 0.59706 0.00000
vt 0.02051 0.80022 0.00000
vt 0.02049 0.90043 0.00000
vt 0.02049 0.98712 0.00000
vt 0.02048 0.87886 0.00000
vt 0.70131 0.24865 0.00000
vt 0.66583 0.25204 0.00000
vt 0.69586 0.44767 0.00000
vt 0.66583 0.44767 0.00000
vt 0.69431 0.64094 0.00000
vt 0.66583 0.64094 0.00000
vt 0.72453 0.66265 0.00000
vt 0.66565 0.69276 0.00000
vt 0.69524 0.88364 0.00000
vt 0.76447 0.65447 0.00000
vt 0.63278 0.25070 0.00000
vt 0.63780 0.44908 0.00000
vt 0.66547 0.44908 0.00000
vt 0.63923 0.64172 0.00000
vt 0.66547 0.64172 0.00000
vt 0.61139 0.66336 0.00000
vt 0.66564 0.69337 0.00000
vt 0.63837 0.88364 0.00000
vt 0.57458 0.65520 0.00000
vt 0.10393 0.17383 0.00000
vt 0.10393 0.17388 0.00000
vt 0.10393 0.17395 0.00000
vt 0.10386 0.17395 0.00000
# 75 texture coords

g arrow_outer
f 1/1/1 2/2/2 3/3/1 
f 3/3/1 4/4/1 1/1/1 
f 5/5/1 6/6/1 7/7/1 
f 7/7/1 8/8/1 5/5/1 
f 3/3/1 9/9/3 10/10/3 
f 10/10/3 11/11/1 3/3/1 
f 8/8/1 7/7/1 12/12/1 
f 12/12/1 13/13/3 8/8/1 
f 11/11/1 10/10/3 14/14/1 
f 14/14/1 15/15/1 11/11/1 
f 13/13/3 12/12/1 16/16/3 
f 16/16/3 17/17/3 13/13/3 
f 15/15/1 14/14/1 18/18/2 
f 18/18/2 19/19/1 15/15/1 
f 17/17/3 16/16/3 20/20/3 
f 20/20/3 21/21/3 17/17/3 
f 16/16/3 22/22/1 20/20/3 
f 18/18/2 14/14/1 23/23/1 
f 23/23/1 24/24/2 18/18/2 
f 25/25/1 18/18/2 24/24/2 
f 24/24/2 26/26/1 25/25/1 
f 27/27/3 25/25/1 28/28/3 
f 28/28/3 29/29/3 27/27/3 
f 25/25/1 26/26/1 30/30/1 
f 30/30/1 28/28/3 25/25/1 
f 4/4/4 3/3/5 6/31/6 
f 6/31/6 5/32/7 4/4/4 
f 3/3/8 11/11/9 7/33/10 
f 7/33/10 6/31/11 3/3/8 
f 11/11/9 15/15/12 12/34/13 
f 12/34/13 7/33/10 11/11/9 
f 15/15/14 19/19/15 16/35/16 
f 16/35/16 12/34/17 15/15/14 
f 19/19/15 18/18/18 22/36/19 
f 22/36/19 16/35/16 19/19/15 
f 25/25/20 27/27/21 21/37/22 
f 21/37/22 20/38/23 25/25/20 
f 18/18/24 25/25/25 20/38/26 
f 20/38/26 22/36/27 18/18/24 
f 31/39/28 32/40/29 2/2/30 
f 2/2/30 1/1/31 31/39/28 
f 32/40/29 33/41/32 34/42/33 
f 34/42/33 2/2/30 32/40/29 
f 33/41/34 35/43/35 9/9/36 
f 9/9/36 34/42/37 33/41/34 
f 35/43/35 36/44/38 10/10/39 
f 10/10/39 9/9/36 35/43/35 
f 36/44/38 37/45/40 14/14/41 
f 14/14/41 10/10/39 36/44/38 
f 38/46/42 39/47/43 24/24/44 
f 24/24/44 23/48/45 38/46/42 
f 39/47/46 40/49/47 26/26/48 
f 26/26/48 24/24/49 39/47/46 
f 41/50/50 42/51/51 29/29/52 
f 29/29/52 28/28/53 41/50/50 
f 37/45/54 38/46/42 23/23/45 
f 23/23/45 14/14/55 37/45/54 
f 43/52/56 41/50/50 28/28/53 
f 28/28/53 30/30/57 43/52/56 
f 40/49/47 43/52/58 30/30/59 
f 30/30/59 26/26/48 40/49/47 
f 44/2/1 1/1/1 45/3/1 
f 4/4/1 45/3/1 1/1/1 
f 46/53/1 5/54/1 47/55/1 
f 8/56/1 47/55/1 5/54/1 
f 48/9/1 45/3/1 49/10/1 
f 50/11/3 49/10/1 45/3/1 
f 47/55/1 8/56/1 51/57/60 
f 13/58/3 51/57/60 8/56/1 
f 49/10/1 50/11/3 52/14/3 
f 53/15/3 52/14/3 50/11/3 
f 51/57/60 13/58/3 54/59/3 
f 17/60/3 54/59/3 13/58/3 
f 52/14/3 53/15/3 55/18/1 
f 56/19/3 55/18/1 53/15/3 
f 54/59/3 17/60/3 57/61/3 
f 21/21/3 57/61/3 17/60/3 
f 58/62/3 54/59/3 57/61/3 
f 52/14/3 55/18/1 59/23/1 
f 60/24/1 59/23/1 55/18/1 
f 55/18/1 61/25/3 60/24/1 
f 62/26/3 60/24/1 61/25/3 
f 61/25/3 27/27/3 63/28/3 
f 29/29/3 63/28/3 27/27/3 
f 62/26/3 61/25/3 64/30/3 
f 63/28/3 64/30/3 61/25/3 
f 45/3/61 4/4/4 46/31/62 
f 5/32/7 46/31/62 4/4/4 
f 50/11/63 45/3/64 47/33/65 
f 46/31/66 47/33/65 45/3/64 
f 53/15/67 50/11/63 51/34/68 
f 47/33/65 51/34/68 50/11/63 
f 56/19/69 53/15/70 54/35/71 
f 51/34/72 54/35/71 53/15/70 
f 55/18/73 56/19/69 58/36/74 
f 54/35/71 58/36/74 56/19/69 
f 27/27/21 61/25/75 21/37/22 
f 57/38/76 21/37/22 61/25/75 
f 61/25/77 55/18/78 57/38/79 
f 58/36/80 57/38/79 55/18/78 
f 65/40/81 31/39/28 44/2/82 
f 1/1/31 44/2/82 31/39/28 
f 66/41/83 65/40/81 67/42/84 
f 44/2/82 67/42/84 65/40/81 
f 68/43/85 66/41/86 48/9/87 
f 67/42/88 48/9/87 66/41/86 
f 69/44/89 68/43/85 49/10/90 
f 48/9/87 49/10/90 68/43/85 
f 70/45/91 69/44/89 52/14/92 
f 49/10/90 52/14/92 69/44/89 
f 71/47/93 72/46/94 60/24/95 
f 59/48/96 60/24/95 72/46/94 
f 73/49/97 71/47/98 62/26/99 
f 60/24/100 62/26/99 71/47/98 
f 42/51/51 74/50/101 29/29/52 
f 63/28/102 29/29/52 74/50/101 
f 72/46/94 70/45/103 59/23/96 
f 52/14/104 59/23/96 70/45/103 
f 74/50/101 75/52/105 63/28/102 
f 64/30/106 63/28/102 75/52/105 
f 75/52/107 73/49/97 64/30/108 
f 62/26/99 64/30/108 73/49/97 
f 76/1/109 77/2/109 78/3/110 
f 78/3/110 79/4/109 76/1/109 
f 80/5/109 81/63/109 82/64/109 
f 82/64/109 83/65/109 80/5/109 
f 78/3/110 84/9/110 85/10/110 
f 85/10/110 86/11/110 78/3/110 
f 83/65/109 82/64/109 87/66/111 
f 87/66/111 88/67/110 83/65/109 
f 86/11/110 85/10/110 89/14/110 
f 89/14/110 90/15/110 86/11/110 
f 88/67/110 87/66/111 91/68/110 
f 91/68/110 92/69/110 88/67/110 
f 90/15/110 89/14/110 93/18/109 
f 93/18/109 94/19/110 90/15/110 
f 92/69/110 91/68/110 95/70/110 
f 95/70/110 96/21/110 92/69/110 
f 91/68/110 97/71/110 95/70/110 
f 93/18/109 89/14/110 98/23/109 
f 98/23/109 99/24/109 93/18/109 
f 100/25/112 93/18/109 99/24/109 
f 99/24/109 101/26/112 100/25/112 
f 102/27/111 100/25/112 103/28/111 
f 103/28/111 104/29/111 102/27/111 
f 100/25/112 101/26/112 105/30/112 
f 105/30/112 103/28/111 100/25/112 
f 79/4/113 78/3/114 81/31/115 
f 81/31/115 80/32/116 79/4/113 
f 78/3/117 86/11/118 82/33/119 
f 82/33/119 81/31/120 78/3/117 
f 86/11/118 90/15/121 87/34/122 
f 87/34/122 82/33/119 86/11/118 
f 90/15/123 94/19/124 91/35/125 
f 91/35/125 87/34/126 90/15/123 
f 94/19/124 93/18/127 97/36/128 
f 97/36/128 91/35/125 94/19/124 
f 100/25/129 102/27/130 96/37/131 
f 96/37/131 95/38/132 100/25/129 
f 93/18/133 100/25/134 95/38/135 
f 95/38/135 97/36/136 93/18/133 
f 31/39/28 65/40/81 77/2/137 
f 77/2/137 76/1/138 31/39/28 
f 65/40/81 66/41/83 106/42/139 
f 106/42/139 77/2/137 65/40/81 
f 66/41/86 68/43/85 84/9/140 
f 84/9/140 106/42/141 66/41/86 
f 68/43/85 69/44/89 85/10/142 
f 85/10/142 84/9/140 68/43/85 
f 69/44/89 70/45/91 89/14/143 
f 89/14/143 85/10/142 69/44/89 
f 72/46/94 71/47/93 99/24/144 
f 99/24/144 98/48/145 72/46/94 
f 71/47/98 73/49/97 101/26/146 
f 101/26/146 99/24/147 71/47/98 
f 74/50/101 42/51/51 104/29/148 
f 104/29/148 103/28/149 74/50/101 
f 70/45/103 72/46/94 98/23/145 
f 98/23/145 89/14/150 70/45/103 
f 75/52/105 74/50/101 103/28/149 
f 103/28/149 105/30/151 75/52/105 
f 73/49/97 75/52/107 105/30/152 
f 105/30/152 101/26/146 73/49/97 
f 107/2/112 76/1/109 108/3/112 
f 79/4/109 108/3/112 76/1/109 
f 109/53/109 80/54/109 110/55/109 
f 83/56/109 110/55/109 80/54/109 
f 111/9/112 108/3/112 112/10/112 
f 113/11/111 112/10/112 108/3/112 
f 110/55/109 83/56/109 114/57/110 
f 88/58/110 114/57/110 83/56/109 
f 112/10/112 113/11/111 115/14/111 
f 116/15/111 115/14/111 113/11/111 
f 114/57/110 88/58/110 117/59/110 
f 92/60/110 117/59/110 88/58/110 
f 115/14/111 116/15/111 118/18/110 
f 119/19/111 118/18/110 116/15/111 
f 117/59/110 92/60/110 120/61/110 
f 96/21/110 120/61/110 92/60/110 
f 121/62/111 117/59/110 120/61/110 
f 115/14/111 118/18/110 122/23/111 
f 123/24/110 122/23/111 118/18/110 
f 118/18/110 124/25/111 123/24/110 
f 125/26/111 123/24/110 124/25/111 
f 124/25/111 102/27/111 126/28/111 
f 104/29/111 126/28/111 102/27/111 
f 125/26/111 124/25/111 127/30/111 
f 126/28/111 127/30/111 124/25/111 
f 108/3/153 79/4/113 109/31/154 
f 80/32/116 109/31/154 79/4/113 
f 113/11/155 108/3/156 110/33/157 
f 109/31/158 110/33/157 108/3/156 
f 116/15/159 113/11/155 114/34/160 
f 110/33/157 114/34/160 113/11/155 
f 119/19/161 116/15/162 117/35/163 
f 114/34/164 117/35/163 116/15/162 
f 118/18/165 119/19/161 121/36/166 
f 117/35/163 121/36/166 119/19/161 
f 102/27/130 124/25/167 96/37/131 
f 120/38/168 96/37/131 124/25/167 
f 124/25/169 118/18/170 120/38/171 
f 121/36/172 120/38/171 118/18/170 
f 32/40/29 31/39/28 107/2/173 
f 76/1/138 107/2/173 31/39/28 
f 33/41/32 32/40/29 128/42/174 
f 107/2/173 128/42/174 32/40/29 
f 35/43/35 33/41/34 111/9/175 
f 128/42/176 111/9/175 33/41/34 
f 36/44/38 35/43/35 112/10/177 
f 111/9/175 112/10/177 35/43/35 
f 37/45/40 36/44/38 115/14/178 
f 112/10/177 115/14/178 36/44/38 
f 39/47/43 38/46/42 123/24/179 
f 122/48/180 123/24/179 38/46/42 
f 40/49/47 39/47/46 125/26/181 
f 123/24/182 125/26/181 39/47/46 
f 42/51/51 41/50/50 104/29/148 
f 126/28/183 104/29/148 41/50/50 
f 38/46/42 37/45/54 122/23/180 
f 115/14/184 122/23/180 37/45/54 
f 41/50/50 43/52/56 126/28/183 
f 127/30/185 126/28/183 43/52/56 
f 43/52/58 40/49/47 127/30/186 
f 125/26/181 127/30/186 40/49/47 
f 3/3/187 2/2/187 129/72/187 
f 2/2/188 34/42/188 129/73/188 
f 34/42/189 9/9/189 129/74/189 
f 9/9/190 3/3/190 129/75/190 
f 44/2/191 45/3/191 130/75/191 
f 67/42/192 44/2/192 130/72/192 
f 48/9/193 67/42/193 130/73/193 
f 45/3/194 48/9/194 130/74/194 
f 78/3/195 77/2/195 131/72/195 
f 77/2/196 106/42/196 131/73/196 
f 106/42/197 84/9/197 131/74/197 
f 84/9/198 78/3/198 131/75/198 
f 107/2/199 108/3/199 132/75/199 
f 128/42/200 107/2/200 132/72/200 
f 111/9/201 128/42/201 132/73/201 
f 108/3/202 111/9/202 132/74/202 
# 260 faces

