# 3ds Max Wavefront OBJ Exporter v0.97b - (c)2007 guruware
# File Created: 11.05.2018 12:54:45

#
# object Box002
#

v  -21.238668 -7.889655 25.972124
v  -21.238668 -7.889655 -5.965715
v  -9.315870 -12.028586 -5.965715
v  -9.315870 -12.028586 25.972124
v  5.499119 -12.028586 -5.965715
v  5.499119 -12.028586 25.972124
v  17.421919 -7.889655 -5.965715
v  17.421919 -7.889655 25.972124
v  -21.238668 -7.889655 -37.903553
v  -9.315870 -12.028586 -37.903553
v  5.499119 -12.028586 -37.903553
v  17.421919 -7.889655 -37.903553
v  -17.787865 -7.889657 -69.841385
v  -8.771808 -12.028586 -69.841385
v  4.955056 -12.028586 -69.841385
v  13.971114 -7.889657 -69.841385
v  -24.130856 21.708025 25.972124
v  -9.315870 21.708025 25.972124
v  -9.315870 21.708025 -5.965715
v  -24.130856 21.708025 -5.965715
v  5.499119 21.708025 25.972124
v  5.499119 21.708025 -5.965715
v  20.314106 21.708025 25.972124
v  20.314106 21.708025 -5.965715
v  -9.315870 21.708025 -37.903553
v  -24.130856 21.708025 -37.903553
v  5.499119 21.708025 -37.903553
v  20.314106 21.708025 -37.903553
v  -8.771808 21.708025 -69.841385
v  -22.498669 21.708025 -69.841385
v  4.955056 21.708025 -69.841385
v  18.681919 21.708025 -69.841385
v  -18.143879 3.919526 154.668777
v  -8.124652 -0.219405 154.668777
v  -8.124652 7.146928 154.668777
v  -20.574305 7.146928 154.668777
v  4.325003 -0.219405 154.668777
v  4.325003 7.146928 154.668777
v  14.344230 3.919526 154.668777
v  16.774656 7.146928 154.668777
v  -8.124652 19.052374 154.668777
v  -20.574305 19.052374 154.668777
v  4.325003 19.052374 154.668777
v  16.774656 19.052374 154.668777
v  -8.124652 21.708025 154.668777
v  -20.574305 21.708025 154.668777
v  4.325003 21.708025 154.668777
v  16.774656 21.708025 154.668777
v  20.314108 7.146928 -5.965715
v  20.314108 7.146928 25.972124
v  20.314108 7.146928 -37.903553
v  18.681921 7.146928 -69.841385
v  20.314108 19.052374 -5.965714
v  20.314108 19.052374 25.972124
v  20.314108 19.052374 -37.903553
v  18.681921 19.052374 -69.841385
v  3.210985 -7.889655 -142.414658
v  -0.201922 -12.028586 -150.063904
v  0.589667 7.146928 -160.422165
v  5.585752 7.146928 -151.142303
v  -3.614828 -12.028586 -150.063904
v  -4.406417 7.146928 -160.422165
v  -7.027734 -7.889655 -142.414658
v  -9.402502 7.146928 -151.142303
v  2.151340 19.052374 -165.441391
v  10.270765 19.052374 -165.441391
v  -5.968088 19.052374 -165.441391
v  -14.087517 19.052374 -165.441391
v  2.151339 21.708025 -165.441376
v  10.270764 21.708025 -165.441376
v  -5.968089 21.708025 -165.441376
v  -14.087516 21.708025 -165.441376
v  -24.130857 7.146928 -37.903553
v  -22.498671 7.146928 -69.841385
v  -24.130857 7.146928 -5.965717
v  -24.130857 7.146928 25.972124
v  -24.130857 19.052374 -37.903553
v  -22.498671 19.052374 -69.841385
v  -24.130857 19.052374 -5.965717
v  -24.130857 19.052374 25.972124
v  -11.604851 -7.889657 -108.541382
v  -5.140534 -12.028586 -108.541382
v  1.323784 -12.028586 -108.541382
v  7.788100 -7.889657 -108.541382
v  -7.746670 21.708025 -108.541382
v  -19.423258 21.708025 -108.541382
v  3.929920 21.708025 -108.541382
v  15.606507 21.708025 -108.541382
v  15.606509 7.146928 -108.541389
v  15.606509 19.052374 -108.541389
v  -19.423260 7.146928 -108.541389
v  -19.423260 19.052374 -108.541389
v  -8.124652 -12.028586 112.168777
v  -18.143879 -7.889655 112.168777
v  4.325003 -12.028586 112.168777
v  14.344230 -7.889655 112.168777
v  -20.574305 21.708025 112.168777
v  -8.124652 21.708025 112.168777
v  4.325003 21.708025 112.168777
v  16.774656 21.708025 112.168777
v  -20.574305 7.146928 112.168777
v  16.774656 7.146928 112.168777
v  -20.574305 19.052374 112.168777
v  16.774656 19.052374 112.168777
# 104 vertices

vn -0.327946 -0.944697 -0.000000
vn 0.000000 -1.000000 -0.000000
vn 0.327946 -0.944697 -0.000000
vn -0.327946 -0.944696 -0.000000
vn 0.327946 -0.944696 -0.000000
vn -0.367550 -0.929719 -0.022987
vn 0.367550 -0.929719 -0.022987
vn 0.000000 1.000000 -0.000000
vn 0.000000 0.000000 1.000000
vn 0.982000 -0.188881 -0.000000
vn 0.966624 -0.244379 -0.076920
vn 1.000000 0.000000 -0.000000
vn 0.998697 0.000000 -0.051039
vn 1.000000 0.000001 -0.000000
vn 0.998697 0.000001 -0.051039
vn 0.883932 -0.287533 -0.368767
vn 0.000000 -0.475273 -0.879839
vn -0.883932 -0.287533 -0.368767
vn 0.447984 -0.631215 -0.633149
vn 0.000000 -0.388478 -0.921458
vn -0.447984 -0.631215 -0.633149
vn 0.000000 0.000006 -1.000000
vn -0.966624 -0.244379 -0.076920
vn -0.982000 -0.188881 -0.000000
vn -0.998697 0.000000 -0.051039
vn -1.000000 0.000000 -0.000000
vn -0.998697 0.000001 -0.051039
vn -1.000000 0.000001 -0.000000
vn -0.470708 -0.880268 -0.059686
vn 0.470708 -0.880268 -0.059686
vn 0.917514 -0.382259 -0.109751
vn 0.996857 0.000000 -0.079218
vn 0.996857 0.000001 -0.079218
vn -0.917514 -0.382259 -0.109751
vn -0.996857 0.000000 -0.079218
vn -0.996857 0.000001 -0.079218
vn 0.665573 -0.744386 -0.053874
vn 0.915950 -0.361199 -0.174842
vn -0.665573 -0.744385 -0.053874
vn -0.915950 -0.361199 -0.174842
vn 0.950188 -0.275024 -0.146647
vn -0.950188 -0.275024 -0.146647
vn 0.995632 0.000001 -0.093364
vn -0.995632 0.000001 -0.093364
vn -0.352964 -0.935596 0.008775
vn 0.352964 -0.935597 0.008705
vn -0.983986 -0.174155 0.037965
vn 0.983994 -0.174156 0.037770
vn -0.999150 0.000000 0.041226
vn 0.999158 0.000000 0.041028
vn -0.369804 -0.895194 0.248741
vn -0.965744 -0.257027 0.035709
vn 0.000000 -0.963497 0.267720
vn 0.369804 -0.895194 0.248741
vn 0.965744 -0.257027 0.035709
# 55 vertex normals

vt 1.000000 0.000000 0.000000
vt 1.000000 0.333333 0.000000
vt 0.666667 0.333333 0.000000
vt 0.666667 0.000000 0.000000
vt 0.333333 0.333333 0.000000
vt 0.333333 0.000000 0.000000
vt 0.000000 0.333333 0.000000
vt 0.000000 0.000000 0.000000
vt 1.000000 0.666667 0.000000
vt 0.666667 0.666667 0.000000
vt 0.333333 0.666667 0.000000
vt 0.000000 0.666667 0.000000
vt 1.000000 1.000000 0.000000
vt 0.666667 1.000000 0.000000
vt 0.333333 1.000000 0.000000
vt 0.000000 1.000000 0.000000
# 16 texture coords

g Box002
f 1/1/1 2/2/1 3/3/1 4/4/1 
f 4/4/2 3/3/2 5/5/2 6/6/2 
f 6/6/3 5/5/3 7/7/3 8/8/3 
f 2/2/4 9/9/4 10/10/4 3/3/4 
f 3/3/2 10/10/2 11/11/2 5/5/2 
f 5/5/5 11/11/5 12/12/5 7/7/5 
f 9/9/6 13/13/6 14/14/6 10/10/6 
f 10/10/2 14/14/2 15/15/2 11/11/2 
f 11/11/7 15/15/7 16/16/7 12/12/7 
f 17/8/8 18/6/8 19/5/8 20/7/8 
f 18/6/8 21/4/8 22/3/8 19/5/8 
f 21/4/8 23/1/8 24/2/8 22/3/8 
f 20/7/8 19/5/8 25/11/8 26/12/8 
f 19/5/8 22/3/8 27/10/8 25/11/8 
f 22/3/8 24/2/8 28/9/8 27/10/8 
f 26/12/8 25/11/8 29/15/8 30/16/8 
f 25/11/8 27/10/8 31/14/8 29/15/8 
f 27/10/8 28/9/8 32/13/8 31/14/8 
f 33/8/9 34/6/9 35/5/9 36/7/9 
f 34/6/9 37/4/9 38/3/9 35/5/9 
f 37/4/9 39/1/9 40/2/9 38/3/9 
f 36/7/9 35/5/9 41/11/9 42/12/9 
f 35/5/9 38/3/9 43/10/9 41/11/9 
f 38/3/9 40/2/9 44/9/9 43/10/9 
f 42/12/9 41/11/9 45/15/9 46/16/9 
f 41/11/9 43/10/9 47/14/9 45/15/9 
f 43/10/9 44/9/9 48/13/9 47/14/9 
f 8/8/10 7/6/10 49/5/10 50/7/10 
f 7/6/10 12/4/10 51/3/10 49/5/10 
f 12/4/11 16/1/11 52/2/11 51/3/11 
f 50/7/12 49/5/12 53/11/12 54/12/12 
f 49/5/12 51/3/12 55/10/12 53/11/12 
f 51/3/13 52/2/13 56/9/13 55/10/13 
f 54/12/14 53/11/14 24/15/14 23/16/14 
f 53/11/14 55/10/14 28/14/14 24/15/14 
f 55/10/15 56/9/15 32/13/15 28/14/15 
f 57/8/16 58/6/16 59/5/16 60/7/16 
f 58/6/17 61/4/17 62/3/17 59/5/17 
f 61/4/18 63/1/18 64/2/18 62/3/18 
f 60/7/19 59/5/19 65/11/19 66/12/19 
f 59/5/20 62/3/20 67/10/20 65/11/20 
f 62/3/21 64/2/21 68/9/21 67/10/21 
f 66/12/22 65/11/22 69/15/22 70/16/22 
f 65/11/22 67/10/22 71/14/22 69/15/22 
f 67/10/22 68/9/22 72/13/22 71/14/22 
f 13/8/23 9/6/23 73/5/23 74/7/23 
f 9/6/24 2/4/24 75/3/24 73/5/24 
f 2/4/24 1/1/24 76/2/24 75/3/24 
f 74/7/25 73/5/25 77/11/25 78/12/25 
f 73/5/26 75/3/26 79/10/26 77/11/26 
f 75/3/26 76/2/26 80/9/26 79/10/26 
f 78/12/27 77/11/27 26/15/27 30/16/27 
f 77/11/28 79/10/28 20/14/28 26/15/28 
f 79/10/28 80/9/28 17/13/28 20/14/28 
f 14/4/29 13/1/29 81/1/29 82/4/29 
f 15/6/2 14/4/2 82/4/2 83/6/2 
f 16/8/30 15/6/30 83/6/30 84/8/30 
f 30/13/8 29/14/8 85/14/8 86/13/8 
f 29/14/8 31/15/8 87/15/8 85/14/8 
f 31/15/8 32/16/8 88/16/8 87/15/8 
f 52/7/31 16/8/31 84/8/31 89/7/31 
f 56/12/32 52/7/32 89/7/32 90/12/32 
f 32/16/33 56/12/33 90/12/33 88/16/33 
f 13/1/34 74/2/34 91/2/34 81/1/34 
f 74/2/35 78/9/35 92/9/35 91/2/35 
f 78/9/36 30/13/36 86/13/36 92/9/36 
f 84/8/37 83/6/37 58/6/37 57/8/37 
f 89/7/38 84/8/38 57/8/38 60/7/38 
f 83/6/2 82/4/2 61/4/2 58/6/2 
f 82/4/39 81/1/39 63/1/39 61/4/39 
f 81/1/40 91/2/40 64/2/40 63/1/40 
f 90/12/41 89/7/41 60/7/41 66/12/41 
f 91/2/42 92/9/42 68/9/42 64/2/42 
f 87/15/8 88/16/8 70/16/8 69/15/8 
f 88/16/43 90/12/43 66/12/43 70/16/43 
f 85/14/8 87/15/8 69/15/8 71/14/8 
f 92/9/44 86/13/44 72/13/44 68/9/44 
f 86/13/8 85/14/8 71/14/8 72/13/8 
f 1/8/45 4/6/45 93/6/45 94/8/45 
f 4/6/2 6/4/2 95/4/2 93/6/2 
f 6/4/46 8/1/46 96/1/46 95/4/46 
f 18/15/8 17/16/8 97/16/8 98/15/8 
f 21/14/8 18/15/8 98/15/8 99/14/8 
f 23/13/8 21/14/8 99/14/8 100/13/8 
f 76/7/47 1/8/47 94/8/47 101/7/47 
f 8/1/48 50/2/48 102/2/48 96/1/48 
f 80/12/49 76/7/49 101/7/49 103/12/49 
f 50/2/50 54/9/50 104/9/50 102/2/50 
f 17/16/49 80/12/49 103/12/49 97/16/49 
f 54/9/50 23/13/50 100/13/50 104/9/50 
f 94/8/51 93/6/51 34/6/51 33/8/51 
f 101/7/52 94/8/52 33/8/52 36/7/52 
f 93/6/53 95/4/53 37/4/53 34/6/53 
f 95/4/54 96/1/54 39/1/54 37/4/54 
f 96/1/55 102/2/55 40/2/55 39/1/55 
f 103/12/26 101/7/26 36/7/26 42/12/26 
f 102/2/12 104/9/12 44/9/12 40/2/12 
f 98/15/8 97/16/8 46/16/8 45/15/8 
f 97/16/26 103/12/26 42/12/26 46/16/26 
f 99/14/8 98/15/8 45/15/8 47/14/8 
f 104/9/12 100/13/12 48/13/12 44/9/12 
f 100/13/8 99/14/8 47/14/8 48/13/8 
# 102 polygons

